<?xml version="1.0" encoding="UTF-8" standalone="no"?>
<!-- Created with Inkscape (http://www.inkscape.org/) -->

<svg
   xmlns:dc="http://purl.org/dc/elements/1.1/"
   xmlns:cc="http://creativecommons.org/ns#"
   xmlns:rdf="http://www.w3.org/1999/02/22-rdf-syntax-ns#"
   xmlns:svg="http://www.w3.org/2000/svg"
   xmlns="http://www.w3.org/2000/svg"
   xmlns:sodipodi="http://sodipodi.sourceforge.net/DTD/sodipodi-0.dtd"
   xmlns:inkscape="http://www.inkscape.org/namespaces/inkscape"
   width="47.625mm"
   height="47.625mm"
   viewBox="0 0 47.625 47.625"
   version="1.1"
   id="svg8"
   inkscape:version="0.92.5 (2060ec1f9f, 2020-04-08)"
   sodipodi:docname="logo_mappa_redondo.svg">
  <defs
     id="defs2" />
  <sodipodi:namedview
     id="base"
     pagecolor="#ffffff"
     bordercolor="#666666"
     borderopacity="1.0"
     inkscape:pageopacity="0.0"
     inkscape:pageshadow="2"
     inkscape:zoom="0.49264169"
     inkscape:cx="233.39194"
     inkscape:cy="-74.454432"
     inkscape:document-units="mm"
     inkscape:current-layer="layer1"
     showgrid="false"
     inkscape:window-width="1366"
     inkscape:window-height="731"
     inkscape:window-x="1280"
     inkscape:window-y="0"
     inkscape:window-maximized="1"
     fit-margin-top="0"
     fit-margin-left="0"
     fit-margin-right="0"
     fit-margin-bottom="0" />
  <metadata
     id="metadata5">
    <rdf:RDF>
      <cc:Work
         rdf:about="">
        <dc:format>image/svg+xml</dc:format>
        <dc:type
           rdf:resource="http://purl.org/dc/dcmitype/StillImage" />
        <dc:title></dc:title>
      </cc:Work>
    </rdf:RDF>
  </metadata>
  <g
     inkscape:label="Camada 1"
     inkscape:groupmode="layer"
     id="layer1"
     transform="translate(-42.711311,-81.175598)">
    <circle
       style="fill:#663366;fill-opacity:1;stroke:#ffffff;stroke-width:1.41357172;stroke-linecap:round;stroke-linejoin:round;stroke-miterlimit:4;stroke-dasharray:none;stroke-dashoffset:0;stroke-opacity:1"
       id="path5240"
       cx="66.523811"
       cy="104.9881"
       r="23.105715" />
    <path
       style="color:#000000;font-style:normal;font-variant:normal;font-weight:normal;font-stretch:normal;font-size:medium;line-height:normal;font-family:sans-serif;font-variant-ligatures:normal;font-variant-position:normal;font-variant-caps:normal;font-variant-numeric:normal;font-variant-alternates:normal;font-feature-settings:normal;text-indent:0;text-align:start;text-decoration:none;text-decoration-line:none;text-decoration-style:solid;text-decoration-color:#000000;letter-spacing:normal;word-spacing:normal;text-transform:none;writing-mode:lr-tb;direction:ltr;text-orientation:mixed;dominant-baseline:auto;baseline-shift:baseline;text-anchor:start;white-space:normal;shape-padding:0;clip-rule:nonzero;display:inline;overflow:visible;visibility:visible;opacity:1;isolation:auto;mix-blend-mode:normal;color-interpolation:sRGB;color-interpolation-filters:linearRGB;solid-color:#000000;solid-opacity:1;vector-effect:none;fill:#ffffff;fill-opacity:1;fill-rule:nonzero;stroke:none;stroke-width:1.42529321;stroke-linecap:butt;stroke-linejoin:round;stroke-miterlimit:4;stroke-dasharray:none;stroke-dashoffset:0;stroke-opacity:1;color-rendering:auto;image-rendering:auto;shape-rendering:auto;text-rendering:auto;enable-background:accumulate"
       d="m 70.951249,91.349643 a 0.71271786,0.71271786 0 0 0 -0.118997,0.01151 l -8.857509,1.71196 -9.247677,-0.805549 a 0.71271786,0.71271786 0 0 0 -0.774141,0.703805 l -0.195527,24.084211 a 0.71271786,0.71271786 0 0 0 0.647184,0.7153 l 9.347651,0.85288 a 0.71271786,0.71271786 0 0 0 0.191988,-0.008 l 9.260948,-1.69382 9.260948,1.46777 a 0.71271786,0.71271786 0 0 0 0.824129,-0.7038 V 93.776911 a 0.71271786,0.71271786 0 0 0 -0.586577,-0.700268 l -9.610418,-1.717267 a 0.71271786,0.71271786 0 0 0 -0.142002,-0.0097 z m 0.02167,1.435924 8.891131,1.588539 v 22.477534 l -8.554933,-1.3563 a 0.71271786,0.71271786 0 0 0 -0.241088,0.002 l -9.283951,1.69869 -8.5974,-0.78387 0.184025,-22.658026 8.578818,0.747156 a 0.71271786,0.71271786 0 0 0 0.197302,-0.01024 z m -10.970695,2.438325 c -0.489249,-6.8e-4 -0.985097,0.133856 -1.413363,0.435731 a 0.71271786,0.71271786 0 0 0 -0.04689,0.03671 c -0.02244,0.01882 -0.108028,0.07749 -0.217201,0.197295 -0.109173,0.119814 -0.26409,0.350152 -0.265863,0.650723 a 0.71271786,0.71271786 0 0 0 1.374433,0.275594 c 0.208221,-0.137725 0.512107,-0.20097 0.797145,-0.148635 a 0.71271786,0.71271786 0 0 0 0.0018,0 c 0.218194,0.03975 0.444359,0.141759 0.650722,0.289307 a 0.71310213,0.71310213 0 1 0 0.828997,-1.160328 c -0.351996,-0.25166 -0.764297,-0.447763 -1.223565,-0.531719 h -0.0018 C 60.327761,95.2395 60.165331,95.22411 60.002247,95.22389 Z m -3.359334,0.671511 c -0.796634,0 -1.434596,0.674729 -1.434596,1.473083 0,0.798354 0.637962,1.474409 1.434596,1.474409 0.796633,0 1.432826,-0.676055 1.432826,-1.474409 0,-0.798354 -0.636193,-1.473083 -1.432826,-1.473083 z m 0,0.931183 c 0.27225,0 0.501202,0.226698 0.501202,0.5419 0,0.315204 -0.228952,0.543227 -0.501202,0.543227 -0.272251,0 -0.501645,-0.228023 -0.501645,-0.543227 0,-0.315202 0.229394,-0.5419 0.501645,-0.5419 z m 14.345069,0.809974 c -0.138264,0.0027 -0.277609,0.01112 -0.418037,0.0261 a 0.71297153,0.71297153 0 1 0 0.152181,1.417786 c 0.776788,-0.08289 1.619974,0.125808 2.451153,0.443254 a 0.71323991,0.71323991 0 0 0 0.508279,-1.332853 c -0.813678,-0.31076 -1.72572,-0.573653 -2.693571,-0.554285 z m -8.058594,0.295501 a 0.71271786,0.71271786 0 0 0 -0.612237,1.017886 c 0.217407,0.473215 0.376457,0.913636 0.393265,1.314273 a 0.71271786,0.71271786 0 0 0 0.0013,0.0115 c 0.01873,0.31474 -0.01778,0.64479 -0.09865,0.97011 a 0.71271786,0.71271786 0 1 0 1.382839,0.34238 c 0.110271,-0.44354 0.164527,-0.91065 0.137134,-1.38769 -0.03063,-0.709684 -0.278434,-1.320233 -0.519781,-1.845557 a 0.71271786,0.71271786 0 0 0 -0.683899,-0.422904 z m 5.184538,0.879425 a 0.71271786,0.71271786 0 0 0 -0.499875,0.191987 c -0.443658,0.405718 -0.808904,0.879536 -1.105032,1.384607 -0.290318,0.46415 -0.451175,0.98314 -0.496779,1.50626 a 0.71271786,0.71271786 0 1 0 1.419555,0.12386 c 0.0279,-0.31998 0.127178,-0.62677 0.287539,-0.8812 a 0.71271786,0.71271786 0 0 0 0.01151,-0.0199 c 0.2322,-0.39784 0.517239,-0.76081 0.846246,-1.06168 a 0.71271786,0.71271786 0 0 0 -0.463158,-1.243934 z m 7.431761,1.105032 a 0.71271786,0.71271786 0 0 0 -0.647182,0.994882 c 0.159061,0.38164 0.09031,0.90783 -0.14023,1.3793 a 0.71271786,0.71271786 0 0 0 -0.0035,0.008 c -0.09439,0.20014 -0.218256,0.40315 -0.3592,0.61179 a 0.71296781,0.71296781 0 0 0 1.182004,0.79759 c 0.162807,-0.24101 0.323679,-0.50201 0.461389,-0.79228 0.357913,-0.73197 0.546434,-1.66363 0.17562,-2.55334 A 0.71271786,0.71271786 0 0 0 75.54567,99.916016 Z m -13.48732,3.330582 a 0.71271786,0.71271786 0 0 0 -0.583923,0.31938 c -0.51156,0.75059 -1.098581,1.46893 -1.705325,2.19326 a 0.71271786,0.71271786 0 1 0 1.09176,0.91481 c 0.612982,-0.73177 1.233359,-1.48525 1.792472,-2.30562 a 0.71271786,0.71271786 0 0 0 -0.594984,-1.12183 z m 4.953624,0.81395 a 0.71271786,0.71271786 0 0 0 -0.706904,0.84802 c 0.16398,0.92724 0.305776,1.82679 0.292406,2.6949 a 0.7131774,0.7131774 0 1 0 1.426189,0.0217 c 0.01595,-1.0351 -0.148103,-2.02503 -0.314522,-2.96606 a 0.71271786,0.71271786 0 0 0 -0.697169,-0.59852 z m 6.232947,0.80599 a 0.71271786,0.71271786 0 0 0 -0.531725,0.27913 c -0.587452,0.7471 -1.191143,1.51578 -1.725231,2.35914 a 0.71271786,0.71271786 0 1 0 1.203682,0.76265 c 0.483165,-0.76297 1.055578,-1.49471 1.642065,-2.24059 A 0.71271786,0.71271786 0 0 0 73.24492,104.86704 Z M 58.5287,107.70748 a 0.71271786,0.71271786 0 0 0 -0.590118,0.30302 c -0.451683,0.62651 -0.969176,1.35104 -1.190409,2.27377 a 0.71271786,0.71271786 0 0 0 -0.0035,0.01 c -0.05054,0.22622 -0.08136,0.47572 -0.06503,0.74097 a 0.71278784,0.71278784 0 1 0 1.422652,-0.0889 c -0.0059,-0.0941 0.0055,-0.20659 0.03185,-0.32913 v -0.002 c 0.139662,-0.58104 0.521636,-1.161 0.961263,-1.77079 a 0.71271786,0.71271786 0 0 0 -0.566671,-1.13688 z m 17.779163,1.73231 a 0.54149434,0.54149434 0 0 0 -0.494567,0.67726 l 0.187565,0.76928 -0.595868,-0.13227 a 0.54149434,0.54149434 0 0 0 -0.106612,-0.015 0.54149434,0.54149434 0 0 0 -0.128729,1.07141 l 1.117419,0.24817 0.335315,1.37399 a 0.54149434,0.54149434 0 1 0 1.051506,-0.25613 l -0.208799,-0.85598 0.616661,0.13713 a 0.54149434,0.54149434 0 1 0 0.23578,-1.05681 l -1.138651,-0.25259 -0.314081,-1.28862 a 0.54149434,0.54149434 0 0 0 -0.556939,-0.4198 z m -9.655098,0.19906 a 0.71271786,0.71271786 0 0 0 -0.61887,0.38133 c -0.387847,0.71355 -0.996381,1.32516 -1.707094,1.77698 a 0.71271786,0.71271786 0 1 0 0.76441,1.20235 c 0.889601,-0.56552 1.673654,-1.33799 2.195023,-2.2972 a 0.71271786,0.71271786 0 0 0 -0.633469,-1.06346 z m 3.88221,0.14333 v 4.5e-4 a 0.71271786,0.71271786 0 0 0 -0.718844,0.62861 c -0.124027,0.94645 0.118152,1.90975 0.663549,2.68693 0.110491,0.16094 0.231366,0.32738 0.371147,0.49147 a 0.71279148,0.71279148 0 0 0 1.085124,-0.92455 c -0.09586,-0.11253 -0.189168,-0.24053 -0.284441,-0.37955 a 0.71271786,0.71271786 0 0 0 -0.0049,-0.007 c -0.337871,-0.48146 -0.493947,-1.10259 -0.418038,-1.68188 a 0.71271786,0.71271786 0 0 0 -0.693631,-0.8144 z m 4.470561,2.44805 a 0.71271786,0.71271786 0 0 0 -0.591889,0.30082 c -0.233712,0.32067 -0.527871,0.58643 -0.842708,0.74273 a 0.71294526,0.71294526 0 1 0 0.633912,1.27711 c 0.566925,-0.28145 1.017621,-0.70947 1.36072,-1.18023 a 0.71271786,0.71271786 0 0 0 -0.560035,-1.14043 z m -15.727909,0.015 a 0.71271786,0.71271786 0 0 0 -0.309214,1.36603 c 1.001452,0.44973 2.108487,0.5809 3.168231,0.45121 a 0.71271786,0.71271786 0 1 0 -0.17385,-1.41425 c -0.824046,0.10085 -1.673256,-0.007 -2.409131,-0.33619 a 0.71271786,0.71271786 0 0 0 -0.276036,-0.0668 z"
       id="path21"
       inkscape:connector-curvature="0" />
  </g>
</svg>
