<?xml version="1.0" encoding="UTF-8" standalone="no"?>
<!-- Created with Inkscape (http://www.inkscape.org/) -->

<svg
   xmlns:dc="http://purl.org/dc/elements/1.1/"
   xmlns:cc="http://creativecommons.org/ns#"
   xmlns:rdf="http://www.w3.org/1999/02/22-rdf-syntax-ns#"
   xmlns:svg="http://www.w3.org/2000/svg"
   xmlns="http://www.w3.org/2000/svg"
   xmlns:sodipodi="http://sodipodi.sourceforge.net/DTD/sodipodi-0.dtd"
   xmlns:inkscape="http://www.inkscape.org/namespaces/inkscape"
   width="288.65564mm"
   height="288.69055mm"
   viewBox="0 0 1022.7956 1022.9193"
   id="svg2"
   version="1.1"
   inkscape:version="0.91 r13725"
   sodipodi:docname="scouts.svg">
  <defs
     id="defs4" />
  <sodipodi:namedview
     id="base"
     pagecolor="#ffffff"
     bordercolor="#666666"
     borderopacity="1.0"
     inkscape:pageopacity="0.0"
     inkscape:pageshadow="2"
     inkscape:zoom="0.76163802"
     inkscape:cx="511.39779"
     inkscape:cy="511.45963"
     inkscape:document-units="px"
     inkscape:current-layer="layer1"
     showgrid="false"
     inkscape:window-width="1280"
     inkscape:window-height="974"
     inkscape:window-x="0"
     inkscape:window-y="0"
     inkscape:window-maximized="1"
     fit-margin-top="0"
     fit-margin-left="0"
     fit-margin-right="0"
     fit-margin-bottom="0" />
  <metadata
     id="metadata7">
    <rdf:RDF>
      <cc:Work
         rdf:about="">
        <dc:format>image/svg+xml</dc:format>
        <dc:type
           rdf:resource="http://purl.org/dc/dcmitype/StillImage" />
        <dc:title></dc:title>
      </cc:Work>
    </rdf:RDF>
  </metadata>
  <g
     inkscape:label="Camada 1"
     inkscape:groupmode="layer"
     id="layer1"
     transform="translate(1248.4597,-638.17852)">
    <g
       id="g4151">
      <path
         sodipodi:nodetypes="sccsssssssssssssss"
         style="fill:#ffffff;fill-opacity:1"
         d="m -763.36832,1660.5341 c -72.07251,-4.2697 -139.64922,-21.957 -200.92185,-52.5888 -102.38503,-53.4609 -182.97433,-135.9563 -230.79583,-230.2975 -29.3358,-58.69 -46.1157,-119.1597 -52.2084,-188.1427 -1.7623,-19.9537 -1.4802,-65.0181 0.5383,-86 10.3054,-107.11981 50.2981,-202.71527 119.0091,-284.47014 13.7903,-16.40825 43.2585,-45.92177 59.6041,-59.69589 60.8487,-51.27601 131.561,-87.55945 206.99998,-106.21452 43.20993,-10.68524 78.59479,-14.95027 124,-14.94603 57.58017,0.005 108.51418,8.14451 161.5,25.80734 61.93899,20.64737 117.51376,51.84497 169,94.87029 15.42252,12.88808 47.26085,44.72641 60.14893,60.14893 58.39913,69.88329 96.94535,151.42366 112.74507,238.50002 9.1879,50.6367 10.5744,105.3046 4.0073,158 -7.9614,63.8841 -30.09218,129.7514 -63.16612,188 -33.54024,59.0698 -82.53782,114.1825 -139.8115,157.2605 -67.25669,50.5866 -154.54623,85.7348 -238.92368,96.2054 -28.58656,3.5474 -66.88045,5.0349 -91.7254,3.5631 z"
         id="path4149"
         inkscape:connector-curvature="0" />
      <path
         inkscape:connector-curvature="0"
         id="path4147"
         d="m -763.36831,1660.5341 c -72.07251,-4.2697 -139.64922,-21.957 -200.92185,-52.5888 -51.86724,-25.9298 -93.15174,-55.7104 -134.36714,-96.9258 -40.9683,-40.9683 -71.0117,-82.5217 -96.4287,-133.3717 -29.3358,-58.69 -46.1157,-119.1596 -52.2084,-188.1427 -1.7623,-19.9537 -1.4802,-65.0181 0.5383,-86 10.3054,-107.1198 50.2981,-202.71526 119.0091,-284.47013 13.7904,-16.40825 43.2585,-45.92177 59.6041,-59.69589 60.8487,-51.27601 131.56101,-87.55945 206.99999,-106.21452 43.20993,-10.68524 78.59479,-14.95027 124,-14.94603 57.58017,0.005 108.51418,8.14451 161.5,25.80734 61.93899,20.64737 117.51376,51.84497 169,94.87029 15.42252,12.88808 47.26085,44.72641 60.14893,60.14893 58.39913,69.88329 96.94535,151.42366 112.74507,238.50001 9.1879,50.6367 10.5744,105.3046 4.0073,158 -7.9614,63.8841 -30.09218,129.7514 -63.16612,188 -33.54024,59.0698 -82.53782,114.1825 -139.8115,157.2605 -67.25669,50.5866 -154.54623,85.7348 -238.92368,96.2054 -28.58656,3.5474 -66.88045,5.0349 -91.7254,3.5631 z m 61.7254,-67.1364 c 22.93504,-1.5801 45.87257,-4.9829 64,-9.4942 7.19389,-1.7903 23.48209,-7.1016 25.28521,-8.245 0.93025,-0.5899 -0.47788,-2.6399 -5.09828,-7.4222 -16.6188,-17.2014 -31.51904,-46.1142 -39.54348,-76.7312 -7.1218,-27.173 -9.17309,-43.6766 -9.85026,-79.25 l -0.54729,-28.75 17.56578,0 17.56577,0 0.48776,4.25 c 4.83672,42.1443 9.4659,60.9514 19.97818,81.1658 6.01742,11.5712 15.71866,22.6673 23.5391,26.9237 7.83806,4.266 22.71299,7.6627 33.49573,7.6486 15.9737,-0.021 27.08296,-4.4474 37.62178,-14.9911 13.40499,-13.4111 26,-42.9667 26,-61.012 0,-5.5639 -1.79458,-13.985 -2.98029,-13.985 -0.40857,0 -4.51765,1.733 -9.13129,3.8512 -14.79039,6.7905 -22.67502,8.638 -36.88842,8.6438 -11.66286,0 -12.91672,-0.1875 -18.72237,-2.8692 -11.52737,-5.3246 -19.09288,-15.6842 -23.17776,-31.7378 l -1.8799,-7.388 11.64001,-0.5297 c 10.3972,-0.4731 12.20103,-0.8374 16.89435,-3.4113 9.44556,-5.1802 14.24567,-14.2887 14.24567,-27.0322 0,-19.7874 -11.27762,-30.5268 -32.05656,-30.5268 l -8.98154,0 0.62031,-2.75 c 1.92462,-8.5323 7.79035,-23.3208 12.03808,-30.35 8.44727,-13.9786 22.13253,-25.6707 36.21317,-30.9389 20.74403,-7.7613 52.80893,-6.7575 71.16654,2.2281 12.00846,5.8778 20.71332,17.1975 24.51909,31.8844 1.84884,7.1349 2.40472,22.7396 1.18731,33.3301 l -0.7936,6.9037 9.7936,-0.6462 c 30.43821,-2.0086 66.72691,-17.3052 100.60299,-42.4069 31.89952,-23.6371 56.55938,-62.2852 63.3553,-99.2934 2.33245,-12.7017 2.32159,-36.2224 -0.0224,-48.4609 -4.16393,-21.7412 -12.15483,-40.806 -22.48524,-53.6456 -24.433,-30.3677 -58.60482,-50.8837 -95.65708,-57.4307 -12.23389,-2.1616 -40.80164,-2.4861 -54,-0.6133 -20.1417,2.8581 -48.93257,11.3259 -63.5,18.6763 -7.84934,3.9607 -21.09869,13.2006 -32.12215,22.4018 -42.88976,35.7994 -74.93143,93.6551 -90.3345,163.1115 -5.41625,24.4232 -8.3855,46.9634 -10.11043,76.75 l -0.65148,11.25 -17.53478,0 -17.53477,0 0.69396,-15.75 c 2.86294,-64.9765 18.06879,-127.955 45.33138,-187.75 9.99815,-21.929 27.10378,-70.5039 35.2149,-100 5.06981,-18.4364 9.58484,-40.61303 11.05225,-54.28583 2.0285,-18.90083 -1.32135,-44.06129 -8.54944,-64.21418 -17.68137,-49.29802 -61.36528,-107.90012 -126.77471,-170.06864 -10.54911,-10.02642 -20.88395,-19.9627 -22.96632,-22.08061 -2.08237,-2.11791 -3.97743,-3.85075 -4.21126,-3.85075 -0.88346,0 -24.50149,19.77128 -36.50262,30.5573 -14.87649,13.37026 -42.6286,41.26522 -53.8979,54.17534 -36.96293,42.34476 -59.44663,80.79161 -68.71997,117.51034 -2.13081,8.43717 -2.68253,13.40081 -3.10959,27.97602 -0.80151,27.35484 2.37387,50.1098 11.74268,84.14871 8.47083,30.7764 25.19976,78.1397 35.72038,101.1323 26.67559,58.2989 41.99115,122.1947 44.88309,187.25 l 0.67792,15.25 -17.5378,0 -17.5378,0 -0.68509,-12.25 c -5.99392,-107.1771 -43.58788,-193.8554 -105.37361,-242.9543 -21.10645,-16.7725 -35.82484,-24.0199 -63.6623,-31.3477 -63.1395,-16.6204 -118.8297,-4.3745 -160.5627,35.3066 -18.6021,17.6876 -26.6323,29.9018 -33.5571,51.0412 -5.2063,15.8934 -6.7693,26.2751 -6.7303,44.7042 0.039,18.5148 2.1426,30.6751 8.0361,46.4567 11.0022,29.4618 31.9073,57.6014 56.314,75.8022 33.8315,25.2291 70.8088,40.8906 101.2936,42.9023 l 9.7936,0.6462 -0.7936,-6.9037 c -1.2174,-10.5905 -0.6615,-26.1952 1.1873,-33.3301 3.5898,-13.8536 12.1101,-25.4182 23.0191,-31.2437 2.75,-1.4685 8.6714,-3.6051 13.1587,-4.748 27.63616,-7.0386 55.56052,-3.3474 74.79581,9.8868 10.10812,6.9546 20.34726,19.772 26.04734,32.6062 2.09785,4.7234 7.49814,21.3151 7.49814,23.037 0,0.2134 -4.03312,0.3881 -8.96249,0.3881 -20.75853,0 -32.03751,10.7471 -32.03751,30.5268 0,12.7435 4.80011,21.852 14.24567,27.0322 4.69332,2.5739 6.49715,2.9382 16.89435,3.4113 l 11.64001,0.5297 -1.8799,7.388 c -4.08488,16.0536 -11.65039,26.4132 -23.17776,31.7378 -5.87566,2.714 -6.94673,2.8707 -19.22237,2.8112 -11.93827,-0.058 -13.81672,-0.333 -23,-3.3699 -5.5,-1.8188 -12.57467,-4.603 -15.72148,-6.187 -3.14682,-1.5841 -6.1309,-2.8801 -6.63129,-2.8801 -1.32793,0 -3.14723,8.0842 -3.14723,13.985 0,18.0453 12.59501,47.6009 26,61.012 10.53882,10.5437 21.64808,14.9703 37.62178,14.9911 10.78274,0.014 25.65767,-3.3826 33.49573,-7.6486 11.68641,-6.3605 24.77836,-25.0935 31.30914,-44.7996 5.16244,-15.5772 9.7392,-37.5018 11.07207,-53.0399 0.33026,-3.85 0.84271,-8.6875 1.13877,-10.75 l 0.53831,-3.75 17.53915,0 17.53915,0 -0.54729,28.75 c -0.67717,35.5734 -2.72846,52.077 -9.85026,79.25 -8.02444,30.617 -22.92468,59.5298 -39.54348,76.7312 -4.6204,4.7823 -6.02853,6.8323 -5.09828,7.4222 2.50672,1.5896 19.43571,6.8416 29.78521,9.2405 38.50708,8.9255 82.61396,11.798 130.5,8.4987 z m -60.92904,-130.6426 c -9.85724,-42.2125 -18.12067,-77.7625 -18.36318,-79 -0.43358,-2.2125 -0.27451,-2.25 9.53819,-2.25 l 9.97913,0 2.05344,9.75 c 1.12939,5.3625 4.90374,23.3622 8.38745,39.9994 3.4837,16.6372 6.57574,30.2497 6.87119,30.25 0.42062,5e-4 10.21106,-45.2872 16.26767,-75.2494 l 0.96017,-4.75 10.9759,0 c 10.87194,0 10.9709,0.021 10.44872,2.25 -6.66918,28.4641 -38.25331,155.75 -38.64708,155.75 -0.30215,0 -8.61437,-34.5375 -18.4716,-76.75 z m -22.24056,-147 c 0.32343,-2.6125 9.44546,-93.625 20.27117,-202.25 10.82571,-108.625 19.96246,-197.82092 20.3039,-198.21315 0.34144,-0.39222 9.99015,88.93275 21.44158,198.49995 11.45142,109.5673 21.06552,200.9007 21.36467,202.9632 l 0.5439,3.75 -11,0 -11,0 -0.54587,-3.75 c -0.30023,-2.0625 -4.95918,-45.0375 -10.35322,-95.5 -5.39405,-50.4625 -10.04477,-91.75 -10.33494,-91.75 -0.29017,0 -4.53049,41.0519 -9.42294,91.2264 -4.89246,50.1746 -9.11213,93.1496 -9.37706,95.5 l -0.48169,4.2736 -10.99878,0 -10.99878,0 0.58806,-4.75 z m -336.33719,-98.9587 c 0.5049,-1.5352 3.6581,-12.0163 7.0072,-23.2913 3.3491,-11.275 6.2783,-21.0581 6.5092,-21.7401 0.2372,-0.7002 -8.381,-7.8839 -19.7948,-16.5 l -20.2148,-15.2599 24.5,-0.8193 c 13.475,-0.4506 24.95,-0.9577 25.5,-1.127 0.55,-0.1692 4.5767,-10.713 8.9482,-23.4307 4.3714,-12.7177 8.2153,-23.123 8.5418,-23.123 0.3265,0 4.2363,10.4625 8.6885,23.25 l 8.0949,23.25 24.6684,0.6384 c 13.5676,0.3512 24.8763,0.8464 25.1304,1.1004 0.254,0.2541 -8.3208,7.1215 -19.0552,15.261 -10.7343,8.1395 -19.517,15.3377 -19.517,15.996 0,0.6583 3.1364,11.4797 6.9697,24.0475 3.8333,12.5678 6.8126,23.0077 6.6207,23.1996 -0.192,0.192 -7.7159,-4.7686 -16.7197,-11.0235 -9.0039,-6.2549 -18.2627,-12.6218 -20.5752,-14.1488 l -4.2045,-2.7762 -18.2955,12.7674 c -10.0625,7.022 -19.5161,13.6119 -21.0079,14.6441 l -2.7124,1.8767 0.918,-2.7913 z m 678.57719,-21.5247 c 4.0108,-13.2988 7.10908,-24.4762 6.88508,-24.8387 -0.22401,-0.3624 -9.2539,-7.357 -20.06643,-15.5434 l -19.65914,-14.8845 24.38504,-0.8193 c 13.41178,-0.4506 24.87471,-0.971 25.47318,-1.1565 0.59847,-0.1855 4.64312,-10.7293 8.98812,-23.4307 4.34499,-12.7014 8.18112,-23.0935 8.52472,-23.0935 0.3436,0 2.99671,6.8625 5.8958,15.25 2.89909,8.3875 6.60337,18.9625 8.23172,23.5 l 2.96066,8.25 18.15542,0.1242 c 9.98549,0.068 21.27446,0.4058 25.08661,0.75 l 6.93117,0.6258 -19.68117,14.9858 c -10.82465,8.2422 -19.67827,15.4422 -19.6747,16 0.004,0.5578 3.1626,11.3176 7.02009,23.9108 3.85749,12.5931 6.85223,23.0579 6.65499,23.2552 -0.19724,0.1972 -9.46867,-5.9438 -20.60316,-13.6466 -11.13449,-7.7029 -20.47199,-14.0052 -20.74998,-14.0052 -0.278,0 -9.35312,6.2043 -20.16694,13.7873 -10.81381,7.583 -20.16142,14.0958 -20.77246,14.4731 -0.61104,0.3772 2.17058,-10.195 6.18138,-23.4938 z"
         style="fill:#663366;fill-opacity:1" />
    </g>
  </g>
</svg>
