<?xml version="1.0" encoding="UTF-8" standalone="no"?>
<!-- Created with Inkscape (http://www.inkscape.org/) -->

<svg
   xmlns:dc="http://purl.org/dc/elements/1.1/"
   xmlns:cc="http://creativecommons.org/ns#"
   xmlns:rdf="http://www.w3.org/1999/02/22-rdf-syntax-ns#"
   xmlns:svg="http://www.w3.org/2000/svg"
   xmlns="http://www.w3.org/2000/svg"
   xmlns:sodipodi="http://sodipodi.sourceforge.net/DTD/sodipodi-0.dtd"
   xmlns:inkscape="http://www.inkscape.org/namespaces/inkscape"
   width="59.99995mm"
   height="59.999962mm"
   viewBox="0 0 59.99995 59.999962"
   version="1.1"
   id="svg6604"
   inkscape:version="0.92.5 (2060ec1f9f, 2020-04-08)"
   sodipodi:docname="escoteiros.svg">
  <defs
     id="defs6598" />
  <sodipodi:namedview
     id="base"
     pagecolor="#ffffff"
     bordercolor="#666666"
     borderopacity="1.0"
     inkscape:pageopacity="0.0"
     inkscape:pageshadow="2"
     inkscape:zoom="2.3018765"
     inkscape:cx="113.38573"
     inkscape:cy="113.38575"
     inkscape:document-units="mm"
     inkscape:current-layer="g7856"
     showgrid="false"
     inkscape:window-width="1280"
     inkscape:window-height="736"
     inkscape:window-x="0"
     inkscape:window-y="27"
     inkscape:window-maximized="1"
     fit-margin-top="0"
     fit-margin-left="0"
     fit-margin-right="0"
     fit-margin-bottom="0" />
  <metadata
     id="metadata6601">
    <rdf:RDF>
      <cc:Work
         rdf:about="">
        <dc:format>image/svg+xml</dc:format>
        <dc:type
           rdf:resource="http://purl.org/dc/dcmitype/StillImage" />
        <dc:title></dc:title>
      </cc:Work>
    </rdf:RDF>
  </metadata>
  <g
     inkscape:label="Camada 1"
     inkscape:groupmode="layer"
     id="layer1"
     transform="translate(-7.041692,-12.244066)">
    <g
       id="g7856"
       transform="translate(-1.5119048,-53.672619)">
      <g
         id="g7873"
         transform="translate(-8.3154762,-14.363095)">
        <g
           transform="translate(-56.510067,3.7108124)"
           id="g4754"
           inkscape:export-xdpi="40.639999"
           inkscape:export-ydpi="40.639999">
          <path
             style="fill:#ffffff;fill-opacity:1;stroke:none;stroke-width:2.70000005;stroke-miterlimit:4;stroke-dasharray:none;stroke-opacity:1"
             d="m 103.37937,76.56897 a 30,30 0 0 0 -30.00023,29.99972 30,30 0 0 0 30.00023,30.00024 30,30 0 0 0 29.99972,-30.00024 30,30 0 0 0 -29.99972,-29.99972 z"
             id="path4731"
             inkscape:connector-curvature="0" />
          <path
             id="path4706"
             d="m 103.37937,76.568968 a 30,30 0 0 0 -30.00023,29.999722 30,30 0 0 0 30.00023,30.00024 30,30 0 0 0 29.99972,-30.00024 30,30 0 0 0 -29.99972,-29.999722 z m 0,3.99976 a 26,26 0 0 1 25.99996,25.999962 26,26 0 0 1 -25.99996,26.00048 26,26 0 0 1 -25.99996,-26.00048 26,26 0 0 1 25.99996,-25.999962 z"
             style="fill:#075424;fill-opacity:1;stroke:none;stroke-width:2.70000005;stroke-miterlimit:4;stroke-dasharray:none;stroke-opacity:1"
             inkscape:connector-curvature="0" />
        </g>
        <g
           id="g7839"
           transform="matrix(2.6324007,0,0,2.6324007,-17.207211,34.783974)">
          <path
             d="m 24.641604,35.403183 c 0.01058,-0.0381 0.02611,-0.07514 0.04304,-0.111478 0.0067,-0.01411 0.01199,-0.02858 0.01834,-0.04233 0.01023,-0.0187 0.02187,-0.03669 0.03281,-0.05539 0.07197,-0.122767 0.161925,-0.234597 0.255058,-0.342195 0.156281,-0.18168 0.286456,-0.369005 0.420511,-0.566561 0.0042,-0.006 0.0081,-0.01235 0.01164,-0.01799 0.05362,-0.07937 0.08149,-0.147109 0.09031,-0.208845 7.15e-4,-0.0081 0.0018,-0.01446 0.0025,-0.02152 0,-0.0049 -0.0014,-0.0095 -7.14e-4,-0.01447 7.14e-4,-0.04269 -0.0067,-0.0822 -0.02187,-0.121003 -3.44e-4,-0.0028 -0.0014,-0.0071 -0.0025,-0.01058 -0.02152,-0.05256 -0.05468,-0.103717 -0.09137,-0.156634 -0.0074,-0.01023 -0.01517,-0.02293 -0.02258,-0.03316 -0.0762,-0.10548 -0.155928,-0.207433 -0.235303,-0.309386 -0.0081,-0.0085 -0.01552,-0.01552 -0.02187,-0.02434 -0.02787,-0.03528 -0.05221,-0.07056 -0.06456,-0.106892 -0.01058,-0.02752 -0.01517,-0.05503 -0.01129,-0.0829 0.0014,-0.0095 0.0035,-0.0187 0.0071,-0.02787 0.0187,-0.05292 0.05609,-0.09913 0.101953,-0.144992 0.01093,-0.01093 0.02469,-0.02046 0.03634,-0.03069 0.03387,-0.03069 0.06773,-0.05997 0.104422,-0.08855 0.0056,-0.0049 0.01058,-0.0092 0.01623,-0.01411 0.05539,-0.04374 0.111125,-0.09031 0.157691,-0.140758 0.01199,-0.01305 0.02187,-0.02822 0.03246,-0.04269 0.02646,-0.03528 0.05115,-0.07161 0.06632,-0.115712 0.0011,-0.0035 0.0042,-0.0056 0.0053,-0.0099 0.01623,-0.0508 0.02434,-0.09701 0.02893,-0.142169 0.02364,-0.281517 -0.156281,-0.505883 -0.303742,-0.746831 -0.01305,-0.02011 -0.02681,-0.03916 -0.0381,-0.05962 -0.0254,-0.04057 -0.05009,-0.08149 -0.07267,-0.125589 -0.02117,-0.04128 -0.03387,-0.115711 -0.03104,-0.209903 0.0025,-0.05292 0.01164,-0.113241 0.02611,-0.1778 0.0021,-0.0095 0.0063,-0.01834 0.0085,-0.02752 0.01023,-0.04374 0.02117,-0.08643 0.03845,-0.132998 0.0081,-0.02152 0.02187,-0.04339 0.0314,-0.06491 0.01552,-0.03634 0.0314,-0.07302 0.05186,-0.110419 0.01658,-0.02928 0.03739,-0.05786 0.05609,-0.08714 0.01623,-0.02434 0.02963,-0.04904 0.04657,-0.07373 0.01446,-0.0194 0.02822,-0.0381 0.0441,-0.05715 0.0018,-0.0028 0.0032,-0.0053 0.0056,-0.0088 0.111477,-0.136878 0.258938,-0.274109 0.452613,-0.398992 0.104423,-0.06773 0.207081,-0.155928 0.30092,-0.256469 0.09313,-0.100895 0.178153,-0.214136 0.246944,-0.334081 0.06773,-0.119592 0.121356,-0.244122 0.151695,-0.368653 0.01129,-0.04621 0.0194,-0.09313 0.02469,-0.138289 0.0074,-0.0762 0.0056,-0.150989 -0.0071,-0.223662 -0.01164,-0.06209 -0.03986,-0.118533 -0.07832,-0.169333 -0.0388,-0.05186 -0.08855,-0.09913 -0.142875,-0.143228 -0.05433,-0.04339 -0.112183,-0.08467 -0.169333,-0.12453 -0.05644,-0.03916 -0.111478,-0.07726 -0.158397,-0.115359 -0.0035,-0.0032 -0.0071,-0.0053 -0.01058,-0.0081 -0.351366,-0.251884 -0.70485,-0.524934 -1.015647,-0.831145 -0.110772,-0.105833 -0.219075,-0.220133 -0.323497,-0.345722 -0.0127,-0.01517 -0.02399,-0.03175 -0.03669,-0.04692 -0.338314,-0.407459 -0.739422,-0.902759 -0.871008,-1.421695 -0.0046,-0.01693 -0.01305,-0.03351 -0.01658,-0.0508 -0.06597,-0.307974 -0.04057,-0.644524 0.07726,-0.936624 0.0039,-0.0088 0.006,-0.01658 0.0092,-0.02363 0.03281,-0.07832 0.06033,-0.156634 0.0829,-0.237067 0.0049,-0.01658 0.0085,-0.03281 0.01199,-0.04904 0.01728,-0.06456 0.03104,-0.129469 0.04128,-0.195086 0.0046,-0.02399 0.0092,-0.04763 0.01235,-0.07161 0.0028,-0.0194 0.0049,-0.03881 0.0071,-0.05891 0.0028,-0.0194 0.0035,-0.0381 0.0049,-0.05821 0.01023,-0.121356 0.01376,-0.244475 0.0081,-0.368653 0,-0.0078 -7.14e-4,-0.01517 -0.0011,-0.02293 -0.0039,-0.08326 -0.01023,-0.166864 -0.02011,-0.249061 0,-0.0018 0,-0.0039 0,-0.006 -0.01129,-0.08855 -0.02434,-0.177447 -0.04022,-0.265642 -0.03245,-0.1785 -0.07513,-0.353478 -0.122405,-0.526339 -0.05327,-0.191206 -0.106186,-0.384175 -0.160514,-0.579614 -0.05574,-0.196497 -0.11183,-0.394758 -0.171097,-0.593725 -0.05891,-0.200378 -0.12065,-0.401461 -0.185208,-0.603603 -0.06491,-0.202141 -0.133703,-0.404989 -0.206023,-0.60713 -0.01658,0.0194 -0.03175,0.03881 -0.04763,0.05856 -0.09313,0.111125 -0.185208,0.223308 -0.272697,0.335491 -0.103364,0.130881 -0.201083,0.262467 -0.293158,0.392289 -0.0067,0.0088 -0.01305,0.01799 -0.01905,0.02752 0.280458,0.395817 0.487892,0.844903 0.622653,1.319389 0.132291,0.468489 0.199319,0.955675 0.21978,1.442508 0.01129,0.273403 -0.01023,0.550333 -0.07973,0.814564 -0.06279,0.237067 -0.166863,0.455789 -0.210961,0.699558 -0.1397,0.777875 0.445911,1.466144 0.894292,2.049639 0.4826,0.628297 1.145117,1.052689 1.741311,1.559983 0.341136,0.285751 0.245886,0.722137 0.05292,1.071035 -7.15e-4,0.0014 -7.15e-4,0.0018 -0.0014,0.0025 -0.0011,0.0049 -0.0035,0.0078 -0.01093,0.01976 -0.01023,0.0187 -0.02117,0.03704 -0.03246,0.05539 -0.205317,0.33408 -0.516114,0.505883 -0.788106,0.770819 -0.0049,0.0046 -0.0081,0.01023 -0.01305,0.01446 -0.06491,0.06491 -0.125589,0.135114 -0.179917,0.208492 -0.0099,0.01376 -0.0187,0.02646 -0.02752,0.04022 -0.04551,0.06421 -0.08925,0.131586 -0.121709,0.201436 -0.01235,0.0321 -0.02858,0.06174 -0.04163,0.0949 -0.0035,0.0074 -0.0067,0.01658 -0.01023,0.0254 -0.0071,0.01729 -0.01199,0.03598 -0.0187,0.05468 -0.01023,0.03246 -0.02011,0.06668 -0.02646,0.100189 -0.0056,0.0194 -0.0092,0.04022 -0.0127,0.06033 -0.01199,0.07302 -0.0194,0.147461 -0.01588,0.222603 0.0187,0.364066 0.414161,0.600075 0.449791,0.974019 0,0.0095 -0.0021,0.02011 -0.0021,0.03069 0.0021,0.04657 0,0.09243 -0.0078,0.138641 -0.0018,0.0078 3.44e-4,0.01482 -0.0018,0.02258 -0.0035,0.01658 -0.01094,0.03105 -0.01623,0.04798 -0.0046,0.01517 -0.0056,0.0314 -0.01199,0.04621 -0.0032,0.0067 -0.0071,0.01341 -0.01129,0.02046 -0.01023,0.02364 -0.02399,0.04516 -0.03669,0.06668 -0.01164,0.02046 -0.02223,0.04057 -0.03704,0.05962 -0.0028,0.0042 -0.0053,0.0088 -0.0088,0.01305 -0.0067,0.0095 -0.01587,0.0187 -0.02399,0.02822 -0.01587,0.01729 -0.03246,0.03422 -0.04904,0.04974 -0.0021,0.0021 -0.0039,0.0053 -0.006,0.0071 -0.04692,0.04304 -0.09878,0.07973 -0.148166,0.119591 -0.03881,0.03175 -0.07373,0.0695 -0.107598,0.107598 -0.259644,0.328788 0.225425,0.568677 0.358423,0.904522 0.02328,0.06033 0.02752,0.124883 0.01517,0.188736 -0.0064,0.03069 -0.01517,0.06174 -0.02787,0.09172 -0.192617,0.472017 -0.649111,0.762 -0.850194,1.223786 -0.02469,0.0575 -0.04057,0.1143 -0.04939,0.171097 -0.0035,0.01517 -0.0078,0.0314 -0.0099,0.04657 -0.0099,0.0635 -0.0074,0.127353 -0.0011,0.190147 0.0046,0.03457 0.01376,0.06773 0.02117,0.101953 0.03986,0.174978 0.119944,0.347133 0.182033,0.508 0.02223,0.05856 0.03704,0.136172 0.04163,0.2286 0.0011,0.02011 0.0011,0.04198 0.0011,0.06385 -7.14e-4,0.04586 -0.0078,0.09878 -0.01235,0.148519 -0.0028,0.03528 -0.0021,0.06597 -0.0085,0.102659 -0.0056,0.0381 -0.01376,0.07655 -0.02117,0.115711 -0.01799,0.08149 -0.04092,0.166511 -0.07126,0.253647 -0.03986,0.1143 -0.09137,0.232833 -0.155575,0.350661 0.0011,0.0011 0.0035,0.0035 0.0056,0.0046 0.01658,-0.02328 0.03281,-0.04657 0.04868,-0.0695 0.02716,-0.03422 0.05256,-0.0695 0.07796,-0.101953 0.0254,-0.03316 0.05045,-0.06385 0.07373,-0.09313 0.02399,-0.02787 0.04763,-0.05503 0.06879,-0.07761 0.07655,-0.08114 0.161925,-0.16757 0.251883,-0.258586 0.08996,-0.09278 0.185208,-0.189795 0.281517,-0.2921 0.0067,-0.0071 0.01235,-0.01482 0.01905,-0.02117 0.0032,-0.02893 0.07197,-0.223308 0.1016,-0.358422 0.0032,-0.0127 0.006,-0.02611 0.0081,-0.03916 0.01058,-0.05785 0.01729,-0.113241 0.02152,-0.165452 0.0042,-0.05292 0.0067,-0.103012 0.0049,-0.149225 -7.14e-4,-0.09243 -0.01199,-0.17145 -0.0321,-0.23107 -0.03598,-0.107597 -0.07408,-0.212725 -0.105127,-0.315736 -0.03246,-0.103011 -0.0575,-0.2032 -0.06844,-0.301625 -0.0081,-0.06103 -0.0095,-0.121003 -0.0021,-0.179917 7.14e-4,-0.0095 0.0042,-0.0194 0.006,-0.03034 0.0039,-0.02469 0.0081,-0.0508 0.01482,-0.07514 0.0018,-0.0042 0.0035,-0.0081 0.0056,-0.01305"
             style="fill:#b9d110;fill-opacity:1;fill-rule:nonzero;stroke:none;stroke-width:0.03527778"
             id="path1322"
             inkscape:connector-curvature="0" />
          <path
             d="m 31.728909,28.988272 c -0.206022,-0.639234 -0.605014,-1.214615 -1.120422,-1.632656 -0.478366,-0.387703 -1.057275,-0.624064 -1.660172,-0.706261 -0.723547,-0.09913 -1.438981,0.0695 -2.079978,0.41663 -0.150989,0.08149 -0.301625,0.17145 -0.451202,0.272345 0.0568,-0.07585 0.104069,-0.147462 0.143227,-0.214489 0.08008,-0.135467 0.130881,-0.251531 0.166864,-0.337256 0.08961,-0.204964 0.161925,-0.42545 0.220486,-0.649111 0.05786,-0.224367 0.101953,-0.45085 0.12947,-0.666397 0.02822,-0.216253 0.04057,-0.420511 0.0388,-0.599369 -0.0035,-0.206375 -0.02081,-0.418042 -0.05292,-0.629356 -0.03068,-0.212372 -0.0769,-0.426155 -0.136869,-0.633941 -0.06103,-0.210256 -0.13582,-0.415573 -0.226131,-0.610659 -0.08996,-0.196497 -0.195439,-0.383469 -0.315383,-0.553861 -0.167569,-0.2413 -0.345017,-0.49918 -0.531989,-0.766586 -0.18803,-0.269522 -0.387703,-0.547158 -0.598664,-0.826206 -0.213783,-0.281516 -0.438855,-0.562327 -0.677333,-0.834319 -0.242006,-0.275872 -0.497417,-0.542219 -0.767997,-0.788811 -0.0078,-0.0071 -0.01658,-0.01305 -0.02646,-0.01905 -0.0092,-0.0049 -0.01905,-0.0099 -0.02963,-0.01341 -0.01129,-0.0042 -0.02258,-0.0071 -0.03351,-0.0092 -0.01199,-0.0018 -0.02434,-0.0039 -0.03528,-0.0039 -0.0095,0 -0.0187,0.0011 -0.02893,0.0021 -0.0095,0.0011 -0.0187,0.0028 -0.02752,0.0053 -0.0092,0.0025 -0.01799,0.0056 -0.02611,0.0099 -0.0088,0.0042 -0.01587,0.0092 -0.02364,0.01517 -0.147461,0.113594 -0.297039,0.236714 -0.444852,0.366183 -0.149225,0.129117 -0.29845,0.265995 -0.445206,0.408164 -0.147108,0.141817 -0.291394,0.287161 -0.433211,0.43815 -0.02399,0.02505 -0.04763,0.05045 -0.07056,0.0755 0.124884,0.131233 0.238478,0.271286 0.342548,0.417689 0,3.44e-4 0,3.44e-4 0,3.44e-4 v 0 0 c 0.0067,-0.0092 0.01305,-0.01799 0.01976,-0.02822 0.09313,-0.129823 0.190147,-0.261409 0.293511,-0.392642 0.08678,-0.111831 0.178506,-0.223661 0.271639,-0.333728 0.01587,-0.01976 0.03105,-0.03916 0.04763,-0.05856 0,-7.14e-4 7.15e-4,-7.14e-4 7.15e-4,-0.0014 0.07373,0.202142 0.141111,0.404989 0.206727,0.60713 0.06456,0.202142 0.125942,0.403225 0.185209,0.60325 0.165453,0.559506 0.348897,1.125362 0.452966,1.699684 0.01658,0.08925 0.02858,0.178153 0.03986,0.267405 0,0.0021 0,0.0042 0,0.006 0.0099,0.0822 0.01693,0.165806 0.02011,0.249061 3.43e-4,0.0078 0.0011,0.01517 0.0011,0.02293 0.0056,0.123825 0.0021,0.246592 -0.0081,0.368653 -0.0014,0.02011 -0.0021,0.03881 -0.0049,0.05821 -0.0021,0.02011 -0.0042,0.03951 -0.0071,0.05891 -0.0032,0.02399 -0.0078,0.04763 -0.01235,0.07161 -0.01023,0.06562 -0.02434,0.130528 -0.04127,0.195086 -0.0035,0.01623 -0.0071,0.03246 -0.01199,0.04904 -0.02258,0.08043 -0.04939,0.15875 -0.08184,0.236008 -0.0025,0.0081 -0.006,0.01588 -0.0088,0.02328 -0.117827,0.291747 -0.143933,0.628297 -0.07726,0.935567 0.0039,0.01799 0.01058,0.03528 0.01517,0.05327 0.131586,0.518937 0.532694,1.014237 0.871008,1.421695 0.0127,0.01517 0.0254,0.0314 0.03775,0.04586 0.100189,0.120297 0.208844,0.23495 0.322439,0.346781 0.310797,0.306211 0.66428,0.579261 1.015647,0.831144 0.0575,0.04022 0.113947,0.08326 0.170392,0.122767 0.05644,0.0388 0.115711,0.07973 0.169333,0.124177 0.05468,0.04339 0.103364,0.09031 0.14217,0.14217 0.03916,0.05115 0.06667,0.107244 0.07867,0.169686 0.0127,0.07267 0.01482,0.147109 0.0071,0.223309 -0.0053,0.04621 -0.01341,0.09349 -0.02505,0.1397 -0.02999,0.125236 -0.08361,0.249767 -0.1524,0.369359 -0.06809,0.119944 -0.152752,0.233186 -0.245533,0.333727 -0.09419,0.100895 -0.19685,0.189089 -0.301625,0.256823 -0.193675,0.124883 -0.341842,0.262114 -0.452967,0.398286 -0.0021,0.0032 -0.0042,0.0067 -0.006,0.0095 -0.01588,0.01905 -0.02963,0.03775 -0.0441,0.05715 -0.01693,0.02469 -0.03034,0.04939 -0.04657,0.07373 -0.0187,0.02893 -0.03951,0.05786 -0.05609,0.08714 -0.02046,0.0374 -0.03634,0.07408 -0.05186,0.11042 -0.0095,0.02152 -0.02187,0.04339 -0.03069,0.06491 -0.01587,0.0441 -0.02893,0.0889 -0.03916,0.132997 -0.0021,0.0092 -0.0064,0.01799 -0.0085,0.02752 -0.03387,0.15875 -0.02399,0.316089 0.05644,0.470958 0.0067,0.01341 0.01447,0.02752 0.02187,0.04057 0.01199,0.02117 0.02434,0.04092 0.0374,0.06138 0.147461,0.240947 0.327377,0.465314 0.303741,0.746831 -0.0039,0.04586 -0.01235,0.09278 -0.02787,0.142169 -0.0011,0.0042 -0.0053,0.0064 -0.0063,0.0099 -0.01517,0.0441 -0.03986,0.08043 -0.06632,0.115711 -0.05645,0.07585 -0.128764,0.137583 -0.206375,0.197555 -0.03669,0.02858 -0.07056,0.05786 -0.104423,0.08855 -0.03634,0.03245 -0.07161,0.06526 -0.09984,0.105127 -0.01587,0.02222 -0.02893,0.04621 -0.03739,0.06985 -0.0035,0.0095 -0.0053,0.01834 -0.0067,0.02716 -0.0039,0.02716 0,0.05539 0.01093,0.08149 0.01341,0.03704 0.03669,0.07232 0.06421,0.107597 0.0074,0.0085 0.01376,0.01764 0.02117,0.02646 0.07938,0.101952 0.159103,0.203905 0.235303,0.309386 0.0074,0.01023 0.01658,0.02117 0.02399,0.0314 0.03704,0.05327 0.0695,0.104069 0.09102,0.15628 0.0014,0.0039 7.14e-4,0.0088 0.0014,0.0127 0.01517,0.03881 0.02258,0.07832 0.02187,0.121003 -7.14e-4,0.0046 0.0014,0.0085 0.0014,0.01235 -7.14e-4,0.0078 -7.14e-4,0.01552 -0.0025,0.02364 -0.0092,0.06174 -0.03669,0.129469 -0.0889,0.208844 -0.0049,0.0056 -0.0095,0.01093 -0.01376,0.01799 -0.134055,0.197555 -0.26423,0.38488 -0.420511,0.566561 -0.09313,0.107597 -0.183091,0.219427 -0.255058,0.342194 -0.01093,0.01905 -0.02258,0.03634 -0.03281,0.05539 -0.0063,0.01376 -0.01164,0.02822 -0.01834,0.04233 -0.01623,0.03598 -0.0314,0.07338 -0.04304,0.111477 -0.0021,0.0049 -0.0039,0.0088 -0.0056,0.01305 -0.0067,0.02434 -0.01094,0.05045 -0.01482,0.07514 -0.0011,0.0099 -0.0039,0.0187 -0.0053,0.02858 -0.0067,0.05891 -0.0056,0.118533 0.0021,0.18027 0.01129,0.09772 0.03669,0.198613 0.06844,0.300919 0.03175,0.103011 0.0695,0.208844 0.106186,0.315736 0.01905,0.05997 0.03034,0.138642 0.0321,0.231422 7.14e-4,0.04692 -7.15e-4,0.09596 -0.006,0.148873 -0.0042,0.05292 -0.01094,0.109361 -0.02081,0.167569 -0.0028,0.01164 -0.0049,0.02469 -0.0088,0.03775 -0.02963,0.134409 -0.09737,0.329847 -0.101247,0.358422 0.268111,-0.281163 0.580319,-0.607836 0.920397,-0.794102 0.06209,-0.03387 0.116064,-0.06385 0.174978,-0.05009 0.201083,0.04586 0.370064,0.122767 0.582436,0.136878 0.134761,0.0085 0.26917,0.0053 0.403578,-0.0067 0.0642,-0.0067 0.129469,-0.01447 0.193675,-0.02469 0.877005,-0.137584 1.611489,-0.594431 1.962855,-1.451328 0.0035,-0.0088 0.0046,-0.0187 0.0035,-0.02752 -0.0021,-0.0088 -0.0046,-0.01834 -0.01164,-0.02681 -0.0049,-0.0078 -0.01305,-0.01623 -0.02222,-0.02117 -0.0085,-0.0064 -0.01905,-0.0099 -0.03175,-0.0127 -0.03422,-0.0042 -0.06738,-0.0099 -0.1016,-0.01517 -0.03316,-0.0046 -0.06668,-0.0099 -0.100189,-0.01482 -0.709436,-0.100894 -1.484136,-0.340077 -2.009775,-0.859719 -0.716492,-0.706261 -1.030817,-2.765778 0.149578,-3.200047 0.360186,-0.132292 0.821266,-0.128411 1.141236,0.09807 0.05856,0.04128 0.116064,0.08855 0.17145,0.141464 0.05539,0.05256 0.107244,0.111478 0.155575,0.174625 0.04868,0.06315 0.09243,0.131586 0.128058,0.204611 0.03669,0.07232 0.06703,0.149578 0.08855,0.230011 0.02117,0.08114 0.03281,0.165806 0.03492,0.252942 0.0021,0.08678 -0.0078,0.177447 -0.02893,0.27058 -0.0035,0.01693 -0.0088,0.03351 -0.01305,0.05115 -0.02223,0.0755 -0.05186,0.153811 -0.09243,0.232481 -7.15e-4,0.0018 -0.0021,0.0046 -0.0035,0.0067 -0.0014,0.0021 -0.0021,0.0039 -0.0032,0.0056 -7.14e-4,0.0021 -0.0014,0.0042 -0.0028,0.006 -7.15e-4,0.0021 -0.0014,0.0035 -0.0021,0.0049 -0.0049,0.0085 -0.0064,0.01834 -0.0053,0.02752 0.0011,0.0095 0.0053,0.0187 0.01129,0.02752 0.0056,0.0081 0.01411,0.01588 0.02258,0.02152 0.0092,0.006 0.02081,0.01023 0.03246,0.01164 0,0 7.14e-4,0.0011 0.0011,0.0011 h 0.0018 c 7.14e-4,0 0.0014,0 0.0021,0 h 0.0035 c 0.0695,0.0035 0.139347,0.0056 0.207433,0.0071 0.06879,7.15e-4 0.136525,0 0.203906,-0.0021 0.873831,-0.02787 1.770944,-0.282222 2.376311,-0.963789 0.315031,-0.354895 0.516819,-0.787047 0.602544,-1.251656 0.08608,-0.470605 0.05151,-0.972608 -0.106186,-1.462616"
             style="fill:#0a8137;fill-opacity:1;fill-rule:nonzero;stroke:none;stroke-width:0.03527778"
             id="path1324"
             inkscape:connector-curvature="0" />
          <path
             d="m 22.674162,36.221627 c 0.0099,-0.01164 0.03387,-0.03951 0.05045,-0.06068 0.04128,-0.06174 0.07796,-0.123473 0.111125,-0.185209 0.0441,-0.08326 0.08326,-0.170039 0.1143,-0.259291 0.0074,-0.01905 0.01341,-0.03775 0.0194,-0.05645 0.0046,-0.01199 0.0074,-0.02293 0.01094,-0.03528 0.03845,-0.129822 0.06103,-0.253647 0.06879,-0.363713 0.0014,-0.0046 0.0014,-0.01023 0.0018,-0.01552 0,-0.0187 7.15e-4,-0.03634 3.44e-4,-0.05503 -0.0014,-0.182739 -0.06773,-0.352425 -0.123472,-0.522816 -0.02893,-0.08714 -0.05186,-0.172156 -0.06279,-0.254 -0.01129,-0.08184 -0.01023,-0.160867 0.01058,-0.236714 0.02011,-0.0755 0.06138,-0.147461 0.127353,-0.2159 0.05397,-0.05468 0.103364,-0.112183 0.149577,-0.172156 0.04621,-0.05997 0.08961,-0.121708 0.130528,-0.185561 0.01058,-0.01446 0.02081,-0.02999 0.02999,-0.04551 0.03175,-0.04727 0.06279,-0.09631 0.09278,-0.143581 0.03986,-0.0635 0.07973,-0.125589 0.121355,-0.185208 0.04339,-0.06562 0.06562,-0.122767 0.07197,-0.173567 0.0067,-0.0508 -0.0021,-0.09701 -0.02152,-0.141464 -0.01834,-0.0441 -0.04763,-0.08643 -0.07973,-0.13088 -0.0321,-0.0448 -0.06844,-0.09137 -0.101248,-0.143228 -0.01623,-0.02575 -0.04022,-0.05256 -0.06562,-0.08008 -0.02469,-0.02822 -0.05186,-0.05609 -0.07585,-0.08573 -0.02328,-0.02963 -0.0441,-0.05927 -0.05644,-0.08925 -0.01164,-0.03069 -0.01517,-0.06068 -0.0049,-0.09102 0.01517,-0.04374 0.04516,-0.08184 0.08361,-0.118533 0.03775,-0.0374 0.08537,-0.07267 0.13088,-0.109009 0.04621,-0.03669 0.09243,-0.07408 0.131586,-0.115711 0.01446,-0.01517 0.02716,-0.03069 0.03916,-0.04798 0.02011,-0.02787 0.03598,-0.05715 0.04586,-0.08996 0.02999,-0.09666 0.03422,-0.18168 0.0194,-0.259997 -0.01341,-0.07726 -0.04586,-0.148872 -0.08467,-0.217664 -0.0074,-0.01164 -0.01482,-0.02293 -0.02293,-0.03528 -0.02575,-0.04022 -0.05609,-0.07726 -0.0829,-0.115711 -0.05327,-0.07055 -0.106186,-0.142169 -0.144639,-0.218369 -0.03316,-0.06668 -0.05539,-0.136172 -0.05539,-0.210961 0,-0.0039 0,-0.0056 0,-0.0088 0,-0.05821 0.0099,-0.127 0.03069,-0.201789 0.0025,-0.0081 0.0056,-0.01728 0.0088,-0.0254 l -3.44e-4,-0.0021 c 3.44e-4,-0.01482 0.01093,-0.03387 0.01658,-0.04868 0.03845,-0.104069 0.100188,-0.216958 0.192263,-0.329494 0.0448,-0.05503 0.09137,-0.10407 0.143581,-0.148167 0.06738,-0.06174 0.141817,-0.12065 0.231775,-0.178506 0.08784,-0.05539 0.173567,-0.127352 0.250472,-0.210255 0.07796,-0.0822 0.147461,-0.176389 0.2032,-0.274108 0.05609,-0.09772 0.09913,-0.200731 0.122767,-0.303037 0.02328,-0.102305 0.02752,-0.203553 0.0081,-0.298098 -0.01058,-0.05045 -0.03563,-0.09772 -0.0695,-0.140053 -0.03387,-0.04198 -0.07585,-0.08008 -0.122766,-0.117122 -0.04621,-0.03457 -0.0956,-0.06844 -0.144639,-0.101247 -0.0314,-0.02046 -0.06209,-0.04127 -0.09066,-0.06068 -0.01552,-0.01199 -0.0314,-0.02293 -0.04551,-0.03457 -0.05821,-0.0448 -0.11677,-0.08996 -0.174625,-0.134056 -0.05856,-0.04515 -0.117123,-0.09031 -0.176389,-0.135466 -0.05927,-0.04445 -0.118886,-0.08925 -0.178506,-0.134056 -0.02117,-0.01623 -0.04269,-0.03281 -0.06385,-0.04904 -0.0388,-0.02963 -0.07796,-0.05785 -0.116064,-0.08714 -0.152047,-0.114653 -0.301272,-0.262819 -0.441325,-0.422628 -0.0441,-0.05115 -0.08678,-0.101952 -0.128411,-0.153811 -0.02611,-0.03246 -0.04763,-0.06456 -0.07302,-0.09666 -0.05997,-0.07338 -0.117122,-0.149578 -0.17145,-0.2286 -0.0049,-0.0067 -0.01093,-0.01411 -0.01658,-0.02117 -0.01305,-0.0194 -0.02646,-0.03845 -0.04057,-0.0575 -0.131939,-0.182386 -0.277989,-0.362656 -0.346781,-0.58032 -0.07302,-0.228953 -0.04798,-0.471664 0.0014,-0.702028 0.01587,-0.07267 0.03175,-0.129469 0.04339,-0.157691 0.02822,-0.06738 0.0508,-0.134408 0.0695,-0.202847 0.01729,-0.06879 0.03246,-0.139347 0.04304,-0.209903 0.01905,-0.141111 0.02258,-0.283986 0.01305,-0.426861 -0.0085,-0.143581 -0.02893,-0.287867 -0.05821,-0.428978 -0.02858,-0.142169 -0.06668,-0.282927 -0.108656,-0.418394 -0.01199,-0.0441 -0.02681,-0.08855 -0.03951,-0.133703 -0.0053,0.01305 -0.01058,0.02399 -0.01588,0.03634 -0.05609,0.136525 -0.10795,0.275167 -0.153458,0.414867 -0.0448,0.139347 -0.08326,0.279047 -0.113242,0.421569 -0.02999,0.142169 -0.05186,0.285397 -0.06244,0.430036 -0.01376,0.178858 -0.01376,0.383469 0.0021,0.597958 0.01411,0.213784 0.04374,0.437445 0.08749,0.655814 0.04339,0.21837 0.101953,0.431447 0.175683,0.625475 0.07303,0.193322 0.16122,0.3683 0.265289,0.511528 -0.136172,-0.08114 -0.27693,-0.153811 -0.418747,-0.217311 -0.14358,-0.06456 -0.288925,-0.119239 -0.436386,-0.164747 -0.147814,-0.04692 -0.298097,-0.08431 -0.448733,-0.111831 -0.808214,-0.151694 -1.690511,-0.03845 -2.408767,0.383117 -0.256116,0.14993 -0.493183,0.331611 -0.701675,0.54363 -0.403578,0.412397 -0.685447,0.888295 -0.842786,1.380068 -0.158397,0.489655 -0.191558,0.992011 -0.106186,1.462264 0.08467,0.464961 0.287161,0.896408 0.602897,1.252361 0.467784,0.525991 1.133122,0.809978 1.810809,0.912283 0.185913,0.02858 0.376766,0.04621 0.565502,0.0508 0.06703,0.0032 0.135114,0.0032 0.203553,0.0032 0.06844,-0.0021 0.137583,-0.0039 0.207433,-0.0078 h 0.0018 c 7.15e-4,0 7.15e-4,0 0.0018,0 3.44e-4,0 0.0011,0 0.0018,0 7.15e-4,0 0.0014,0 0.0021,0 0.0014,0 0.0014,-7.14e-4 0.0014,-7.14e-4 0.01164,-0.0014 0.02328,-0.0056 0.0321,-0.01235 0.0088,-0.0056 0.01693,-0.01235 0.02223,-0.02187 0.0063,-0.0081 0.01023,-0.01799 0.01094,-0.02681 0.0021,-0.0099 0,-0.0187 -0.0046,-0.02752 0,-0.0018 -0.0014,-0.0032 -0.0021,-0.0049 -0.0011,-0.0011 -0.0018,-0.0028 -0.0021,-0.0056 -0.0021,-0.0018 -0.0028,-0.0032 -0.0042,-0.006 -7.14e-4,-0.0021 -0.0025,-0.0049 -0.0039,-0.0078 -0.04833,-0.09596 -0.08361,-0.1905 -0.104775,-0.282575 -0.02222,-0.09313 -0.03034,-0.183092 -0.02893,-0.270581 0.0014,-0.08749 0.01411,-0.17145 0.03493,-0.252941 0.02187,-0.08114 0.05221,-0.157692 0.08819,-0.230364 0.03669,-0.07232 0.08008,-0.141111 0.128059,-0.204259 0.04833,-0.06315 0.100894,-0.122061 0.155222,-0.173919 0.394405,-0.37853 1.035756,-0.493183 1.492956,-0.165805 0.05503,0.03916 0.10548,0.08431 0.153811,0.135466 0.297744,0.31362 0.413455,0.763411 0.413455,1.190978 0,0.42298 -0.06809,0.882297 -0.222602,1.277055 -0.04551,0.11677 -0.103012,0.230012 -0.1778,0.339373 -0.224014,0.331258 -0.561623,0.559858 -0.921809,0.712258 -0.105833,0.04445 -0.218369,0.08467 -0.334433,0.121003 -0.309034,0.09701 -0.630414,0.163689 -0.950736,0.208844 -0.03246,0.0049 -0.06667,0.01058 -0.09984,0.01552 -0.03316,0.0049 -0.06668,0.01023 -0.101953,0.01482 -0.01199,0.0021 -0.02258,0.0067 -0.03104,0.0127 -0.0095,0.0046 -0.01729,0.01341 -0.02258,0.02117 -0.0063,0.0081 -0.0095,0.01693 -0.01129,0.02681 -0.0018,0.0095 -7.15e-4,0.01764 0.0028,0.02752 0.0889,0.216958 0.196144,0.409222 0.314325,0.576792 0.378177,0.533753 0.91828,0.885119 1.547283,0.858308 0.275167,0 0.582436,-0.0088 0.86607,-0.07585 0.06985,-0.0695 0.132644,-0.142522 0.187325,-0.216606 0.0011,-7.14e-4 0.0018,-0.0011 0.0028,-0.0018 z m -4.175124,-6.40856 -0.320675,-0.06032 -0.230717,0.230011 -0.04128,-0.322439 -0.289983,-0.148872 0.294216,-0.138995 0.0515,-0.321733 0.224014,0.236714 0.321028,-0.0501 -0.155575,0.28575 z m 0.09349,-1.475671 -0.04269,-0.329847 -0.296334,-0.151695 0.300567,-0.142522 0.05292,-0.328789 0.228247,0.242006 0.329142,-0.05186 -0.159103,0.292805 0.150283,0.296333 -0.326672,-0.06068 z m 0.75565,1.121834 -0.03634,-0.274813 -0.245887,-0.126295 0.25012,-0.118886 0.04339,-0.273404 0.190853,0.200731 0.27305,-0.04269 -0.131586,0.24377 0.12453,0.246945 -0.272697,-0.05045 z m 1.258358,1.317273 -0.321733,-0.05997 -0.230717,0.230364 -0.04198,-0.324555 -0.291394,-0.14852 0.295627,-0.140758 0.05151,-0.322439 0.22472,0.23742 0.323144,-0.0501 -0.156633,0.287161 z m -0.136172,-2.542471 0.136172,0.269875 -0.297039,-0.05574 -0.215194,0.213784 -0.03881,-0.301273 -0.270228,-0.136877 0.274461,-0.130528 0.04798,-0.298803 0.208139,0.219428 0.299861,-0.04621 -0.145345,0.266347"
             style="fill:#18468b;fill-opacity:1;fill-rule:nonzero;stroke:none;stroke-width:0.03527778"
             id="path1326"
             inkscape:connector-curvature="0" />
          <path
             d="m 22.691801,25.132058 c 3.44e-4,-0.01235 3.44e-4,-0.02469 0,-0.03634 v 0.0011 c 0,0.01093 0,0.02328 0,0.03528"
             style="fill:#fff200;fill-opacity:1;fill-rule:nonzero;stroke:none;stroke-width:0.03527778"
             id="path1328"
             inkscape:connector-curvature="0" />
          <path
             d="m 24.127254,37.136733 c -0.0046,-0.09243 -0.0194,-0.170039 -0.04163,-0.2286 -0.06209,-0.160867 -0.142169,-0.333022 -0.182033,-0.508 -0.0074,-0.03422 -0.01658,-0.06738 -0.02117,-0.101953 -0.0064,-0.06279 -0.0088,-0.126647 0.0011,-0.190147 0.0021,-0.01517 0.0063,-0.0314 0.0099,-0.04657 0.0088,-0.0568 0.02469,-0.113594 0.04939,-0.171097 0.201083,-0.461786 0.657577,-0.751769 0.850194,-1.223786 0.0127,-0.02999 0.02152,-0.06103 0.02787,-0.09172 0.01235,-0.06385 0.0081,-0.128411 -0.01517,-0.188736 -0.132998,-0.335845 -0.618067,-0.575734 -0.358423,-0.904522 0.02752,-0.03563 0.06244,-0.07126 0.109009,-0.109009 0.04868,-0.03986 0.100189,-0.07691 0.147461,-0.119944 0.0021,-0.0018 0.0039,-0.0032 0.0053,-0.0053 0.01658,-0.01552 0.03316,-0.03245 0.04904,-0.04974 0.0081,-0.0095 0.01729,-0.0187 0.02399,-0.02822 0.0035,-0.0042 0.006,-0.0088 0.0088,-0.01305 0.01482,-0.01905 0.02575,-0.03986 0.03704,-0.05962 0.0127,-0.02152 0.02646,-0.04304 0.03669,-0.06668 0.0099,-0.02152 0.01587,-0.0441 0.02328,-0.06668 0.0053,-0.01693 0.0127,-0.0314 0.01623,-0.04798 0.0021,-0.0078 0,-0.01482 0.0018,-0.02258 0.0078,-0.04621 0.0099,-0.09278 0.0078,-0.138642 0,-0.01058 0.0021,-0.02117 0.0021,-0.03069 -0.03563,-0.373944 -0.431095,-0.609952 -0.449792,-0.974019 -0.0035,-0.07514 0.0039,-0.149578 0.01587,-0.222603 0.0018,-0.0085 0,-0.01623 0.0021,-0.02399 0.0025,-0.01235 0.0067,-0.02469 0.01058,-0.03634 0.0063,-0.03351 0.01623,-0.06773 0.02646,-0.100189 0.0035,-0.0088 0.0042,-0.01764 0.0078,-0.02575 0.0032,-0.0099 0.0074,-0.01905 0.01094,-0.02893 0.0035,-0.0088 0.0067,-0.01799 0.01023,-0.0254 0.0028,-0.0088 0.0064,-0.01693 0.0092,-0.02469 0.0046,-0.01093 0.02505,-0.05398 0.02999,-0.06597 7.15e-4,-0.0014 0.0021,-0.0028 0.0025,-0.0042 0.03246,-0.06985 0.0762,-0.13723 0.121708,-0.201436 0.0049,-0.0078 0.0088,-0.01658 0.01447,-0.02434 0.0035,-0.006 0.0088,-0.0099 0.01305,-0.01588 0.05433,-0.07338 0.115005,-0.143581 0.179917,-0.208492 0.0056,-0.0053 0.0088,-0.01199 0.01376,-0.01587 0.272697,-0.265642 0.583494,-0.437092 0.788105,-0.771525 0.01129,-0.01764 0.02223,-0.03634 0.03246,-0.05574 0.0085,-0.01376 0.0095,-0.01588 0.0095,-0.01588 7.14e-4,-3.44e-4 7.14e-4,-7.14e-4 7.14e-4,-0.0014 7.15e-4,-7.15e-4 7.15e-4,-0.0011 0.0014,-0.0025 0.192969,-0.348897 0.288219,-0.785283 -0.05292,-1.071034 -0.596194,-0.507295 -1.258711,-0.931686 -1.741311,-1.559983 -0.448381,-0.583495 -1.033992,-1.271764 -0.894292,-2.049639 0.0441,-0.243769 0.148167,-0.462492 0.210961,-0.699558 0.0695,-0.264231 0.09102,-0.541161 0.07973,-0.814564 -0.02063,-0.486805 -0.08766,-0.973992 -0.219952,-1.44248 -0.134761,-0.474487 -0.342195,-0.923573 -0.622653,-1.319389 v 0 -7.15e-4 7.15e-4 c -0.08502,0.119944 -0.164747,0.239183 -0.238478,0.354541 -0.06209,0.09737 -0.205317,0.329495 -0.219075,0.353131 -0.03281,0.05927 -0.06562,0.119239 -0.09913,0.180269 -0.0014,0.0028 -0.0035,0.0071 -0.0056,0.01093 -0.03175,0.0568 -0.06279,0.1143 -0.09384,0.17145 -0.03316,0.06068 -0.06562,0.121356 -0.09913,0.184503 -0.03316,0.06174 -0.06597,0.123825 -0.09878,0.185561 0.03739,0.106186 0.07161,0.211314 0.106186,0.316442 0.03387,0.105128 0.06632,0.20955 0.09913,0.313972 0.0314,0.104422 0.06315,0.207434 0.09525,0.309739 0.01729,0.05821 0.03422,0.115711 0.05221,0.173567 0.05186,-0.125236 0.107244,-0.248709 0.164394,-0.370064 0.0021,0.0028 0.0021,0.0067 0.0032,0.0099 0.0028,-0.0056 0.0049,-0.0099 0.0078,-0.01482 0.0049,-0.01023 0.0095,-0.02046 0.01376,-0.03034 0.0078,-0.01482 0.01658,-0.02999 0.02469,-0.04551 0.02222,-0.04198 0.04269,-0.08043 0.06456,-0.119239 0.0053,-0.0074 0.0078,-0.01517 0.01235,-0.02293 0.0067,-0.01093 0.0127,-0.02046 0.0194,-0.03104 0.02222,-0.0381 0.04233,-0.06985 0.06103,-0.09878 0.0039,-0.0071 0.0081,-0.01411 0.01235,-0.02081 0.0028,-0.0049 0.006,-0.0095 0.0095,-0.01411 0.01728,-0.02716 0.02822,-0.04445 0.03775,-0.0568 0.0028,-0.0042 0.0049,-0.0074 0.0071,-0.01164 7.14e-4,0 0.0021,-0.0021 0.0021,-0.0021 0.06209,0.144639 0.115005,0.294217 0.158397,0.44697 0.109361,0.385586 0.164747,0.786694 0.180622,1.186038 0.0088,0.225073 -0.0085,0.452262 -0.06703,0.670278 -0.01305,0.04868 -0.02822,0.09772 -0.04515,0.144992 3.44e-4,0.01164 3.44e-4,0.02399 0,0.03634 0,-0.01199 0,-0.02434 0,-0.03528 -0.04763,0.141464 -0.103364,0.279047 -0.129823,0.428272 -0.02258,0.118886 -0.02399,0.235656 -0.0081,0.34925 0.06668,0.498122 0.445205,0.947208 0.74683,1.337733 0.399697,0.51682 0.948972,0.868892 1.444272,1.284817 0.303036,0.254 0.189442,0.646995 0.006,0.94227 -0.170744,0.27552 -0.428977,0.41522 -0.656519,0.633237 -0.04551,0.04516 -0.0889,0.09207 -0.129469,0.142522 -0.04128,0.05115 -0.07938,0.10548 -0.112184,0.16263 -0.03387,0.0568 -0.06315,0.116417 -0.08714,0.177448 -0.02258,0.06174 -0.04057,0.124177 -0.0508,0.188383 -0.0011,0.0064 -0.0018,0.01341 -0.0021,0.0194 -0.0021,0.0127 -0.0042,0.0254 -0.0056,0.03845 -7.14e-4,0.01129 -7.14e-4,0.02258 -0.0014,0.03387 -0.0011,0.02646 -0.0018,0.05186 -3.44e-4,0.07937 0.01093,0.201084 0.162983,0.355953 0.269875,0.528814 0.05221,0.08396 0.09243,0.172156 0.101247,0.272345 0.01517,0.174272 -0.04798,0.319264 -0.176036,0.434622 -0.0035,0.0035 -0.0067,0.0063 -0.0099,0.0092 h -7.14e-4 v 0 c -0.02681,0.02258 -0.05503,0.0441 -0.08326,0.06668 -0.01517,0.01129 -0.03104,0.02363 -0.04657,0.03669 -0.01129,0.0099 -0.02328,0.01976 -0.03422,0.02963 0,3.44e-4 0,3.44e-4 0,3.44e-4 -0.01093,0.0099 -0.02046,0.02011 -0.03104,0.03034 -0.01341,0.01411 -0.02328,0.03104 -0.03528,0.04727 -0.0085,0.01093 -0.01764,0.02011 -0.02399,0.0314 -0.01517,0.02822 -0.02469,0.05997 -0.02328,0.09349 0.006,0.129117 0.138289,0.267053 0.245886,0.398992 0.05327,0.06526 0.100542,0.128763 0.124884,0.188736 0.07373,0.18415 -0.08678,0.357364 -0.1778,0.504825 -0.08149,0.131233 -0.161925,0.262466 -0.253648,0.386997 -0.02752,0.03598 -0.05715,0.06985 -0.08678,0.104069 -0.0021,0.0025 -0.0042,0.0049 -0.0063,0.0064 -7.14e-4,0.0014 -0.0018,0.0025 -0.0025,0.0035 -0.01729,0.01834 -0.03316,0.03704 -0.05009,0.0568 -0.0092,0.01199 -0.01976,0.02399 -0.02963,0.03634 -0.0067,0.0092 -0.01341,0.0187 -0.02046,0.02787 -0.0014,0.0025 -0.0035,0.0053 -0.006,0.0085 -0.02152,0.03069 -0.04057,0.0642 -0.05574,0.09984 -0.124178,0.300919 0.06103,0.603602 0.125236,0.893586 0.0035,0.01129 0.0056,0.02399 0.0078,0.03598 0.0053,0.0321 0.0032,0.06456 0.0049,0.09737 0.0011,0.0254 0.0049,0.04974 0.0039,0.07549 -0.0021,0.04022 -0.0095,0.07937 -0.01658,0.119239 -0.0042,0.02152 -0.0042,0.04198 -0.0095,0.06315 0,0.0025 -0.0021,0.0056 -0.0028,0.0081 -0.0092,0.03528 -0.02364,0.06914 -0.03598,0.103012 -0.0095,0.02611 -0.01658,0.05256 -0.02822,0.07726 -0.02681,0.05785 -0.05715,0.113947 -0.09243,0.165805 -0.18027,0.269523 -0.460022,0.410634 -0.766233,0.482953 -0.07761,0.07796 -0.164395,0.151695 -0.261762,0.220486 0.09031,0.09455 0.186267,0.183798 0.283987,0.270228 0.09772,0.08326 0.197908,0.162983 0.293863,0.238478 0.09737,0.07408 0.191206,0.14358 0.276578,0.208139 0.08608,0.06385 0.164395,0.122766 0.23107,0.174625 0.04868,0.04057 0.103011,0.09666 0.158044,0.158044 0.05468,0.06209 0.111478,0.130175 0.167217,0.19685 0.04939,0.05891 0.09701,0.114653 0.144639,0.164747 0.0056,0.0071 0.01305,0.01411 0.01976,0.02152 0.02152,0.02258 0.04198,0.04198 0.0628,0.06138 0.0635,-0.118181 0.116416,-0.236008 0.15628,-0.350661 0.0254,-0.07338 0.0448,-0.144992 0.06138,-0.214489 0.01235,-0.05256 0.02293,-0.105128 0.03034,-0.15487 0.0056,-0.03034 0.0049,-0.05644 0.0078,-0.08537 0.0046,-0.04974 0.01164,-0.102658 0.01235,-0.148519 0,-0.02187 0,-0.04375 -0.0011,-0.06385"
             style="fill:#fff200;fill-opacity:1;fill-rule:nonzero;stroke:none;stroke-width:0.03527778"
             id="path1330"
             inkscape:connector-curvature="0" />
          <path
             d="m 23.250249,35.957044 c 0.03528,-0.05186 0.06562,-0.10795 0.09243,-0.165805 0.01164,-0.02469 0.0187,-0.05115 0.02822,-0.07726 0.01235,-0.03387 0.02681,-0.06773 0.03598,-0.103011 0.006,-0.02364 0.0067,-0.04692 0.01235,-0.07126 0.0071,-0.03986 0.01446,-0.07902 0.01658,-0.119239 0.0011,-0.02575 -0.0028,-0.05045 -0.0039,-0.07549 -0.0018,-0.03281 3.44e-4,-0.06526 -0.0049,-0.09737 -0.0021,-0.01199 -0.0042,-0.02469 -0.0078,-0.03598 -0.06421,-0.289984 -0.249414,-0.592667 -0.125236,-0.893586 0.01235,-0.02928 0.02681,-0.0568 0.0448,-0.08326 0.0025,-0.0053 0.0067,-0.01129 0.01093,-0.01658 0.0025,-0.0032 0.0046,-0.006 0.006,-0.0085 0.0028,-0.0049 0.0071,-0.0099 0.01058,-0.01446 0.0032,-0.0042 0.0067,-0.0088 0.0099,-0.01341 0.0099,-0.01235 0.02046,-0.02434 0.02963,-0.03634 0.01693,-0.01976 0.03281,-0.03845 0.05009,-0.0568 7.14e-4,-0.0011 0.0018,-0.0021 0.0025,-0.0035 0.03175,-0.03669 0.06456,-0.07232 0.09313,-0.11042 0.09172,-0.12453 0.172156,-0.255764 0.253647,-0.386997 0.09102,-0.147461 0.251531,-0.320675 0.1778,-0.504825 -0.02434,-0.05997 -0.07161,-0.123472 -0.124883,-0.188736 -0.107597,-0.131939 -0.239889,-0.269875 -0.245886,-0.398992 -0.0014,-0.03351 0.0081,-0.06526 0.02328,-0.09349 0.0064,-0.01129 0.01552,-0.02046 0.02399,-0.0314 0.01129,-0.01623 0.02187,-0.03316 0.03528,-0.04727 0,0 0,0 0,0 0.0092,-0.0095 0.01834,-0.01834 0.02681,-0.02752 0.0021,-0.0014 0.0035,-0.0018 0.0042,-0.0032 0.01094,-0.0099 0.02293,-0.01976 0.03422,-0.02963 0.01552,-0.01305 0.0314,-0.0254 0.04657,-0.03669 0.02822,-0.02258 0.05645,-0.0441 0.08326,-0.06668 v 0 c 0.0035,-0.0028 0.0071,-0.0056 0.01058,-0.0092 0.128059,-0.115359 0.191206,-0.26035 0.176036,-0.434623 -0.0088,-0.100189 -0.04904,-0.188383 -0.101247,-0.272344 -0.106891,-0.172861 -0.258939,-0.327731 -0.269875,-0.528814 -0.0014,-0.02752 -7.14e-4,-0.05292 3.44e-4,-0.07938 0,-0.0025 -3.44e-4,-0.0049 0,-0.0063 0,-0.0092 7.15e-4,-0.01905 0.0014,-0.02858 0.0014,-0.01199 0.0035,-0.02469 0.0056,-0.03739 3.44e-4,-0.006 0.0011,-0.01305 0.0021,-0.0194 0.01023,-0.06421 0.02822,-0.126648 0.0508,-0.188384 0.02399,-0.06103 0.05327,-0.12065 0.08678,-0.177447 0.03316,-0.05715 0.07126,-0.111478 0.112536,-0.162631 0.04057,-0.05045 0.08396,-0.09737 0.12947,-0.142522 0.227541,-0.218016 0.485775,-0.357716 0.656519,-0.633236 0.183445,-0.295275 0.297039,-0.68827 -0.006,-0.94227 -0.4953,-0.415925 -1.044575,-0.767998 -1.444272,-1.284817 -0.301625,-0.390525 -0.680156,-0.839611 -0.746831,-1.337733 -0.01588,-0.113595 -0.01447,-0.230364 0.0081,-0.34925 0.02646,-0.149225 0.0822,-0.286808 0.129822,-0.428272 0,-0.0011 0,-0.0035 0,-0.0046 0,3.44e-4 0,0.0025 0,0.0035 0.01693,-0.04727 0.0321,-0.09631 0.04516,-0.144992 0.05856,-0.218017 0.07585,-0.445205 0.06703,-0.670278 -0.01588,-0.399344 -0.07126,-0.800452 -0.180623,-1.186039 -0.04339,-0.152752 -0.09631,-0.30233 -0.158397,-0.446969 0,0 -0.0014,0.0021 -0.0021,0.0021 -0.0021,0.0042 -0.0042,0.0074 -0.0071,0.01164 -0.01305,0.01905 -0.0254,0.03775 -0.03775,0.0568 -0.0035,0.0046 -0.0067,0.0092 -0.0095,0.01411 -0.0042,0.0067 -0.0085,0.01376 -0.01235,0.02081 -0.02117,0.0321 -0.04163,0.06526 -0.06103,0.09878 -0.0067,0.01058 -0.0127,0.02011 -0.0194,0.03104 -0.0046,0.0078 -0.0071,0.01552 -0.01235,0.02293 -0.02187,0.03916 -0.04374,0.07937 -0.06456,0.119239 -0.0081,0.01552 -0.01693,0.03069 -0.02469,0.04551 -0.0042,0.0099 -0.0088,0.02011 -0.01376,0.03034 -0.02822,0.05856 -0.05574,0.117475 -0.08255,0.176742 -0.0321,0.07161 -0.0628,0.142875 -0.09278,0.214136 0.0127,0.04516 0.02752,0.08961 0.03951,0.133703 0.04198,0.135466 0.08008,0.276225 0.108656,0.418394 0.02928,0.141111 0.04974,0.285397 0.05821,0.428978 0.0095,0.142875 0.006,0.28575 -0.01305,0.426861 -0.01058,0.07056 -0.02575,0.141111 -0.04304,0.209903 -0.0187,0.06844 -0.04127,0.135466 -0.0695,0.202846 -0.01164,0.02822 -0.02752,0.08502 -0.04339,0.157692 -0.04939,0.230364 -0.07444,0.473075 -0.0014,0.702028 0.06879,0.217664 0.214842,0.397933 0.346781,0.580319 0.01411,0.01905 0.02752,0.0381 0.04057,0.0575 0.0056,0.0071 0.01164,0.01446 0.01658,0.02117 0.05292,0.07514 0.112889,0.152753 0.17145,0.2286 0.0254,0.0321 0.04692,0.0642 0.07302,0.09666 0.04163,0.05186 0.08431,0.102658 0.128411,0.153811 0.140053,0.159808 0.289278,0.307975 0.441325,0.422628 0.0381,0.02928 0.07726,0.0575 0.116064,0.08714 0.02117,0.01623 0.04269,0.03281 0.06385,0.04904 0.05962,0.0448 0.119239,0.08961 0.178506,0.134055 0.05927,0.04516 0.117827,0.09031 0.176388,0.135467 0.05786,0.0441 0.116417,0.08925 0.174625,0.134056 0.01411,0.01164 0.02999,0.02258 0.04551,0.03457 0.02858,0.0194 0.05927,0.04022 0.09066,0.06068 0.04904,0.03281 0.09843,0.06668 0.144639,0.101247 0.04692,0.03704 0.0889,0.07514 0.122766,0.117122 0.03387,0.04233 0.05891,0.08961 0.0695,0.140053 0.0194,0.09454 0.01517,0.195793 -0.0081,0.298098 -0.02364,0.102306 -0.06668,0.205317 -0.122767,0.303036 -0.05574,0.09772 -0.125236,0.191911 -0.2032,0.274109 -0.07691,0.0829 -0.16263,0.154869 -0.250472,0.210255 -0.08996,0.05786 -0.164394,0.11677 -0.231775,0.178506 -0.05397,0.04904 -0.103011,0.09807 -0.143581,0.148166 -0.09207,0.112536 -0.153811,0.225425 -0.192263,0.329495 -0.006,0.01729 -0.01164,0.03387 -0.01623,0.0508 -0.0032,0.0081 -0.0064,0.01729 -0.0088,0.0254 -0.02082,0.07479 -0.03069,0.14358 -0.03069,0.201789 0,0.0032 0,0.0049 0,0.0088 0,0.07479 0.02222,0.144287 0.05539,0.210962 0.03845,0.0762 0.09137,0.147813 0.144639,0.218369 0.02893,0.03845 0.05856,0.07726 0.0829,0.115711 0.0081,0.01235 0.01552,0.02364 0.02293,0.03528 0.0388,0.06879 0.07126,0.140405 0.08467,0.217664 0.01482,0.07832 0.01058,0.163336 -0.0194,0.259997 -0.0099,0.03281 -0.02575,0.06209 -0.04586,0.08996 -0.01199,0.01729 -0.02469,0.03281 -0.03916,0.04798 -0.03916,0.04163 -0.08537,0.07902 -0.131586,0.115711 -0.04551,0.03634 -0.09313,0.07161 -0.130881,0.109008 -0.03845,0.03669 -0.06844,0.07479 -0.08361,0.118534 -0.01023,0.03034 -0.0067,0.06033 0.0049,0.09102 0.01235,0.02999 0.03316,0.05962 0.05644,0.08925 0.02399,0.02963 0.05115,0.0575 0.07585,0.08572 0.0254,0.02752 0.04939,0.05433 0.06562,0.08008 0.03281,0.05186 0.06914,0.09842 0.101247,0.143228 0.0321,0.04445 0.06138,0.08678 0.07973,0.13088 0.0194,0.04445 0.02822,0.09066 0.02152,0.141464 -0.0063,0.0508 -0.02858,0.10795 -0.07197,0.173567 -0.04163,0.05962 -0.08149,0.121708 -0.121356,0.185208 -0.02999,0.04727 -0.06103,0.09631 -0.09278,0.143581 -0.0092,0.01552 -0.0194,0.03104 -0.02999,0.04551 -0.04092,0.06385 -0.08431,0.125589 -0.130528,0.185561 -0.04621,0.05997 -0.0956,0.117475 -0.149578,0.172156 -0.06597,0.06844 -0.107244,0.140405 -0.127353,0.2159 -0.02081,0.07585 -0.02187,0.154869 -0.01058,0.236713 0.01093,0.08185 0.03387,0.166864 0.06279,0.254 0.05574,0.170392 0.122061,0.340078 0.123473,0.522817 3.44e-4,0.0187 -3.44e-4,0.03634 -3.44e-4,0.05503 -3.44e-4,0.0053 -3.44e-4,0.01094 -0.0018,0.01552 -0.006,0.123473 -0.03246,0.246239 -0.06879,0.363714 -0.0035,0.01235 -0.0063,0.02328 -0.01093,0.03528 -0.006,0.0187 -0.01199,0.03739 -0.0194,0.05644 -0.03104,0.08925 -0.0702,0.176037 -0.1143,0.259292 -0.0042,0.0078 -0.0074,0.01447 -0.01058,0.02258 -0.02611,0.04904 -0.05539,0.0949 -0.08467,0.142522 -0.0021,0.0035 -0.01058,0.0127 -0.01588,0.02011 -0.01658,0.02117 -0.04057,0.04904 -0.05045,0.06068 -3.44e-4,7.15e-4 -0.0018,0.0032 -0.0025,0.0032 -0.0194,0.02187 -0.03669,0.04586 -0.05503,0.0695 -0.04198,0.05115 -0.08608,0.09913 -0.132644,0.145697 0.306211,-0.07232 0.585963,-0.213431 0.766233,-0.482953 z M 22.691801,25.080552 c 0,-0.0021 0,-0.0035 0,-0.0056 0,-0.0074 -7.14e-4,-0.01588 -7.14e-4,-0.02293 -0.0011,-0.01129 -0.0028,-0.02399 -0.0011,-0.03528 0.0011,0.02117 0.0018,0.04233 0.0018,0.06385 z m -0.01199,-0.202494 c 0,0.0028 7.14e-4,0.0053 7.14e-4,0.0081 0,-0.0021 -0.0014,-0.0042 -0.0014,-0.0071 0,0 7.14e-4,-7.15e-4 7.14e-4,-0.0011"
             style="fill:#00accf;fill-opacity:1;fill-rule:nonzero;stroke:none;stroke-width:0.03527778"
             id="path1332"
             inkscape:connector-curvature="0" />
          <path
             d="m 18.186124,29.287428 -0.224014,-0.236714 -0.05151,0.321733 -0.294216,0.138995 0.289983,0.148872 0.04128,0.322439 0.230717,-0.230011 0.320675,0.06033 -0.147462,-0.289984 0.155575,-0.28575 -0.321027,0.0501"
             style="fill:#ffffff;fill-opacity:1;fill-rule:nonzero;stroke:none;stroke-width:0.03527778"
             id="path1334"
             inkscape:connector-curvature="0" />
          <path
             d="m 20.29256,30.248042 -0.22472,-0.23742 -0.05151,0.322439 -0.295627,0.140758 0.291394,0.14852 0.04198,0.324555 0.230717,-0.230364 0.321733,0.05997 -0.147461,-0.291395 0.156633,-0.287161 -0.323144,0.0501"
             style="fill:#ffffff;fill-opacity:1;fill-rule:nonzero;stroke:none;stroke-width:0.03527778"
             id="path1336"
             inkscape:connector-curvature="0" />
          <path
             d="m 20.107704,27.794471 -0.04798,0.298803 -0.274461,0.130528 0.270228,0.136877 0.03881,0.301273 0.215195,-0.213784 0.297038,0.05574 -0.136172,-0.269875 0.145345,-0.266347 -0.299861,0.04621 -0.208139,-0.219428"
             style="fill:#ffffff;fill-opacity:1;fill-rule:nonzero;stroke:none;stroke-width:0.03527778"
             id="path1338"
             inkscape:connector-curvature="0" />
          <path
             d="m 19.691779,29.067647 0.131586,-0.24377 -0.27305,0.04269 -0.190852,-0.200731 -0.04339,0.273404 -0.25012,0.118886 0.245886,0.126295 0.03634,0.274813 0.195439,-0.195086 0.272697,0.05045 -0.12453,-0.246945"
             style="fill:#ffffff;fill-opacity:1;fill-rule:nonzero;stroke:none;stroke-width:0.03527778"
             id="path1340"
             inkscape:connector-curvature="0" />
          <path
             d="m 19.005274,27.867496 0.159102,-0.292805 -0.329141,0.05186 -0.228247,-0.242006 -0.05292,0.328789 -0.300567,0.142522 0.296333,0.151695 0.04269,0.329847 0.236361,-0.234244 0.326673,0.06068 -0.150284,-0.296333"
             style="fill:#ffffff;fill-opacity:1;fill-rule:nonzero;stroke:none;stroke-width:0.03527778"
             id="path1342"
             inkscape:connector-curvature="0" />
        </g>
      </g>
    </g>
  </g>
</svg>
