<?xml version="1.0" encoding="UTF-8" standalone="no"?>
<!-- Created with Inkscape (http://www.inkscape.org/) -->

<svg
   xmlns:dc="http://purl.org/dc/elements/1.1/"
   xmlns:cc="http://creativecommons.org/ns#"
   xmlns:rdf="http://www.w3.org/1999/02/22-rdf-syntax-ns#"
   xmlns:svg="http://www.w3.org/2000/svg"
   xmlns="http://www.w3.org/2000/svg"
   xmlns:xlink="http://www.w3.org/1999/xlink"
   xmlns:sodipodi="http://sodipodi.sourceforge.net/DTD/sodipodi-0.dtd"
   xmlns:inkscape="http://www.inkscape.org/namespaces/inkscape"
   width="291.30862mm"
   height="291.33795mm"
   viewBox="0 0 1032.1959 1032.2999"
   id="svg2"
   version="1.1"
   inkscape:version="0.92.3 (2405546, 2018-03-11)"
   sodipodi:docname="scouts_white.svg"
   inkscape:export-filename="/home/guionardo/dev/projects/escoteirando_fastapi/frontend/src/assets/scouts_white.png"
   inkscape:export-xdpi="41.849998"
   inkscape:export-ydpi="41.849998">
  <defs
     id="defs4">
    <linearGradient
       inkscape:collect="always"
       id="linearGradient848">
      <stop
         style="stop-color:#ffffff;stop-opacity:1;"
         offset="0"
         id="stop844" />
      <stop
         id="stop871"
         offset="0.44794485"
         style="stop-color:#ffffff;stop-opacity:0.7413249" />
      <stop
         id="stop869"
         offset="0.50901622"
         style="stop-color:#ffffff;stop-opacity:0.46372241" />
      <stop
         style="stop-color:#ffffff;stop-opacity:0.73501575"
         offset="0.5757122"
         id="stop873" />
      <stop
         style="stop-color:#ffffff;stop-opacity:1"
         offset="1"
         id="stop846" />
    </linearGradient>
    <linearGradient
       inkscape:collect="always"
       xlink:href="#linearGradient848"
       id="linearGradient864"
       gradientUnits="userSpaceOnUse"
       gradientTransform="translate(0.05270472,0.0238751)"
       x1="-1248.4597"
       y1="1149.6382"
       x2="-258.45602"
       y2="1151.1997" />
  </defs>
  <sodipodi:namedview
     id="base"
     pagecolor="#ffffff"
     bordercolor="#666666"
     borderopacity="1.0"
     inkscape:pageopacity="0.0"
     inkscape:pageshadow="2"
     inkscape:zoom="0.60037659"
     inkscape:cx="551.09987"
     inkscape:cy="551.99518"
     inkscape:document-units="px"
     inkscape:current-layer="layer1"
     showgrid="false"
     inkscape:window-width="1280"
     inkscape:window-height="956"
     inkscape:window-x="0"
     inkscape:window-y="0"
     inkscape:window-maximized="1"
     fit-margin-top="0"
     fit-margin-left="0"
     fit-margin-right="0"
     fit-margin-bottom="0" />
  <metadata
     id="metadata7">
    <rdf:RDF>
      <cc:Work
         rdf:about="">
        <dc:format>image/svg+xml</dc:format>
        <dc:type
           rdf:resource="http://purl.org/dc/dcmitype/StillImage" />
        <dc:title></dc:title>
      </cc:Work>
    </rdf:RDF>
  </metadata>
  <g
     inkscape:label="Camada 1"
     inkscape:groupmode="layer"
     id="layer1"
     transform="translate(1253.1705,-633.49103)">
    <path
       inkscape:connector-curvature="0"
       id="path4149"
       d="m -763.36831,1660.5341 c -72.07251,-4.2697 -139.64922,-21.957 -200.92185,-52.5888 -102.38504,-53.4609 -182.97434,-135.9563 -230.79584,-230.2975 -29.3358,-58.69 -46.1157,-119.1597 -52.2084,-188.1427 -1.7623,-19.9537 -1.4802,-65.0181 0.5383,-86 10.3054,-107.11985 50.2981,-202.71526 119.0091,-284.47013 13.7903,-16.40825 43.2585,-45.92177 59.6041,-59.69589 60.8487,-51.27601 131.56101,-87.55945 206.99999,-106.21452 43.20993,-10.68524 78.59479,-14.95027 124,-14.94603 57.58017,0.005 108.51418,8.14451 161.5,25.80734 61.93899,20.64737 117.51376,51.84497 169,94.87029 15.42252,12.88808 47.26085,44.72641 60.14893,60.14893 58.39913,69.88329 96.94535,151.42366 112.74507,238.50001 9.1879,50.6367 10.5744,105.3046 4.0073,158 -7.9614,63.8841 -30.09218,129.7514 -63.16612,188 -33.54024,59.0698 -82.53782,114.1825 -139.8115,157.2605 -67.25669,50.5866 -154.54623,85.7348 -238.92368,96.2054 -28.58656,3.5474 -66.88045,5.0349 -91.7254,3.5631 z"
       style="fill:#663366;fill-opacity:1;stroke:#fbfbfb;stroke-width:9.375;stroke-miterlimit:4;stroke-dasharray:none;stroke-opacity:1;paint-order:markers fill stroke"
       sodipodi:nodetypes="sccsssssssssssssss" />
    <path
       style="fill:url(#linearGradient864);fill-opacity:1;stroke:none;stroke-width:1"
       d="m -737.58682,704.5293 c -0.88346,0 -24.50278,19.77062 -36.50391,30.55664 -14.87649,13.37026 -42.6278,41.26529 -53.89709,54.17542 -36.96296,42.34475 -59.44615,80.79102 -68.71949,117.50977 -2.13081,8.4372 -2.6839,13.40147 -3.11097,27.97667 -0.8015,27.35481 2.37375,50.10906 11.74256,84.148 8.47085,30.7764 25.20143,78.1402 35.72205,101.1328 26.67559,58.2989 41.99087,122.1957 44.88281,187.251 l 0.6775,15.249 h -17.53785 -17.53785 l -0.6848,-12.2497 c -5.99393,-107.1771 -43.58782,-193.8546 -105.37354,-242.9535 -21.10646,-16.7725 -35.82465,-24.0199 -63.6621,-31.3477 -63.1395,-16.6204 -118.8303,-4.3747 -160.5633,35.3064 -18.6021,17.6876 -26.633,29.9013 -33.5578,51.0407 -5.2063,15.8934 -6.7681,26.2742 -6.7291,44.7033 0.039,18.5148 2.143,30.6759 8.0365,46.4576 11.0022,29.4618 31.9056,57.6011 56.3123,75.802 33.8315,25.2291 70.8091,40.8917 101.2939,42.9034 l 9.7943,0.6445 -0.7947,-6.903 c -1.2174,-10.5905 -0.6604,-26.1958 1.1884,-33.3307 3.5898,-13.8536 12.1092,-25.4178 23.0182,-31.2433 2.75,-1.4685 8.6724,-3.605 13.1597,-4.7479 27.63619,-7.0386 55.55967,-3.3466 74.79495,9.8876 10.10813,6.9546 20.34851,19.7714 26.04859,32.6056 2.09785,4.7234 7.49817,21.3146 7.49817,23.0365 0,0.2134 -4.03365,0.3882 -8.96301,0.3882 -20.75853,0 -32.03797,10.7477 -32.03797,30.5274 0,12.7435 4.80005,21.8516 14.2456,27.0318 4.69333,2.5739 6.49795,2.9382 16.89515,3.4113 l 11.64001,0.5292 -1.88049,7.3883 c -4.08488,16.0536 -11.65012,26.413 -23.17749,31.7376 -5.87566,2.714 -6.94677,2.872 -19.22241,2.8125 -11.93827,-0.058 -13.8166,-0.334 -22.99988,-3.3709 -5.5,-1.8188 -12.57463,-4.6032 -15.72143,-6.1872 -3.14683,-1.5841 -6.13169,-2.8802 -6.63209,-2.8802 -1.32793,0 -3.14758,8.0848 -3.14758,13.9856 0,18.0453 12.59599,47.6015 26.00098,61.0126 10.53882,10.5437 21.64714,14.97 37.62085,14.9908 10.78274,0.014 25.65925,-3.3823 33.49732,-7.6483 11.6864,-6.3605 24.77841,-25.0943 31.3092,-44.8004 5.16244,-15.5772 9.73769,-37.5021 11.07055,-53.0402 0.33026,-3.85 0.84286,-8.6876 1.13892,-10.7501 l 0.53833,-3.75 h 17.53967 17.53968 l -0.54749,28.7512 c -0.67716,35.5734 -2.72928,52.0768 -9.85107,79.2499 -8.02444,30.617 -22.92466,59.5289 -39.54346,76.7303 -4.6204,4.7823 -6.02791,6.8332 -5.09766,7.4232 2.50673,1.5895 19.43625,6.8405 29.78578,9.2394 38.50707,8.9256 82.61322,11.7991 130.49926,8.4998 22.93505,-1.5801 45.87343,-4.9828 64.00086,-9.494 7.19389,-1.7904 23.4819,-7.1019 25.28504,-8.2452 0.93024,-0.59 -0.47909,-2.6409 -5.0995,-7.4232 -16.6188,-17.2014 -31.51901,-46.1133 -39.54346,-76.7303 -7.12179,-27.1731 -9.17206,-43.6765 -9.84923,-79.2499 l -0.54749,-28.7512 h 17.56531 17.56531 l 0.48889,4.2499 c 4.83672,42.1443 9.46453,60.9525 19.9768,81.167 6.01745,11.5712 15.71961,22.6674 23.54004,26.9238 7.83807,4.266 22.71275,7.6624 33.49549,7.6483 15.9737,-0.021 27.08384,-4.4471 37.62269,-14.9908 13.40498,-13.4111 25.99914,-42.9673 25.99914,-61.0126 0,-5.5639 -1.79525,-13.9856 -2.98096,-13.9856 -0.40857,0 -4.516,1.7343 -9.12964,3.8525 -14.79039,6.7905 -22.67503,8.6368 -36.88843,8.6426 -11.66286,0 -12.91688,-0.1876 -18.72253,-2.8693 -11.52737,-5.3246 -19.09445,-15.684 -23.17932,-31.7376 l -1.87867,-7.3883 11.64002,-0.5292 c 10.3972,-0.4731 12.19999,-0.8374 16.89331,-3.4113 9.44556,-5.1802 14.2456,-14.2883 14.2456,-27.0318 0,-19.7874 -11.27733,-30.5274 -32.05627,-30.5274 h -8.98132 l 0.62072,-2.7502 c 1.92462,-8.5323 7.78963,-23.3206 12.03736,-30.3498 8.44727,-13.9786 22.13213,-25.6711 36.21277,-30.9393 20.74403,-7.7613 52.80999,-6.7572 71.1676,2.2284 12.00846,5.8778 20.71389,17.1973 24.51966,31.8842 1.84883,7.1349 2.40393,22.7402 1.18652,33.3307 l -0.79285,6.903 9.79248,-0.6445 c 30.43821,-2.0086 66.72758,-17.3055 100.60367,-42.4072 31.89947,-23.6371 56.55854,-62.2863 63.35448,-99.2945 2.3324,-12.7017 2.322,-36.2222 -0.0219,-48.4607 -4.164,-21.7412 -12.15497,-40.8066 -22.48538,-53.6462 -24.43303,-30.3677 -58.60388,-50.8822 -95.65615,-57.4292 -12.23388,-2.1616 -40.8031,-2.4862 -54.00146,-0.6134 -20.1417,2.8581 -48.93172,11.3245 -63.49915,18.6749 -7.84935,3.9607 -21.09873,13.2018 -32.1222,22.403 -42.88975,35.7994 -74.93201,93.6539 -90.33508,163.1103 -5.41625,24.4232 -8.38433,46.9639 -10.10925,76.7505 l -0.65186,11.25 h -17.53418 -17.53601 l 0.69397,-15.7489 c 2.86294,-64.9765 18.06884,-127.9558 45.33142,-187.7508 9.99815,-21.929 27.10373,-70.5033 35.21485,-99.9994 5.06981,-18.4365 9.58484,-40.61439 11.05224,-54.28719 2.02851,-18.9008 -1.3211,-44.06035 -8.54919,-64.21326 -17.68137,-49.298 -61.36548,-107.89984 -126.77491,-170.06836 -10.54911,-10.02641 -20.88272,-19.96278 -22.96508,-22.08069 -2.08238,-2.1179 -3.9776,-3.8507 -4.21143,-3.8507 z m -6.59729,210.78735 c 0.34143,-0.39229 9.99022,88.93195 21.44164,198.49915 11.45143,109.5674 21.0656,200.9008 21.36476,202.9633 l 0.54381,3.75 h -11.00097 -10.99914 l -0.54566,-3.75 c -0.30023,-2.0625 -4.96057,-45.038 -10.35462,-95.5005 -5.39404,-50.4625 -10.0443,-91.7505 -10.33446,-91.7505 -0.29018,0 -4.53016,41.0523 -9.42261,91.2268 -4.89247,50.1746 -9.11191,93.1501 -9.37684,95.5005 l -0.48156,4.2737 h -10.99915 -10.99914 l 0.58776,-4.7497 c 0.32343,-2.6125 9.4459,-93.626 20.27161,-202.251 10.82571,-108.6251 19.96313,-197.81954 20.30457,-198.21175 z m -335.91609,176.21165 c 0.3265,0 4.2361,10.4632 8.6883,23.2507 l 8.0951,23.2507 24.668,0.6372 c 13.5676,0.3512 24.8771,0.8465 25.1312,1.1005 0.254,0.2541 -8.3214,7.1223 -19.0558,15.2618 -10.7343,8.1395 -19.5172,15.3378 -19.5172,15.9961 0,0.6583 3.1375,11.4795 6.9708,24.0473 3.8334,12.5678 6.8112,23.0075 6.6193,23.1994 -0.192,0.192 -7.7155,-4.768 -16.7193,-11.0229 -9.0039,-6.2549 -18.2631,-12.6216 -20.5756,-14.1486 l -4.2041,-2.7777 -18.2959,12.768 c -10.0625,7.022 -19.5159,13.6125 -21.0077,14.6447 l -2.7118,1.8769 0.9174,-2.7924 c 0.5049,-1.5352 3.6583,-12.016 7.0074,-23.291 3.3491,-11.275 6.2785,-21.0581 6.5094,-21.7401 0.2372,-0.7002 -8.3799,-7.8836 -19.7937,-16.4997 l -20.2148,-15.26 24.4995,-0.8203 c 13.475,-0.4506 24.9492,-0.9568 25.4992,-1.1261 0.55,-0.1692 4.5769,-10.7125 8.9484,-23.4302 4.3714,-12.7177 8.2154,-23.1243 8.5419,-23.1243 z m 672.11055,0 c 0.34361,0 2.99691,6.8633 5.896,15.2508 2.8991,8.3875 6.60408,18.9623 8.23242,23.4998 l 2.96082,8.2507 18.15493,0.1245 c 9.9855,0.068 21.27507,0.4047 25.08722,0.7489 l 6.93057,0.6262 -19.68197,14.9854 c -10.82466,8.2422 -19.67828,15.4419 -19.67471,15.9997 0.004,0.5578 3.1628,11.3186 7.02024,23.9118 3.85753,12.5931 6.85312,23.0571 6.65587,23.2544 -0.19725,0.1972 -9.46847,-5.9441 -20.60299,-13.6469 -11.1345,-7.7029 -20.47336,-14.0039 -20.75134,-14.0039 -0.278,0 -9.35159,6.203 -20.16541,13.786 -10.81381,7.583 -20.16227,14.0972 -20.77332,14.4745 -0.61104,0.3772 2.17084,-10.1954 6.18164,-23.4943 4.01081,-13.2987 7.10877,-24.4757 6.88477,-24.8382 -0.22401,-0.3624 -9.254,-7.3574 -20.06653,-15.5438 l -19.6582,-14.8847 24.38416,-0.8203 c 13.41178,-0.4506 24.87516,-0.9699 25.47362,-1.1554 0.59848,-0.1855 4.64366,-10.7288 8.98865,-23.4302 4.345,-12.7014 8.17997,-23.095 8.52356,-23.095 z m -363.35449,290.0006 h 9.97924 l 2.05261,9.7503 c 1.12939,5.3625 4.90435,23.3622 8.38807,39.9994 3.48369,16.6372 6.57649,30.2487 6.87194,30.249 0.42063,5e-4 10.21048,-45.2868 16.2671,-75.249 l 0.95946,-4.7497 h 10.97718 c 10.87194,0 10.97018,0.021 10.448,2.2503 -6.66918,28.4641 -38.25247,155.7495 -38.64625,155.7495 -0.30214,0 -8.61444,-34.5379 -18.47167,-76.7504 -9.85724,-42.2125 -18.12114,-77.7616 -18.36365,-78.9991 -0.43359,-2.2125 -0.27474,-2.2503 9.53797,-2.2503 z"
       id="path860"
       inkscape:connector-curvature="0" />
  </g>
</svg>
