<?xml version="1.0" encoding="UTF-8" standalone="no"?>
<!-- Created with Inkscape (http://www.inkscape.org/) -->

<svg
   xmlns:dc="http://purl.org/dc/elements/1.1/"
   xmlns:cc="http://creativecommons.org/ns#"
   xmlns:rdf="http://www.w3.org/1999/02/22-rdf-syntax-ns#"
   xmlns:svg="http://www.w3.org/2000/svg"
   xmlns="http://www.w3.org/2000/svg"
   xmlns:sodipodi="http://sodipodi.sourceforge.net/DTD/sodipodi-0.dtd"
   xmlns:inkscape="http://www.inkscape.org/namespaces/inkscape"
   width="106.08105mm"
   height="127mm"
   viewBox="0 0 106.08105 127"
   version="1.1"
   id="svg8"
   inkscape:version="0.92.5 (2060ec1f9f, 2020-04-08)"
   sodipodi:docname="logo_lobinhos.svg">
  <defs
     id="defs2" />
  <sodipodi:namedview
     id="base"
     pagecolor="#ffffff"
     bordercolor="#666666"
     borderopacity="1.0"
     inkscape:pageopacity="0.0"
     inkscape:pageshadow="2"
     inkscape:zoom="0.81464594"
     inkscape:cx="310.1103"
     inkscape:cy="260.67322"
     inkscape:document-units="mm"
     inkscape:current-layer="layer1"
     showgrid="false"
     inkscape:snap-nodes="false"
     fit-margin-top="0"
     fit-margin-left="0"
     fit-margin-right="0"
     fit-margin-bottom="0"
     inkscape:window-width="1366"
     inkscape:window-height="731"
     inkscape:window-x="1280"
     inkscape:window-y="0"
     inkscape:window-maximized="1" />
  <metadata
     id="metadata5">
    <rdf:RDF>
      <cc:Work
         rdf:about="">
        <dc:format>image/svg+xml</dc:format>
        <dc:type
           rdf:resource="http://purl.org/dc/dcmitype/StillImage" />
        <dc:title></dc:title>
      </cc:Work>
    </rdf:RDF>
  </metadata>
  <g
     inkscape:label="Camada 1"
     inkscape:groupmode="layer"
     id="layer1"
     transform="translate(-44.025303,29.209671)">
    <g
       id="g1632">
      <rect
         ry="10.395077"
         y="-29.209671"
         x="44.025303"
         height="127"
         width="106.08105"
         id="rect1489"
         style="fill:#283f60;fill-opacity:1;stroke:none;stroke-width:2.28883219;stroke-linecap:round;stroke-linejoin:round;stroke-miterlimit:4;stroke-dasharray:none;stroke-dashoffset:0;stroke-opacity:1" />
      <path
         id="path1415"
         d="m 56.972944,64.789506 c 2.271782,6.183244 5.92996,10.281404 10.313322,13.297225 v -7.543252 l 5.362709,-2.973514 z m 80.560726,0 -15.67603,2.780459 5.3575,2.973514 v 7.543252 c 4.38336,-3.015821 8.04678,-7.113981 10.31853,-13.297225 z m -69.428392,6.155653 v 12.055673 c 20.551298,9.001792 40.210052,10.315539 58.515182,0 V 70.945159 c -17.36766,8.547761 -36.653048,9.430181 -58.515182,0 z"
         style="fill:#fcb82e;fill-opacity:1;stroke:none;stroke-width:2.67513084;stroke-linecap:butt;stroke-linejoin:miter;stroke-miterlimit:4;stroke-dasharray:none;stroke-opacity:1"
         inkscape:connector-curvature="0" />
      <g
         id="text1421"
         style="font-style:normal;font-variant:normal;font-weight:bold;font-stretch:semi-condensed;font-size:6.76634264px;line-height:1.25;font-family:'Nimbus Sans Narrow';-inkscape-font-specification:'Nimbus Sans Narrow, Bold Semi-Condensed';font-variant-ligatures:normal;font-variant-caps:normal;font-variant-numeric:normal;font-feature-settings:normal;text-align:center;letter-spacing:0px;word-spacing:0px;writing-mode:lr-tb;text-anchor:middle;fill:#283f60;fill-opacity:1;stroke:none;stroke-width:0.1041584"
         transform="translate(0,-1.3890225)"
         aria-label="MELHOR POSSÃVEL">
        <path
           id="path1566"
           style="font-style:normal;font-variant:normal;font-weight:bold;font-stretch:semi-condensed;font-size:6.76634264px;font-family:'Nimbus Sans Narrow';-inkscape-font-specification:'Nimbus Sans Narrow, Bold Semi-Condensed';font-variant-ligatures:normal;font-variant-caps:normal;font-variant-numeric:normal;font-feature-settings:normal;text-align:center;writing-mode:lr-tb;text-anchor:middle;fill:#283f60;fill-opacity:1;stroke-width:0.1041584"
           d="m 77.816846,79.663798 -1.138699,-0.371097 -1.876992,3.444756 0.500261,-3.893428 -1.151566,-0.37529 -1.505355,4.619128 0.733399,0.239012 1.276827,-3.917896 -0.575595,4.146425 0.778433,0.253688 1.997359,-3.683077 -1.276827,3.917895 0.7334,0.239012 z"
           inkscape:connector-curvature="0" />
        <path
           id="path1568"
           style="font-style:normal;font-variant:normal;font-weight:bold;font-stretch:semi-condensed;font-size:6.76634264px;font-family:'Nimbus Sans Narrow';-inkscape-font-specification:'Nimbus Sans Narrow, Bold Semi-Condensed';font-variant-ligatures:normal;font-variant-caps:normal;font-variant-numeric:normal;font-feature-settings:normal;text-align:center;writing-mode:lr-tb;text-anchor:middle;fill:#283f60;fill-opacity:1;stroke-width:0.1041584"
           d="m 81.19301,80.595225 -2.825002,-0.776689 -1.287905,4.684415 2.916342,0.801801 0.227805,-0.82858 -2.133431,-0.586553 0.333635,-1.213511 1.878985,0.516597 0.227805,-0.828581 -1.878985,-0.516597 0.270854,-0.985162 2.042092,0.56144 z"
           inkscape:connector-curvature="0" />
        <path
           id="path1570"
           style="font-style:normal;font-variant:normal;font-weight:bold;font-stretch:semi-condensed;font-size:6.76634264px;font-family:'Nimbus Sans Narrow';-inkscape-font-specification:'Nimbus Sans Narrow, Bold Semi-Condensed';font-variant-ligatures:normal;font-variant-caps:normal;font-variant-numeric:normal;font-feature-settings:normal;text-align:center;writing-mode:lr-tb;text-anchor:middle;fill:#283f60;fill-opacity:1;stroke-width:0.1041584"
           d="m 82.555558,80.917276 -0.81103,-0.186781 -1.090315,4.734306 2.742996,0.631715 0.197411,-0.857187 -1.931966,-0.444933 z"
           inkscape:connector-curvature="0" />
        <path
           id="path1572"
           style="font-style:normal;font-variant:normal;font-weight:bold;font-stretch:semi-condensed;font-size:6.76634264px;font-family:'Nimbus Sans Narrow';-inkscape-font-specification:'Nimbus Sans Narrow, Bold Semi-Condensed';font-variant-ligatures:normal;font-variant-caps:normal;font-variant-numeric:normal;font-feature-settings:normal;text-align:center;writing-mode:lr-tb;text-anchor:middle;fill:#283f60;fill-opacity:1;stroke-width:0.1041584"
           d="m 86.676052,84.488909 -0.392639,2.14997 0.818719,0.149518 0.872801,-4.77919 -0.818719,-0.149518 -0.330644,1.810501 -1.530938,-0.279588 0.330643,-1.810501 -0.818719,-0.149519 -0.872801,4.77919 0.81872,0.149519 0.392638,-2.14997 z"
           inkscape:connector-curvature="0" />
        <path
           id="path1574"
           style="font-style:normal;font-variant:normal;font-weight:bold;font-stretch:semi-condensed;font-size:6.76634264px;font-family:'Nimbus Sans Narrow';-inkscape-font-specification:'Nimbus Sans Narrow, Bold Semi-Condensed';font-variant-ligatures:normal;font-variant-caps:normal;font-variant-numeric:normal;font-feature-settings:normal;text-align:center;writing-mode:lr-tb;text-anchor:middle;fill:#283f60;fill-opacity:1;stroke-width:0.1041584"
           d="m 90.288252,82.19467 c -0.550365,-0.07032 -1.076195,0.09441 -1.464097,0.460953 -0.410611,0.3841 -0.681728,1.01113 -0.787212,1.836678 -0.07633,0.597348 -0.03997,1.113595 0.09736,1.533602 0.233124,0.684638 0.787443,1.151105 1.478756,1.239438 0.53023,0.06775 1.056917,-0.1037 1.43725,-0.464384 0.41061,-0.3841 0.681727,-1.01113 0.786354,-1.829966 0.10377,-0.812125 -1.15e-4,-1.493892 -0.300952,-1.968898 -0.278279,-0.438017 -0.744077,-0.743103 -1.247459,-0.807423 z m -0.122339,0.85068 c 0.26176,0.03345 0.507224,0.194416 0.65343,0.438202 0.198893,0.311911 0.267242,0.791318 0.194346,1.361819 -0.136358,1.067172 -0.620537,1.653334 -1.291714,1.567574 -0.671178,-0.08576 -0.992412,-0.774834 -0.856911,-1.835295 0.132928,-1.040325 0.62296,-1.618918 1.300849,-1.5323 z"
           inkscape:connector-curvature="0" />
        <path
           id="path1576"
           style="font-style:normal;font-variant:normal;font-weight:bold;font-stretch:semi-condensed;font-size:6.76634264px;font-family:'Nimbus Sans Narrow';-inkscape-font-specification:'Nimbus Sans Narrow, Bold Semi-Condensed';font-variant-ligatures:normal;font-variant-caps:normal;font-variant-numeric:normal;font-feature-settings:normal;text-align:center;writing-mode:lr-tb;text-anchor:middle;fill:#283f60;fill-opacity:1;stroke-width:0.1041584"
           d="m 92.190609,87.438156 0.809877,0.05813 0.135648,-1.889713 0.85712,0.06153 c 0.559196,0.05371 0.643509,0.202218 0.582016,0.964368 -0.02619,0.459415 -0.0229,0.697083 0.02472,0.978636 l 0.917861,0.06589 0.0092,-0.128231 c -0.136883,-0.07766 -0.156128,-0.187585 -0.132356,-0.613255 0.08814,-1.133343 0.03663,-1.360904 -0.391842,-1.629093 0.419473,-0.173402 0.656305,-0.543075 0.696515,-1.10324 0.06007,-0.836873 -0.393846,-1.412157 -1.156481,-1.466901 L 92.538449,82.59239 Z m 1.004629,-2.654955 0.0935,-1.302552 1.039343,0.07461 c 0.377942,0.02713 0.56394,0.271129 0.533419,0.696314 -0.03197,0.445433 -0.248977,0.633368 -0.68766,0.601879 z"
           inkscape:connector-curvature="0" />
        <path
           id="path1578"
           style="font-style:normal;font-variant:normal;font-weight:bold;font-stretch:semi-condensed;font-size:6.76634264px;font-family:'Nimbus Sans Narrow';-inkscape-font-specification:'Nimbus Sans Narrow, Bold Semi-Condensed';font-variant-ligatures:normal;font-variant-caps:normal;font-variant-numeric:normal;font-feature-settings:normal;text-align:center;writing-mode:lr-tb;text-anchor:middle;fill:#283f60;fill-opacity:1;stroke-width:0.1041584"
           d="m 98.558839,85.981659 0.954052,-0.0021 c 0.771359,-0.0017 1.270659,-0.632116 1.268509,-1.592934 -0.002,-0.92022 -0.49055,-1.5078 -1.241614,-1.506119 l -1.820142,0.0041 0.01087,4.858222 0.832258,-0.0019 z m -0.0019,-0.832258 -0.0032,-1.434461 0.6631,-0.0015 c 0.521007,-0.0012 0.731202,0.194588 0.732323,0.695296 0.0011,0.500708 -0.201339,0.737984 -0.620851,0.738923 z"
           inkscape:connector-curvature="0" />
        <path
           id="path1580"
           style="font-style:normal;font-variant:normal;font-weight:bold;font-stretch:semi-condensed;font-size:6.76634264px;font-family:'Nimbus Sans Narrow';-inkscape-font-specification:'Nimbus Sans Narrow, Bold Semi-Condensed';font-variant-ligatures:normal;font-variant-caps:normal;font-variant-numeric:normal;font-feature-settings:normal;text-align:center;writing-mode:lr-tb;text-anchor:middle;fill:#283f60;fill-opacity:1;stroke-width:0.1041584"
           d="m 102.89241,82.639266 c -0.55391,0.03218 -1.04043,0.290892 -1.35424,0.722568 -0.33289,0.453117 -0.48396,1.119336 -0.43569,1.950195 0.0349,0.601191 0.16569,1.101925 0.37798,1.489479 0.35516,0.630029 0.98587,0.986495 1.68163,0.946071 0.53364,-0.03101 1.01977,-0.29647 1.32722,-0.720998 0.33289,-0.453118 0.48396,-1.119337 0.43608,-1.943441 -0.0475,-0.817349 -0.27509,-1.468345 -0.65822,-1.879862 -0.35415,-0.379311 -0.86814,-0.593447 -1.37476,-0.564012 z m 0.0363,0.858664 c 0.26344,-0.01531 0.53434,0.09773 0.72292,0.310441 0.25291,0.269972 0.40833,0.728606 0.44169,1.302777 0.0624,1.074038 -0.30561,1.739306 -0.9811,1.778552 -0.6755,0.03925 -1.11808,-0.578926 -1.18009,-1.646208 -0.0608,-1.047018 0.31433,-1.705924 0.99658,-1.745562 z"
           inkscape:connector-curvature="0" />
        <path
           id="path1582"
           style="font-style:normal;font-variant:normal;font-weight:bold;font-stretch:semi-condensed;font-size:6.76634264px;font-family:'Nimbus Sans Narrow';-inkscape-font-specification:'Nimbus Sans Narrow, Bold Semi-Condensed';font-variant-ligatures:normal;font-variant-caps:normal;font-variant-numeric:normal;font-feature-settings:normal;text-align:center;writing-mode:lr-tb;text-anchor:middle;fill:#283f60;fill-opacity:1;stroke-width:0.1041584"
           d="m 105.35439,85.975372 c 0.0582,0.388343 0.12765,0.577883 0.27643,0.805989 0.31411,0.481557 0.86336,0.697736 1.55574,0.618238 1.00161,-0.115001 1.53868,-0.776016 1.42677,-1.750732 -0.0826,-0.719273 -0.42081,-1.055033 -1.18572,-1.191965 l -1.00118,-0.177911 c -0.31331,-0.05938 -0.44302,-0.180702 -0.47466,-0.456311 -0.0417,-0.362998 0.19501,-0.614931 0.63868,-0.665871 0.49071,-0.05634 0.75818,0.137704 0.87734,0.641643 l 0.79322,-0.09107 c -0.17627,-1.001381 -0.79078,-1.48931 -1.73861,-1.380484 -0.9411,0.108055 -1.44093,0.737551 -1.33211,1.685378 0.0478,0.416775 0.19918,0.726319 0.44648,0.92268 0.18812,0.155482 0.44996,0.241201 0.97034,0.324481 l 0.43739,0.07237 c 0.57646,0.09727 0.75323,0.213192 0.7895,0.529134 0.0455,0.396608 -0.21804,0.651629 -0.72893,0.710287 -0.55794,0.06406 -0.86288,-0.159737 -0.95746,-0.68693 z"
           inkscape:connector-curvature="0" />
        <path
           id="path1584"
           style="font-style:normal;font-variant:normal;font-weight:bold;font-stretch:semi-condensed;font-size:6.76634264px;font-family:'Nimbus Sans Narrow';-inkscape-font-specification:'Nimbus Sans Narrow, Bold Semi-Condensed';font-variant-ligatures:normal;font-variant-caps:normal;font-variant-numeric:normal;font-feature-settings:normal;text-align:center;writing-mode:lr-tb;text-anchor:middle;fill:#283f60;fill-opacity:1;stroke-width:0.1041584"
           d="m 108.98082,85.549155 c 0.0782,0.384815 0.15734,0.570514 0.31772,0.790625 0.33857,0.46468 0.89826,0.652184 1.58561,0.537009 0.99432,-0.166612 1.49652,-0.854501 1.33438,-1.822131 -0.11965,-0.714044 -0.47478,-1.031875 -1.24574,-1.129091 l -1.00904,-0.125931 c -0.31595,-0.04311 -0.45176,-0.157564 -0.49761,-0.43117 -0.0604,-0.360358 0.16298,-0.624187 0.60341,-0.697989 0.48716,-0.08163 0.7643,0.09833 0.90934,0.595443 l 0.78745,-0.131948 c -0.22779,-0.990932 -0.86669,-1.446451 -1.80763,-1.288784 -0.93426,0.156548 -1.40089,0.811035 -1.24323,1.751971 0.0693,0.413745 0.23645,0.715054 0.49357,0.898373 0.19591,0.145551 0.46183,0.217623 0.98581,0.273898 l 0.44055,0.04967 c 0.58072,0.06735 0.76324,0.173978 0.8158,0.487624 0.066,0.393725 -0.18408,0.662026 -0.69125,0.74701 -0.55389,0.09281 -0.86998,-0.114929 -0.99169,-0.636529 z"
           inkscape:connector-curvature="0" />
        <path
           id="path1586"
           style="font-style:normal;font-variant:normal;font-weight:bold;font-stretch:semi-condensed;font-size:6.76634264px;font-family:'Nimbus Sans Narrow';-inkscape-font-specification:'Nimbus Sans Narrow, Bold Semi-Condensed';font-variant-ligatures:normal;font-variant-caps:normal;font-variant-numeric:normal;font-feature-settings:normal;text-align:center;writing-mode:lr-tb;text-anchor:middle;fill:#283f60;fill-opacity:1;stroke-width:0.1041584"
           d="m 112.84588,81.431676 -0.81531,0.16711 0.97548,4.759292 0.81532,-0.167109 z m 0.3733,-1.582242 -0.83519,0.171185 -0.31204,1.072381 0.55017,-0.112765 z"
           inkscape:connector-curvature="0" />
        <path
           id="path1588"
           style="font-style:normal;font-variant:normal;font-weight:bold;font-stretch:semi-condensed;font-size:6.76634264px;font-family:'Nimbus Sans Narrow';-inkscape-font-specification:'Nimbus Sans Narrow, Bold Semi-Condensed';font-variant-ligatures:normal;font-variant-caps:normal;font-variant-numeric:normal;font-feature-settings:normal;text-align:center;writing-mode:lr-tb;text-anchor:middle;fill:#283f60;fill-opacity:1;stroke-width:0.1041584"
           d="m 115.71474,84.581234 -1.70807,-3.401455 -0.86805,0.210258 2.44576,4.406313 0.76941,-0.186365 0.17156,-5.040272 -0.84175,0.203887 z"
           inkscape:connector-curvature="0" />
        <path
           id="path1590"
           style="font-style:normal;font-variant:normal;font-weight:bold;font-stretch:semi-condensed;font-size:6.76634264px;font-family:'Nimbus Sans Narrow';-inkscape-font-specification:'Nimbus Sans Narrow, Bold Semi-Condensed';font-variant-ligatures:normal;font-variant-caps:normal;font-variant-numeric:normal;font-feature-settings:normal;text-align:center;writing-mode:lr-tb;text-anchor:middle;fill:#283f60;fill-opacity:1;stroke-width:0.1041584"
           d="m 119.59332,79.662927 -2.81016,0.828787 1.37429,4.659802 2.90102,-0.855584 -0.24308,-0.824227 -2.12222,0.625897 -0.35602,-1.207135 1.86911,-0.551249 -0.24308,-0.824227 -1.86911,0.551249 -0.28903,-0.979986 2.03136,-0.5991 z"
           inkscape:connector-curvature="0" />
        <path
           id="path1592"
           style="font-style:normal;font-variant:normal;font-weight:bold;font-stretch:semi-condensed;font-size:6.76634264px;font-family:'Nimbus Sans Narrow';-inkscape-font-specification:'Nimbus Sans Narrow, Bold Semi-Condensed';font-variant-ligatures:normal;font-variant-caps:normal;font-variant-numeric:normal;font-feature-settings:normal;text-align:center;writing-mode:lr-tb;text-anchor:middle;fill:#283f60;fill-opacity:1;stroke-width:0.1041584"
           d="m 120.90105,79.218339 -0.78664,0.271778 1.58648,4.591899 2.66049,-0.919185 -0.28725,-0.831402 -1.87385,0.647406 z"
           inkscape:connector-curvature="0" />
      </g>
      <path
         style="fill:#ffd823;fill-opacity:1;stroke-width:0.53210002"
         d="M 95.884669,73.439014 C 95.277969,72.586909 93.856798,69.878667 92.72656,67.420645 90.594491,62.783816 89.220241,61.285076 81.484469,55.160217 77.812866,52.253188 76.183863,49.4815 76.172234,46.121818 c -0.008,-2.264736 -0.13305,-2.527141 -1.20598,-2.524193 -0.658486,0.0016 -1.89055,0.364928 -2.737951,0.806779 l -1.540744,0.803549 0.294971,-3.900341 c 0.162224,-2.145193 0.663735,-4.782983 1.11449,-5.861737 0.450734,-1.078765 0.63547,-1.961396 0.410355,-1.961396 -0.225115,0 -1.410036,0.856647 -2.633328,1.903835 -2.135371,1.82777 -2.223801,1.85434 -2.214544,0.665148 0.0098,-1.167427 1.76605,-4.751931 3.932503,-8.02296 1.275775,-1.926256 0.176356,-1.990832 -2.53765,-0.148999 -1.746679,1.185345 -1.936583,1.219203 -1.936583,0.345344 0,-0.532907 0.608113,-2.112536 1.351234,-3.510267 0.743182,-1.397761 1.219153,-2.673505 1.057676,-2.835003 -0.161315,-0.161416 -1.023151,0.245709 -1.914828,0.905002 l -1.62122,1.19861 0.373206,-2.034583 C 66.789944,19.62837 69.981648,12.467842 72.044052,9.2073013 L 73.432567,7.0121695 72.293082,3.620275 c -0.940031,-2.79806588 -1.13999,-4.6495897 -1.142352,-10.5752774 -0.004,-7.9639256 0.624467,-10.3662036 3.138878,-12.0136706 1.286778,-0.843221 1.553363,-0.852205 3.104,-0.104885 2.561847,1.234568 6.407039,4.848014 9.185138,8.631618 2.399037,3.2673245 2.540728,3.3668595 4.045989,2.84212 1.602343,-0.5585472 10.699935,-0.3226309 12.164015,0.3153626 0.58933,0.2569135 1.52782,-0.6092233 3.35173,-3.0933806 2.82058,-3.841417 6.65672,-7.454651 9.2323,-8.695831 1.55064,-0.74732 1.81721,-0.738235 3.10402,0.104885 2.51435,1.647467 3.14202,4.049755 3.13886,12.0136705 -0.002,5.9256878 -0.2024,7.77722167 -1.14234,10.5752775 l -1.13948,3.3918945 1.38848,2.1951317 c 2.06242,3.2605408 5.25416,10.4210688 5.68021,12.7433048 l 0.37331,2.034583 -1.6212,-1.19861 c -0.89168,-0.659192 -1.75336,-1.066499 -1.91486,-0.905002 -0.16131,0.161316 0.31446,1.437212 1.05768,2.834973 0.74318,1.397761 1.35125,2.97739 1.35125,3.510277 0,0.873909 -0.18978,0.840092 -1.9366,-0.345345 -2.71399,-1.841782 -3.81343,-1.777205 -2.53765,0.149 2.16647,3.271039 3.92343,6.855523 3.93251,8.02295 0.01,1.189242 -0.0798,1.162693 -2.21454,-0.665149 -1.22329,-1.047086 -2.40828,-1.903815 -2.63334,-1.903815 -0.22512,0 -0.0404,0.882693 0.41035,1.961396 0.45074,1.078765 0.95235,3.716545 1.1145,5.861737 l 0.29508,3.900321 -1.54073,-0.803448 c -0.84746,-0.441951 -2.07947,-0.805063 -2.73795,-0.806779 -1.07277,-0.004 -1.19814,0.259437 -1.20598,2.524183 -0.0121,3.359733 -1.64066,6.13137 -5.31225,9.0384 -9.06158,7.17463 -10.83128,9.47495 -12.548437,16.311061 -0.485864,1.934332 -1.077462,3.51701 -1.31461,3.51701 -0.237229,0 -0.927614,-0.69725 -1.534344,-1.549264 z m 4.258281,-30.395485 c 0.56612,-0.303047 1.02923,-0.790324 1.02923,-1.082943 0,-0.328587 -0.44124,-0.29588 -1.15344,0.0848 -0.725823,0.38845 -2.353242,0.499897 -4.389824,0.300524 -2.997328,-0.293356 -3.138131,-0.260346 -1.906137,0.446696 1.567051,0.89945 4.960147,1.031833 6.420171,0.250453 z m 0.27801,-1.880173 c 2.51774,-0.731976 3.10102,-1.180903 4.73776,-3.646758 1.02661,-1.54664 1.86655,-3.345994 1.86655,-3.998544 0,-1.968402 -1.25412,-0.947299 -2.3004,1.872996 -1.23212,3.3212 -2.28615,4.478593 -4.07858,4.478593 -2.174982,0 -2.225698,-0.484653 -0.2338,-2.233664 1.49098,-1.309068 1.82382,-1.979637 1.82382,-3.67457 0,-3.013692 -1.39577,-4.201672 -4.936548,-4.201672 -3.880343,0 -5.17338,0.991212 -5.17338,3.965816 0,1.963526 0.272964,2.548805 1.823803,3.910426 1.991984,1.749011 1.941257,2.233664 -0.233796,2.233664 -1.732899,0 -2.777109,-1.084953 -4.1685,-4.331209 -1.08895,-2.540637 -2.162273,-3.713536 -2.273508,-2.48448 -0.130829,1.447428 0.182212,2.190125 1.976861,4.688213 1.337707,1.861992 2.463977,2.783307 4.089882,3.34564 3.011945,1.041706 3.729839,1.049358 7.079686,0.07571 z M 93.092902,23.551414 c 0.931753,-2.097646 1.694064,-4.565661 1.694064,-5.484462 0,-0.918832 0.260043,-2.703458 0.57793,-3.965877 0.499896,-1.9852 0.429939,-2.58557 -0.517966,-4.4436047 -1.554797,-3.0476708 -1.85105,-5.805852 -0.941344,-8.76415317 0.427416,-1.39010912 0.572478,-2.52747383 0.322228,-2.52747383 -0.626284,0 -1.562671,3.5676455 -1.566295,5.9675308 -0.0016,1.0872237 0.340196,3.002779 0.759637,4.2567997 0.507467,1.5170822 0.702196,3.8824532 0.582169,7.0689072 -0.151625,4.027506 -0.442154,5.338805 -1.826398,8.24756 -1.073434,2.25556 -1.622967,4.199007 -1.579811,5.587047 l 0.06562,2.128405 0.367755,-2.128405 c 0.2023,-1.170617 1.130066,-3.844658 2.061779,-5.942274 z m 10.503918,5.38408 c -0.18221,-0.971628 -1.00868,-3.278792 -1.8365,-5.127045 -1.916054,-4.277958 -2.626397,-12.016648 -1.37741,-15.0059001 0.99807,-2.3886396 0.97839,-7.0249142 -0.0384,-9.1064589 -0.678276,-1.3882214 -0.742782,-1.422887 -0.494449,-0.26599887 0.983439,4.58244897 0.900959,6.15451747 -0.497272,9.47660617 -0.773466,1.8376937 -1.274412,3.5546537 -1.113217,3.8154837 0.161315,0.260851 0.505549,2.16614 0.765188,4.234036 0.281949,2.245737 1.13493,5.176308 2.1181,7.277235 0.9053,1.934574 1.64599,4.342716 1.64599,5.351443 0,1.187919 0.20432,1.707743 0.57985,1.475612 0.34605,-0.213909 0.44619,-1.070587 0.24853,-2.124962 z M 91.062265,15.393042 c 0,-0.877948 -0.469712,-2.065948 -1.043664,-2.639981 -0.880673,-0.880572 -1.296258,-0.955678 -2.660514,-0.480009 -1.83406,0.639407 -2.046283,1.502222 -0.674638,2.743493 0.878251,0.794766 3.068769,1.862103 3.979828,1.939097 0.219462,0.01817 0.399049,-0.684632 0.399049,-1.56257 z m -3.724701,-1.330257 c -0.457699,-0.55138 -0.477788,-0.798097 -0.06461,-0.798097 0.328486,0 0.597312,0.26509 0.597312,0.589134 0,0.323943 0.371591,0.446495 0.825757,0.272157 0.473448,-0.181707 0.687055,-0.09287 0.500603,0.209165 -0.460526,0.7452 -1.090888,0.652833 -1.85858,-0.272157 z m 19.687716,1.363025 c 1.93504,-1.372776 1.93736,-2.470267 0.006,-3.143319 -1.39601,-0.486672 -1.8014,-0.415605 -2.68766,0.47052 -0.58308,0.583178 -1.04367,1.76384 -1.04367,2.675837 0,1.440331 0.14093,1.591522 1.19723,1.286395 0.65848,-0.190186 1.79582,-0.770438 2.52748,-1.289474 z m -2.18158,-1.478318 c -0.68503,-0.872496 -0.66676,-0.887538 0.22673,-0.184937 0.84444,0.663836 1.04145,0.663836 1.50379,0 0.46214,-0.663534 0.50484,-0.663332 0.32536,9.59e-4 -0.31395,1.161178 -1.2246,1.242694 -2.0558,0.183928 z M 82.019,1.0234395 c 1.226482,-1.46488152 2.805183,-2.8077872 3.508207,-2.9842449 0.703005,-0.1763567 1.278269,-0.5210953 1.278269,-0.765996 0,-0.7867914 -5.02427,-5.2674743 -5.920984,-5.2802442 -1.420192,-0.02019 -2.214281,1.4589457 -2.069198,3.8543186 0.0747,1.2388784 0.167574,3.50964068 0.205631,5.04612488 0.03735,1.53650442 0.226427,2.79358382 0.418734,2.79352322 0.192105,-6.06e-5 1.353001,-1.1986303 2.579452,-2.6635018 z m 32.796,-0.26317229 c 0.0404,-1.60959099 0.13315,-3.88031281 0.20563,-5.04602391 0.14092,-2.2743156 -0.67676,-3.741196 -2.07435,-3.7212788 -0.89672,0.012114 -5.92098,4.493362 -5.92098,5.2802341 0,0.2449007 0.5752,0.5895383 1.27828,0.765996 0.703,0.1763568 2.28171,1.51936338 3.50817,2.9842449 1.22649,1.4648816 2.38723,2.6634109 2.57948,2.6634109 0.19211,0 0.3829,-1.3169417 0.42379,-2.926563 z"
         id="path4685-3"
         inkscape:connector-curvature="0" />
    </g>
    <text
       xml:space="preserve"
       style="font-style:normal;font-weight:normal;font-size:1.41111112px;line-height:1.25;font-family:sans-serif;letter-spacing:0px;word-spacing:0px;fill:#000000;fill-opacity:1;stroke:none;stroke-width:0.26458332"
       x="56.808056"
       y="95.793343"
       id="text1493"><tspan
         sodipodi:role="line"
         id="tspan1491"
         x="56.808056"
         y="97.041847"
         style="stroke-width:0.26458332" /></text>
  </g>
</svg>
