<?xml version="1.0" encoding="UTF-8" standalone="no"?>
<!-- Created with Inkscape (http://www.inkscape.org/) -->

<svg
   xmlns:dc="http://purl.org/dc/elements/1.1/"
   xmlns:cc="http://creativecommons.org/ns#"
   xmlns:rdf="http://www.w3.org/1999/02/22-rdf-syntax-ns#"
   xmlns:svg="http://www.w3.org/2000/svg"
   xmlns="http://www.w3.org/2000/svg"
   xmlns:sodipodi="http://sodipodi.sourceforge.net/DTD/sodipodi-0.dtd"
   xmlns:inkscape="http://www.inkscape.org/namespaces/inkscape"
   width="47.625mm"
   height="47.625mm"
   viewBox="0 0 47.625 47.625"
   version="1.1"
   id="svg8"
   inkscape:version="0.92.5 (2060ec1f9f, 2020-04-08)"
   sodipodi:docname="logo_mappa.svg">
  <defs
     id="defs2" />
  <sodipodi:namedview
     id="base"
     pagecolor="#ffffff"
     bordercolor="#666666"
     borderopacity="1.0"
     inkscape:pageopacity="0.0"
     inkscape:pageshadow="2"
     inkscape:zoom="0.49264169"
     inkscape:cx="235.42182"
     inkscape:cy="-74.454432"
     inkscape:document-units="mm"
     inkscape:current-layer="layer1"
     showgrid="false"
     inkscape:window-width="1366"
     inkscape:window-height="731"
     inkscape:window-x="1280"
     inkscape:window-y="0"
     inkscape:window-maximized="1"
     fit-margin-top="0"
     fit-margin-left="0"
     fit-margin-right="0"
     fit-margin-bottom="0" />
  <metadata
     id="metadata5">
    <rdf:RDF>
      <cc:Work
         rdf:about="">
        <dc:format>image/svg+xml</dc:format>
        <dc:type
           rdf:resource="http://purl.org/dc/dcmitype/StillImage" />
        <dc:title></dc:title>
      </cc:Work>
    </rdf:RDF>
  </metadata>
  <g
     inkscape:label="Camada 1"
     inkscape:groupmode="layer"
     id="layer1"
     transform="translate(-42.711311,-81.175598)">
    <rect
       style="fill:#663366;fill-opacity:1;stroke:none;stroke-width:1.26499999;stroke-linecap:round;stroke-linejoin:round;stroke-miterlimit:4;stroke-dasharray:none;stroke-dashoffset:0;stroke-opacity:1"
       id="rect4558"
       width="47.625"
       height="47.625"
       x="42.711311"
       y="81.175598"
       ry="13.701637" />
    <path
       style="color:#000000;font-style:normal;font-variant:normal;font-weight:normal;font-stretch:normal;font-size:medium;line-height:normal;font-family:sans-serif;font-variant-ligatures:normal;font-variant-position:normal;font-variant-caps:normal;font-variant-numeric:normal;font-variant-alternates:normal;font-feature-settings:normal;text-indent:0;text-align:start;text-decoration:none;text-decoration-line:none;text-decoration-style:solid;text-decoration-color:#000000;letter-spacing:normal;word-spacing:normal;text-transform:none;writing-mode:lr-tb;direction:ltr;text-orientation:mixed;dominant-baseline:auto;baseline-shift:baseline;text-anchor:start;white-space:normal;shape-padding:0;clip-rule:nonzero;display:inline;overflow:visible;visibility:visible;opacity:1;isolation:auto;mix-blend-mode:normal;color-interpolation:sRGB;color-interpolation-filters:linearRGB;solid-color:#000000;solid-opacity:1;vector-effect:none;fill:#ffffff;fill-opacity:1;fill-rule:nonzero;stroke:none;stroke-width:6.29291344;stroke-linecap:butt;stroke-linejoin:round;stroke-miterlimit:4;stroke-dasharray:none;stroke-dashoffset:0;stroke-opacity:1;color-rendering:auto;image-rendering:auto;shape-rendering:auto;text-rendering:auto;enable-background:accumulate"
       d="m 270.14062,337.01367 a 3.1467713,3.1467713 0 0 0 -0.52539,0.0508 l -39.10742,7.5586 -40.83008,-3.55664 a 3.1467713,3.1467713 0 0 0 -3.41796,3.10742 l -0.86329,106.33594 a 3.1467713,3.1467713 0 0 0 2.85743,3.1582 l 41.27148,3.76562 a 3.1467713,3.1467713 0 0 0 0.84766,-0.0371 l 40.88867,-7.47851 40.88867,6.48047 a 3.1467713,3.1467713 0 0 0 3.63867,-3.10742 V 347.73047 a 3.1467713,3.1467713 0 0 0 -2.58984,-3.0918 l -42.43164,-7.58203 a 3.1467713,3.1467713 0 0 0 -0.62696,-0.043 z m 0.0957,6.33985 39.25586,7.01367 v 99.24219 l -37.77149,-5.98829 a 3.1467713,3.1467713 0 0 0 -1.06445,0.008 l -40.99023,7.5 -37.95899,-3.46094 0.8125,-100.03906 37.87695,3.29882 a 3.1467713,3.1467713 0 0 0 0.8711,-0.0449 z m -48.4375,10.76562 c -2.16012,-0.003 -4.34937,0.591 -6.24024,1.92383 a 3.1467713,3.1467713 0 0 0 -0.20703,0.16211 c -0.0991,0.0831 -0.47696,0.34212 -0.95898,0.87109 -0.48202,0.529 -1.166,1.54598 -1.17383,2.87305 a 3.1467713,3.1467713 0 0 0 6.06836,1.2168 c 0.91933,-0.60808 2.26104,-0.88732 3.51953,-0.65625 a 3.1467713,3.1467713 0 0 0 0.008,0 c 0.96336,0.17552 1.96192,0.62589 2.87305,1.27734 a 3.1484679,3.1484679 0 1 0 3.66016,-5.12305 c -1.55422,-1.11114 -3.3746,-1.97697 -5.40235,-2.34765 h -0.008 c -0.70147,-0.12837 -1.41863,-0.19631 -2.13867,-0.19727 z m -14.83203,2.96484 c -3.51728,0 -6.33399,2.97904 -6.33399,6.50391 0,3.52487 2.81671,6.50977 6.33399,6.50977 3.51727,0 6.32617,-2.9849 6.32617,-6.50977 0,-3.52487 -2.8089,-6.50391 -6.32617,-6.50391 z m 0,4.11133 c 1.20203,0 2.21289,1.00091 2.21289,2.39258 0,1.39168 -1.01086,2.39844 -2.21289,2.39844 -1.20204,0 -2.21485,-1.00676 -2.21485,-2.39844 0,-1.39167 1.01281,-2.39258 2.21485,-2.39258 z m 63.33593,3.57617 c -0.61046,0.0122 -1.22569,0.0491 -1.8457,0.11524 a 3.1478913,3.1478913 0 1 0 0.67188,6.25976 c 3.42965,-0.36601 7.15246,0.55546 10.82226,1.95704 a 3.1490746,3.1490746 0 0 0 2.24414,-5.88477 c -3.59253,-1.37206 -7.61935,-2.53278 -11.89258,-2.44727 z m -35.58007,1.30469 a 3.1467713,3.1467713 0 0 0 -2.70313,4.49414 c 0.95989,2.08933 1.66212,4.03386 1.73633,5.80274 a 3.1467713,3.1467713 0 0 0 0.006,0.0508 c 0.0827,1.38964 -0.0785,2.84687 -0.43555,4.2832 a 3.1467713,3.1467713 0 1 0 6.10547,1.51172 c 0.48687,-1.95832 0.72642,-4.02071 0.60547,-6.12695 -0.13523,-3.13336 -1.22933,-5.82904 -2.29492,-8.14844 a 3.1467713,3.1467713 0 0 0 -3.01953,-1.86719 z m 22.89062,3.88281 a 3.1467713,3.1467713 0 0 0 -2.20703,0.84766 c -1.95883,1.79131 -3.57145,3.8833 -4.87891,6.11328 -1.2818,2.04933 -1.99201,4.34076 -2.19336,6.65039 a 3.1467713,3.1467713 0 1 0 6.26758,0.54688 c 0.12318,-1.41275 0.56151,-2.76731 1.26953,-3.89063 a 3.1467713,3.1467713 0 0 0 0.0508,-0.0879 c 1.0252,-1.75653 2.2837,-3.3591 3.73632,-4.6875 a 3.1467713,3.1467713 0 0 0 -2.04492,-5.49219 z m 32.8125,4.87891 a 3.1467713,3.1467713 0 0 0 -2.85742,4.39258 c 0.70228,1.68503 0.39873,4.00823 -0.61914,6.08984 a 3.1467713,3.1467713 0 0 0 -0.0156,0.0371 c -0.41675,0.88366 -0.96364,1.78003 -1.58593,2.70117 a 3.1478749,3.1478749 0 0 0 5.21875,3.52149 c 0.71882,-1.06405 1.4291,-2.21645 2.03711,-3.49805 1.58025,-3.23176 2.4126,-7.34521 0.77539,-11.27344 a 3.1467713,3.1467713 0 0 0 -2.95313,-1.9707 z m -59.54883,14.70508 a 3.1467713,3.1467713 0 0 0 -2.57812,1.41015 c -2.25862,3.31397 -4.85042,6.48559 -7.5293,9.6836 a 3.1467713,3.1467713 0 1 0 4.82031,4.03906 c 2.70642,-3.23089 5.44549,-6.55765 7.91407,-10.17969 a 3.1467713,3.1467713 0 0 0 -2.62696,-4.95312 z m 21.8711,3.59375 a 3.1467713,3.1467713 0 0 0 -3.1211,3.74414 c 0.724,4.09391 1.35005,8.06562 1.29102,11.89844 a 3.1487986,3.1487986 0 1 0 6.29687,0.0957 c 0.0704,-4.57017 -0.6539,-8.94091 -1.38867,-13.0957 a 3.1467713,3.1467713 0 0 0 -3.07812,-2.64258 z m 27.51953,3.55859 a 3.1467713,3.1467713 0 0 0 -2.34766,1.23242 c -2.5937,3.29859 -5.2591,6.69239 -7.61719,10.41602 a 3.1467713,3.1467713 0 1 0 5.31446,3.36719 c 2.13326,-3.36862 4.66056,-6.5994 7.25,-9.89258 a 3.1467713,3.1467713 0 0 0 -2.59961,-5.12305 z m -64.97461,12.54102 a 3.1467713,3.1467713 0 0 0 -2.60547,1.33789 c -1.99426,2.76612 -4.27908,5.96507 -5.25586,10.03906 a 3.1467713,3.1467713 0 0 0 -0.0156,0.043 c -0.22315,0.99878 -0.35919,2.10036 -0.28711,3.27148 a 3.1470803,3.1470803 0 1 0 6.28125,-0.39257 c -0.0257,-0.41568 0.0242,-0.91209 0.14062,-1.45313 v -0.008 c 0.61663,-2.56539 2.30311,-5.12605 4.24414,-7.81836 a 3.1467713,3.1467713 0 0 0 -2.50195,-5.01953 z m 78.49805,7.64844 a 2.3907902,2.3907902 0 0 0 -2.1836,2.99023 l 0.82813,3.39648 -2.63086,-0.58398 a 2.3907902,2.3907902 0 0 0 -0.47071,-0.0664 2.3907902,2.3907902 0 0 0 -0.56836,4.73047 l 4.9336,1.09571 1.48047,6.0664 a 2.3907902,2.3907902 0 1 0 4.64258,-1.13086 l -0.92188,-3.77929 2.72266,0.60546 a 2.3907902,2.3907902 0 1 0 1.04101,-4.66601 l -5.02734,-1.11524 -1.38672,-5.68945 a 2.3907902,2.3907902 0 0 0 -2.45898,-1.85351 z m -42.62891,0.8789 a 3.1467713,3.1467713 0 0 0 -2.73242,1.6836 c -1.71241,3.15046 -4.39919,5.85086 -7.53711,7.8457 a 3.1467713,3.1467713 0 1 0 3.375,5.30859 c 3.92774,-2.4969 7.38947,-5.90746 9.6914,-10.14258 a 3.1467713,3.1467713 0 0 0 -2.79687,-4.69531 z m 17.14062,0.63281 v 0.002 a 3.1467713,3.1467713 0 0 0 -3.17382,2.77539 c -0.5476,4.17876 0.52166,8.43192 2.92968,11.86328 0.48784,0.71059 1.02152,1.44546 1.63868,2.16992 a 3.1470917,3.1470917 0 0 0 4.79101,-4.08203 c -0.42326,-0.49686 -0.83521,-1.06199 -1.25586,-1.67578 a 3.1467713,3.1467713 0 0 0 -0.0215,-0.0312 c -1.49176,-2.12572 -2.18086,-4.86814 -1.84571,-7.42578 a 3.1467713,3.1467713 0 0 0 -3.0625,-3.59571 z m 19.73829,10.8086 a 3.1467713,3.1467713 0 0 0 -2.61329,1.32812 c -1.03188,1.41581 -2.33064,2.5892 -3.7207,3.2793 a 3.1477753,3.1477753 0 1 0 2.79883,5.63867 c 2.50307,-1.24263 4.49297,-3.13246 6.00781,-5.21094 a 3.1467713,3.1467713 0 0 0 -2.47265,-5.03515 z m -69.44141,0.0664 a 3.1467713,3.1467713 0 0 0 -1.36523,6.03125 c 4.42158,1.98565 9.30933,2.56479 13.98828,1.99219 a 3.1467713,3.1467713 0 1 0 -0.76758,-6.24414 c -3.6383,0.44523 -7.38771,-0.0271 -10.63672,-1.48437 a 3.1467713,3.1467713 0 0 0 -1.21875,-0.29493 z"
       transform="scale(0.26458333)"
       id="path21"
       inkscape:connector-curvature="0" />
  </g>
</svg>
