<?xml version="1.0" encoding="UTF-8" standalone="no"?>
<!-- Created with Inkscape (http://www.inkscape.org/) -->

<svg
   xmlns:dc="http://purl.org/dc/elements/1.1/"
   xmlns:cc="http://creativecommons.org/ns#"
   xmlns:rdf="http://www.w3.org/1999/02/22-rdf-syntax-ns#"
   xmlns:svg="http://www.w3.org/2000/svg"
   xmlns="http://www.w3.org/2000/svg"
   xmlns:sodipodi="http://sodipodi.sourceforge.net/DTD/sodipodi-0.dtd"
   xmlns:inkscape="http://www.inkscape.org/namespaces/inkscape"
   width="210mm"
   height="297mm"
   viewBox="0 0 210 297"
   version="1.1"
   id="svg8"
   inkscape:version="0.92.5 (2060ec1f9f, 2020-04-08)"
   sodipodi:docname="simbolos_ramos.svg">
  <defs
     id="defs2" />
  <sodipodi:namedview
     id="base"
     pagecolor="#ffffff"
     bordercolor="#666666"
     borderopacity="1.0"
     inkscape:pageopacity="0.0"
     inkscape:pageshadow="2"
     inkscape:zoom="0.46502525"
     inkscape:cx="424.76937"
     inkscape:cy="561.25984"
     inkscape:document-units="mm"
     inkscape:current-layer="layer1"
     showgrid="false"
     inkscape:window-width="1280"
     inkscape:window-height="736"
     inkscape:window-x="0"
     inkscape:window-y="27"
     inkscape:window-maximized="1" />
  <metadata
     id="metadata5">
    <rdf:RDF>
      <cc:Work
         rdf:about="">
        <dc:format>image/svg+xml</dc:format>
        <dc:type
           rdf:resource="http://purl.org/dc/dcmitype/StillImage" />
        <dc:title />
      </cc:Work>
    </rdf:RDF>
  </metadata>
  <g
     inkscape:label="Camada 1"
     inkscape:groupmode="layer"
     id="layer1">
    <g
       id="g4681"
       transform="matrix(0.74117367,0,0,0.74117367,-6.3997238,62.964382)"
       inkscape:export-xdpi="41.450001"
       inkscape:export-ydpi="41.450001">
      <ellipse
         ry="39.824928"
         rx="39.6875"
         cy="59.902412"
         cx="59.461681"
         id="path3742"
         style="fill:#ab2355;stroke-width:0.84489059" />
      <path
         id="circle3837"
         transform="scale(0.26458333)"
         d="m 223.37109,75.882812 -6.42968,26.023438 c -62.69994,3.87181 -112.9057,54.11667 -116.71289,116.83398 l -25.492192,6.29688 25.406252,7.57031 c 3.11059,63.39526 53.61351,114.38923 116.79883,118.29102 l 6.42968,26.02344 7.53711,-25.92579 c 64.00876,-3.12479 115.38826,-54.56222 118.42578,-118.59375 l 25.40235,-7.36523 -25.4961,-6.29883 C 345.39936,155.48232 294.36109,104.90625 230.9082,101.80859 Z m 9.24805,31.812498 c 59.04196,3.8585 106.28997,50.7151 110.74414,109.5918 l -20.87695,-5.1582 c -6.26528,-43.20601 -40.53568,-77.38174 -83.78516,-83.51368 z m -17.12891,0.0879 -5.16211,20.89258 c -43.04125,6.3002 -77.09473,40.39345 -83.33789,83.45313 l -20.87695,5.1582 c 4.4194,-58.42493 50.97005,-105.02188 109.37695,-109.50391 z m 9.24415,25.5625 c 51.4264,0 93.05664,41.63022 93.05664,93.05664 0,51.42643 -41.63024,93.05664 -93.05664,93.05664 -51.42643,0 -93.04883,-41.63021 -93.04883,-93.05664 0,-51.42642 41.6224,-93.05664 93.04883,-93.05664 z m 118.71874,100.76368 c -3.80217,59.53491 -51.32287,107.11282 -110.83398,111.00195 l 6.08203,-20.92188 c 43.41864,-6.15592 77.78594,-40.57592 83.85547,-84.02148 z m -237.41406,0.2539 20.93946,6.24024 c 6.21545,43.09384 40.28423,77.22166 83.3496,83.52539 l 5.16211,20.89257 C 156.7,340.51005 109.92947,293.32661 106.03906,234.36328 Z"
         style="color:#000000;font-style:normal;font-variant:normal;font-weight:normal;font-stretch:normal;font-size:medium;line-height:normal;font-family:sans-serif;font-variant-ligatures:normal;font-variant-position:normal;font-variant-caps:normal;font-variant-numeric:normal;font-variant-alternates:normal;font-feature-settings:normal;text-indent:0;text-align:start;text-decoration:none;text-decoration-line:none;text-decoration-style:solid;text-decoration-color:#000000;letter-spacing:normal;word-spacing:normal;text-transform:none;writing-mode:lr-tb;direction:ltr;text-orientation:mixed;dominant-baseline:auto;baseline-shift:baseline;text-anchor:start;white-space:normal;shape-padding:0;clip-rule:nonzero;display:inline;overflow:visible;visibility:visible;opacity:1;isolation:auto;mix-blend-mode:normal;color-interpolation:sRGB;color-interpolation-filters:linearRGB;solid-color:#000000;solid-opacity:1;vector-effect:none;fill:#ffffff;fill-opacity:1;fill-rule:nonzero;stroke:none;stroke-width:5.77511787;stroke-linecap:butt;stroke-linejoin:miter;stroke-miterlimit:4;stroke-dasharray:none;stroke-dashoffset:0;stroke-opacity:1;color-rendering:auto;image-rendering:auto;shape-rendering:auto;text-rendering:auto;enable-background:accumulate"
         inkscape:connector-curvature="0" />
      <path
         inkscape:connector-curvature="0"
         id="path3827"
         d="m 61.12233,76.370835 c 0.7255,-0.76711 1.37032,-1.54844 1.43294,-1.7363 0.0873,-0.26193 0.28617,-0.27603 0.85318,-0.0605 0.40663,0.1546 1.42834,0.2811 2.27047,0.2811 1.84036,0 3.08845,-0.70711 3.79732,-2.15137 0.68951,-1.404817 0.41193,-1.817177 -1.22404,-1.818367 -1.90698,-10e-4 -2.94551,-0.69845 -3.79053,-2.54422 -0.85865,-1.87553 -0.78205,-3.97049 0.18273,-4.99745 1.26097,-1.34223 3.58712,-0.56851 4.67472,1.55491 0.7767,1.51643 1.18946,1.55793 2.6932,0.27078 2.0891,-1.78819 2.83966,-4.34485 2.06143,-7.02187 -1.23418,-4.24543 -5.03372,-6.21603 -8.90209,-4.617 -0.33688,0.13925 -0.39688,-0.2264 -0.39688,-2.4187 0,-2.199989 -0.0952,-2.776269 -0.64265,-3.888569 -0.66241,-1.34594 -4.08347,-5.17647 -4.62313,-5.17647 -0.16704,0 -1.1567,0.8632 -2.19925,1.91822 -2.85367,2.88784 -3.82657,5.34193 -3.27777,8.268029 0.13644,0.72749 0.21666,1.35413 0.17825,1.39253 -0.0384,0.0384 -0.501,-0.11033 -1.02799,-0.33052 -1.2869,-0.5377 -3.25253,-0.49601 -4.55728,0.0967 -1.38155,0.62756 -3.1443,2.64025 -3.67406,4.19501 -0.49341,1.44808 -0.53482,3.18687 -0.10968,4.60585 0.3698,1.23428 1.8194,2.9922 2.94915,3.57642 0.92055,0.47603 0.67406,0.65542 2.29389,-1.6694 2.68475,-3.85323 6.49745,-0.004 4.27984,4.32129 -0.87929,1.71483 -1.67079,2.26028 -3.53918,2.43897 -1.40675,0.13454 -1.67236,0.2413 -1.73781,0.6985 -0.1114,0.77812 0.995,2.294787 2.0669,2.833337 1.06031,0.53271 2.95764,0.60207 4.24011,0.155 0.68268,-0.23799 0.90898,-0.23578 0.9908,0.01 0.22099,0.66297 2.5876,3.19367 2.99367,3.20125 0.23355,0.004 1.01823,-0.61972 1.74374,-1.38683 z"
         style="fill:#ffffff;stroke-width:0.26458332" />
    </g>
    <g
       id="g4790"
       inkscape:export-xdpi="40.639999"
       inkscape:export-ydpi="40.639999">
      <path
         style="fill:#ffffff;fill-opacity:1;stroke:none;stroke-width:2.70000005;stroke-miterlimit:4;stroke-dasharray:none;stroke-opacity:1"
         d="M 35.672474,6.0172431 A 30.000001,30.000001 0 0 0 5.6722399,36.016963 30.000001,30.000001 0 0 0 35.672474,66.017203 30.000001,30.000001 0 0 0 65.672198,36.016963 30.000001,30.000001 0 0 0 35.672474,6.0172431 Z"
         id="path4731-3-6"
         inkscape:connector-curvature="0" />
      <g
         transform="matrix(1.0068084,0,0,1.0068084,-120.95352,-11.629819)"
         id="g4683">
        <path
           inkscape:connector-curvature="0"
           id="path4697"
           d="m 155.19173,70.615595 c -0.39037,-0.589894 -1.12714,-1.988878 -1.63728,-3.108854 -1.06854,-2.345955 -1.65313,-3.034255 -4.20556,-4.951635 -3.08942,-2.320769 -4.10104,-3.753316 -4.10104,-5.807438 0,-1.05083 -0.43317,-1.197538 -1.5875,-0.537665 -0.3638,0.207968 -0.75076,0.382344 -0.8599,0.387498 -0.33075,0.01564 -0.21625,-2.678234 0.17656,-4.153725 0.33995,-1.276962 0.33431,-1.366573 -0.0722,-1.148988 -0.24253,0.129797 -0.66644,0.485145 -0.94202,0.789668 -1.32596,1.465167 -1.26385,-0.144815 0.10593,-2.745682 l 1.05415,-2.001579 -0.77279,0.399627 c -0.42503,0.219795 -0.8469,0.519536 -0.93748,0.666091 -0.0906,0.146556 -0.28997,0.266465 -0.44309,0.266465 -0.39784,0 -0.0277,-1.792928 0.58861,-2.850896 0.50343,-0.864254 0.50334,-0.865767 -0.0343,-0.578006 -0.2965,0.158684 -0.60438,0.458639 -0.68416,0.666565 -0.30292,0.789376 -0.65059,0.02895 -0.47328,-1.03513 0.19673,-1.180553 2.12343,-5.513431 2.99752,-6.740968 l 0.53348,-0.749211 -0.53083,-1.698365 C 142.38,32.52699 142.46091,27.1853 143.52646,25.124746 c 0.50595,-0.978405 1.63646,-1.372491 2.67934,-0.933994 1.08521,0.456299 3.76139,2.982205 4.85036,4.578003 0.85363,1.25094 0.93995,1.305698 1.66161,1.054126 0.77879,-0.27149 5.30848,-0.15369 6.02393,0.15666 0.27765,0.12044 0.67311,-0.233753 1.31641,-1.179055 1.10289,-1.62064 3.77372,-4.148997 4.86949,-4.609734 1.04288,-0.438497 2.17339,-0.04441 2.67934,0.933994 1.06555,2.060554 1.14646,7.402244 0.15991,10.558621 l -0.53083,1.698365 0.53348,0.749211 c 0.87409,1.227537 2.80079,5.560415 2.99751,6.740968 0.11466,0.688054 0.0772,1.162619 -0.10039,1.272387 -0.15579,0.09628 -0.28325,0.06266 -0.28325,-0.07471 0,-0.137374 -0.29375,-0.442243 -0.65278,-0.677487 l -0.65278,-0.427715 0.50109,0.860306 c 0.61328,1.052936 0.98171,2.844684 0.58494,2.844684 -0.15312,0 -0.35252,-0.119909 -0.4431,-0.266465 -0.0906,-0.146555 -0.51244,-0.446296 -0.93747,-0.666091 l -0.77279,-0.399627 1.05415,2.001579 c 1.36977,2.600867 1.43189,4.210849 0.10593,2.745682 -0.27558,-0.304523 -0.69402,-0.65694 -0.92985,-0.783151 -0.39077,-0.209137 -0.39726,-0.09556 -0.0732,1.281276 0.38606,1.640407 0.48448,4.029999 0.16538,4.01492 -0.10915,-0.0052 -0.4961,-0.17953 -0.8599,-0.387498 -1.15433,-0.659873 -1.5875,-0.513165 -1.5875,0.537665 0,1.975491 -1.06578,3.553048 -3.70417,5.482887 -3.52118,2.57556 -4.41343,3.914849 -5.55156,8.333094 -0.15932,0.618464 -0.38832,1.12448 -0.50889,1.12448 -0.12058,0 -0.53862,-0.48264 -0.929,-1.072534 z m 1.91841,-16.357198 c 0.28152,-0.178456 0.26376,-0.257921 -0.0878,-0.392825 -0.24238,-0.09301 -0.71888,-0.169111 -1.05888,-0.169111 -0.33999,0 -0.81649,0.0761 -1.05887,0.169111 -0.62491,0.2398 0.0221,0.616535 1.05887,0.616535 0.43657,0 0.95257,-0.100668 1.14667,-0.22371 z m 0.34847,-1.843448 c 0.98039,-0.875982 1.12962,-2.098029 0.36004,-2.948405 -0.69672,-0.769864 -3.08803,-0.754933 -3.86711,0.02416 -0.76181,0.761812 -0.50642,1.994419 0.61103,2.949001 1.08397,0.925981 1.83921,0.91953 2.89604,-0.02474 z m -5.63582,-1.099738 c -0.15219,-0.436562 -0.38412,-0.79375 -0.51541,-0.79375 -0.33776,0 -0.29931,0.190693 0.18861,0.93535 0.56649,0.864582 0.66298,0.822775 0.3268,-0.1416 z m 8.88748,-0.765355 c -0.19594,-0.195939 -0.56829,0.303147 -0.7684,1.029939 -0.17092,0.620749 -0.14902,0.613267 0.35584,-0.121537 0.29588,-0.430646 0.48154,-0.839427 0.41256,-0.908402 z m -8.05409,-9.153931 c 0,-0.634835 -0.0194,-0.642241 -0.53238,-0.203028 -0.52986,0.453685 -0.45814,0.583422 0.46624,0.843301 0.0364,0.01023 0.0661,-0.277895 0.0661,-0.640273 z m 7.35809,0.02247 c -0.21619,-0.1593 -0.46252,-0.468232 -0.5474,-0.686513 -0.0849,-0.218282 -0.16373,-0.02107 -0.17522,0.43825 -0.0182,0.727989 0.052,0.816061 0.5474,0.686515 0.48198,-0.12604 0.50859,-0.1926 0.17522,-0.43825 z m -5.03451,-1.480263 c -0.004,-0.594148 -0.0255,-0.580685 -0.20691,0.132291 -0.11109,0.436563 -0.20419,1.031875 -0.20691,1.322917 -0.004,0.414654 0.0409,0.386026 0.20691,-0.132292 0.11651,-0.363802 0.20962,-0.959114 0.20691,-1.322916 z m 2.04205,0.529166 c -0.10046,-0.457374 -0.23168,-0.78256 -0.2916,-0.722637 -0.0599,0.05992 -0.0329,0.48929 0.0601,0.954148 0.093,0.464858 0.22419,0.790045 0.2916,0.722637 0.0674,-0.06741 0.0404,-0.496774 -0.0601,-0.954148 z m -6.97599,-7.816467 c 0.51167,-0.162398 0.46946,-0.257985 -0.59106,-1.338585 -0.62815,-0.640034 -1.35837,-1.163698 -1.62271,-1.163698 -0.75749,0 -1.07769,1.205306 -0.71825,2.703623 0.16815,0.700959 0.22708,1.59979 0.13093,1.997403 -0.15129,0.625681 -0.0117,0.538178 1.03764,-0.650462 0.66684,-0.755368 1.46039,-1.452094 1.76345,-1.548281 z m 14.31876,2.13826 c -0.0685,-0.358119 0.0137,-1.227184 0.18263,-1.931257 0.36076,-1.503825 0.0418,-2.709286 -0.71689,-2.709286 -0.26434,0 -0.98584,0.51477 -1.60331,1.143934 l -1.12269,1.143934 0.6418,0.292422 c 0.35298,0.160832 1.09674,0.836686 1.65279,1.501899 0.55605,0.665213 1.02881,1.209478 1.05057,1.209478 0.0218,0 -0.0164,-0.293006 -0.0849,-0.651124 z"
           style="fill:#feeec9;stroke-width:0.26458335" />
        <path
           inkscape:connector-curvature="0"
           id="path4695"
           d="m 155.00349,70.164459 c -0.52799,-0.835472 -1.17033,-2.087435 -1.42742,-2.782144 -0.60232,-1.627553 -2.05898,-3.266564 -4.66878,-5.253231 -2.67106,-2.033307 -3.4787,-3.217037 -3.50641,-5.139229 -0.0116,-0.803529 -0.14199,-1.438826 -0.29552,-1.439717 -0.15114,-8.76e-4 -0.74186,0.236532 -1.31272,0.527573 -0.57086,0.291042 -1.08955,0.529167 -1.15265,0.529167 -0.23818,0 0.20115,-3.622717 0.56871,-4.68956 0.35014,-1.016278 0.34617,-1.093287 -0.0454,-0.882091 -0.23596,0.127267 -0.71766,0.539985 -1.07044,0.917149 -0.35279,0.377163 -0.753,0.685752 -0.88935,0.685752 -0.46588,0 0.10527,-1.975379 1.01911,-3.524692 0.4997,-0.847175 0.90854,-1.591315 0.90854,-1.653646 0,-0.293473 -0.56135,-0.05208 -1.27466,0.54813 -0.43236,0.363802 -0.86767,0.661458 -0.96737,0.661458 -0.28127,0 0.13323,-1.607775 0.70631,-2.739639 0.51842,-1.023903 0.35243,-1.080286 -0.64871,-0.22035 -0.25555,0.219509 -0.53127,0.332478 -0.6127,0.251047 -0.40711,-0.407109 1.32685,-4.893735 2.85925,-7.398318 l 0.76096,-1.243717 -0.53853,-1.743566 c -0.77172,-2.498531 -0.93337,-5.373947 -0.45189,-8.038238 0.46195,-2.556239 1.09483,-3.47357 2.39628,-3.473303 1.13102,2.31e-4 3.50245,1.918116 5.23594,4.234543 1.15624,1.545067 1.472,1.816611 1.92038,1.65147 0.69774,-0.25698 4.50106,-0.255033 5.70955,0.0029 0.92005,0.196388 0.96499,0.166104 2.15963,-1.455208 1.37448,-1.865388 2.25581,-2.745488 3.75071,-3.745484 2.20537,-1.47525 3.41395,-0.640645 4.03303,2.78506 0.48148,2.664291 0.31983,5.539707 -0.45189,8.038237 l -0.53853,1.743566 0.76095,1.243718 c 1.53241,2.504583 3.26637,6.991209 2.85926,7.398318 -0.0814,0.08143 -0.35715,-0.03154 -0.6127,-0.251048 -1.00114,-0.859935 -1.16713,-0.803552 -0.64871,0.220351 0.57308,1.131863 0.98758,2.739638 0.70631,2.739638 -0.0997,0 -0.53501,-0.297656 -0.96737,-0.661458 -0.75355,-0.634069 -1.27466,-0.839669 -1.27466,-0.502902 0,0.08721 0.40982,0.831347 0.91071,1.653646 0.90959,1.493232 1.4901,3.479464 1.01693,3.479464 -0.13634,0 -0.53655,-0.308589 -0.88934,-0.685752 -0.35278,-0.377164 -0.83448,-0.789882 -1.07044,-0.917149 -0.39155,-0.211196 -0.39552,-0.134187 -0.0454,0.882091 0.36756,1.066843 0.80689,4.68956 0.56871,4.68956 -0.0631,0 -0.58179,-0.238125 -1.15265,-0.529167 -0.57086,-0.291041 -1.16158,-0.528449 -1.31272,-0.527573 -0.15353,7.93e-4 -0.28393,0.636188 -0.29552,1.439717 -0.0276,1.917755 -0.83507,3.105711 -3.47865,5.118097 -3.57491,2.721346 -4.47523,3.998849 -5.49296,7.794239 -0.26339,0.982266 -0.55052,1.784895 -0.63807,1.783622 -0.0875,-0.0013 -0.59116,-0.685882 -1.11915,-1.521354 z m 1.99516,-15.834262 c 0.73507,-0.282075 0.16065,-0.633736 -1.03518,-0.633736 -1.10632,0 -1.63602,0.260157 -1.27162,0.624555 0.21438,0.214384 1.75606,0.220519 2.3068,0.0092 z m 2.91943,-2.050185 c 0.91458,-1.377873 1.15016,-2.023134 0.73863,-2.023134 -0.11086,0 -0.56307,0.773906 -1.00491,1.719792 -0.44184,0.945885 -0.77422,1.719791 -0.73862,1.719791 0.0356,0 0.4878,-0.637402 1.0049,-1.416449 z m -1.90375,-0.470072 c 1.2145,-1.629505 -0.40402,-3.398253 -2.74736,-3.002349 -2.3268,0.39311 -2.40791,2.731691 -0.14252,4.109358 0.78007,0.474392 0.8559,0.476459 1.59511,0.04348 0.42686,-0.250026 1.0095,-0.767745 1.29477,-1.150489 z m -6.17659,-0.716407 c -0.29024,-0.832586 -0.76906,-1.143048 -0.76906,-0.498652 0,0.39417 0.79725,1.598781 0.95423,1.441804 0.0586,-0.05858 -0.0247,-0.482994 -0.18517,-0.943152 z m 3.02676,-11.983549 c -0.14998,-0.332634 -0.23519,0.137156 -0.258,1.422515 l -0.0341,1.91917 0.258,-1.422514 c 0.14502,-0.799539 0.15993,-1.64002 0.0341,-1.919171 z m -2.48618,1.209019 c -0.17385,-0.209481 -0.50988,-0.373328 -0.74672,-0.364104 -0.28113,0.01095 -0.21626,0.102688 0.18685,0.264254 0.73606,0.295015 0.63288,0.875256 -0.17682,0.994362 -0.40049,0.05891 -0.64313,-0.09609 -0.7956,-0.508256 -0.12065,-0.326161 -0.29484,-0.470908 -0.38708,-0.32166 -0.20986,0.339565 0.82708,1.32029 1.53577,1.452514 0.63053,0.117641 0.88969,-0.90731 0.3836,-1.51711 z m 8.75966,0.793643 0.58609,-0.623865 -0.71803,-0.327158 c -0.93811,-0.42743 -1.57631,-0.03845 -1.68336,1.025988 -0.0727,0.722746 -0.0177,0.787263 0.57442,0.674072 0.36013,-0.06884 0.91853,-0.405911 1.24088,-0.749037 z m -1.48459,-0.139239 c -0.0978,-0.1582 -0.0403,-0.425095 0.1277,-0.593101 0.23089,-0.230896 0.36637,-0.209121 0.55498,0.0892 0.21303,0.336966 0.2501,0.338577 0.25356,0.01102 0.003,-0.281704 0.0823,-0.305405 0.2985,-0.0892 0.38454,0.384539 0.0727,0.86972 -0.55903,0.86972 -0.27387,0 -0.57793,-0.129436 -0.67571,-0.287637 z m -2.42242,0.0892 c -0.10879,-0.400182 -0.18689,-1.070634 -0.17355,-1.489892 0.0194,-0.609839 -0.0256,-0.673207 -0.22503,-0.316854 -0.29061,0.519283 -0.0123,2.53435 0.35001,2.53435 0.14032,0 0.16123,-0.313172 0.0486,-0.727604 z m -7.04488,-8.379567 c 0.5331,-0.162456 0.48555,-0.255937 -0.68889,-1.354497 -0.69384,-0.649 -1.45334,-1.179999 -1.68779,-1.179999 -0.71466,0 -1.03666,0.972189 -0.81823,2.470465 0.10953,0.751296 0.16924,1.723181 0.13269,2.159743 -0.0661,0.789396 -0.0594,0.786303 1.21157,-0.563732 0.70292,-0.746615 1.53571,-1.436006 1.85065,-1.53198 z m 14.2969,2.029567 c -0.0776,-0.400183 -0.012,-1.291203 0.14589,-1.980046 0.3317,-1.447407 -0.0186,-2.590766 -0.78838,-2.573512 -0.25778,0.0058 -1.0312,0.528376 -1.7187,1.161328 l -1.25001,1.150821 0.77856,0.322489 c 0.4282,0.177368 1.20704,0.845396 1.73074,1.484506 0.5237,0.63911 1.01763,1.162018 1.09761,1.162018 0.08,0 0.0819,-0.327422 0.004,-0.727604 z"
           style="fill:#fddf97;stroke-width:0.26458335" />
        <path
           inkscape:connector-curvature="0"
           id="path4693"
           d="m 155.35073,70.695941 c -0.28406,-0.400182 -1.06629,-1.882095 -1.73828,-3.293139 -1.2865,-2.701407 -1.31183,-2.728677 -5.55933,-5.986127 -1.80618,-1.385176 -2.54069,-2.705693 -2.54069,-4.567745 v -1.366531 l -0.84253,0.168508 c -0.4634,0.09268 -1.03832,0.345686 -1.27761,0.562239 -0.23928,0.216551 -0.53143,0.393732 -0.64921,0.393732 -0.29014,0 0.0456,-3.096609 0.49914,-4.603575 0.20149,-0.669491 0.2772,-1.217258 0.16824,-1.217258 -0.10896,0 -0.64024,0.429403 -1.18064,0.95423 -0.5404,0.524825 -1.04274,0.89403 -1.11631,0.820457 -0.26689,-0.266893 0.43901,-2.217362 1.35003,-3.730257 0.51272,-0.851469 0.93223,-1.596287 0.93223,-1.655154 0,-0.208084 -1.49857,0.671227 -1.83519,1.076822 -0.18779,0.226275 -0.44043,0.350232 -0.56141,0.275458 -0.26112,-0.161383 0.35968,-2.359414 0.82461,-2.919619 0.55854,-0.673007 0.0155,-0.764141 -0.67697,-0.113604 -0.36266,0.340696 -0.71499,0.563832 -0.78296,0.495858 -0.30278,-0.302779 0.7463,-3.255718 2.11386,-5.950067 l 1.49258,-2.940668 -0.39788,-1.171928 c -0.74043,-2.180886 -1.00437,-5.140805 -0.67867,-7.610956 0.41674,-3.160724 1.07757,-4.25349 2.57219,-4.25349 0.90186,0 3.61825,2.251382 5.0669,4.199521 1.27266,1.71148 1.45909,1.861619 2.09102,1.684012 0.91152,-0.256183 3.81825,-0.249048 5.34657,0.01312 l 1.2132,0.208115 1.40699,-1.892127 c 1.45689,-1.959209 4.1725,-4.212644 5.07666,-4.212644 1.49463,0 2.15545,1.092766 2.57219,4.25349 0.32535,2.467522 0.0619,5.429745 -0.67636,7.604161 l -0.39558,1.165132 1.4825,2.947463 c 1.36778,2.719376 2.41457,5.661622 2.11933,5.956863 -0.068,0.06797 -0.4203,-0.155162 -0.78296,-0.495858 -0.69246,-0.650537 -1.23551,-0.559403 -0.67697,0.113604 0.46493,0.560205 1.08573,2.758236 0.82461,2.919619 -0.12098,0.07477 -0.37362,-0.04918 -0.56141,-0.275458 -0.33662,-0.405595 -1.83519,-1.284906 -1.83519,-1.076822 0,0.05887 0.41951,0.803685 0.93223,1.655154 0.91102,1.512895 1.61692,3.463364 1.35003,3.730257 -0.0736,0.07357 -0.57591,-0.295632 -1.11631,-0.820457 -0.5404,-0.524827 -1.07168,-0.95423 -1.18064,-0.95423 -0.10896,0 -0.0332,0.547767 0.16824,1.217258 0.45353,1.506966 0.78927,4.603575 0.49914,4.603575 -0.11778,0 -0.40993,-0.177181 -0.64922,-0.393732 -0.23928,-0.216553 -0.81421,-0.469561 -1.2776,-0.562239 l -0.84253,-0.168508 -0.004,1.422135 c -0.006,2.093654 -0.73332,3.141946 -3.83211,5.526321 -3.07535,2.366351 -3.84669,3.434509 -4.82203,6.677586 -0.38294,1.273307 -0.78598,2.315104 -0.89566,2.315104 -0.10967,0 -0.43181,-0.327422 -0.71588,-0.727604 z m 1.61877,-15.372747 c 0.27893,-0.110059 -0.16037,-0.19662 -1.05833,-0.208539 -1.00163,-0.01331 -1.35128,0.0521 -1.00603,0.188158 0.65718,0.258987 1.44006,0.266716 2.06436,0.02037 z m 0.67248,-1.130022 c 0.6385,-0.183764 1.34408,-0.610193 1.5875,-0.959435 0.24099,-0.34576 0.70605,-0.96583 1.03347,-1.377932 0.32743,-0.412099 0.59532,-0.950367 0.59532,-1.196149 0,-0.827228 -0.58604,-0.260472 -1.08219,1.04658 -0.71672,1.888131 -1.02819,2.101282 -2.95271,2.020692 -0.72398,-0.03032 -1.06271,-0.559633 -0.35814,-0.559633 0.56627,0 2.01179,-1.791592 2.01179,-2.493436 0,-0.342617 -0.22761,-0.904021 -0.50579,-1.247566 -0.42027,-0.519007 -0.75111,-0.624623 -1.9566,-0.624623 -1.70442,0 -2.5647,0.587533 -2.5647,1.751592 0,0.811413 1.38732,2.614033 2.01179,2.614033 0.73584,0 0.34812,0.472292 -0.49043,0.597397 -1.4439,0.215416 -2.02808,-0.189 -2.77561,-1.921489 -0.65488,-1.517764 -1.127,-2.021596 -1.127,-1.202714 0,0.428901 1.44365,2.663984 1.92667,2.982913 0.62675,0.413829 2.71485,1.082495 3.10042,0.992836 0.21828,-0.05076 0.91407,-0.241139 1.54621,-0.423066 z m -2.53057,-13.896103 c 0.0835,-0.135082 -0.0796,-0.717589 -0.36233,-1.29446 -0.28277,-0.576871 -0.43912,-0.810731 -0.34745,-0.51969 0.39827,1.264466 0.41555,1.477199 0.17669,2.174657 -0.13858,0.404668 -0.18709,1.21201 -0.10778,1.794093 l 0.1442,1.058334 0.17244,-1.483666 c 0.0948,-0.816016 0.24074,-1.594187 0.32423,-1.729268 z m 2.17655,-0.05083 c 8.7e-4,-0.969827 0.0917,-2.001447 0.20181,-2.292488 0.11013,-0.291042 -0.0436,-0.02386 -0.34162,0.593732 -0.42974,0.890539 -0.50526,1.398805 -0.36499,2.456234 0.23888,1.800756 0.50288,1.404617 0.5048,-0.757478 z m -4.63178,1.168734 c 0,-1.424632 -0.66854,-1.845675 -1.89143,-1.191207 -0.51871,0.277609 -0.52008,0.300804 -0.0487,0.824978 0.44267,0.492293 1.24354,0.947171 1.74175,0.989277 0.10914,0.0092 0.19843,-0.271147 0.19843,-0.623048 z m -1.72469,-0.426437 c -0.10291,-0.166522 -0.0546,-0.435269 0.10733,-0.597214 0.21621,-0.216206 0.29445,-0.21008 0.29445,0.02305 0,0.174625 0.12609,0.3175 0.28019,0.3175 0.15411,0 0.20746,-0.117699 0.11855,-0.261553 -0.0936,-0.151473 0.0159,-0.193431 0.26016,-0.09969 0.23199,0.08902 0.37767,0.296018 0.32374,0.45999 -0.13543,0.411771 -1.1556,0.528139 -1.38442,0.157916 z m 10.15832,0.140065 0.62842,-0.607255 -0.57592,-0.308224 c -0.31676,-0.169523 -0.83767,-0.270982 -1.15759,-0.225464 -0.46563,0.06625 -0.59832,0.285348 -0.66517,1.098287 -0.0783,0.952089 -0.0452,1.004108 0.52917,0.83272 0.33697,-0.100545 0.89546,-0.456073 1.24109,-0.790064 z m -1.37807,-0.04395 c -0.34687,-0.34687 -0.16731,-0.565447 0.35278,-0.42944 0.33129,0.08664 0.52916,0.0081 0.52916,-0.209979 0,-0.255793 0.0782,-0.270118 0.29445,-0.05391 0.16194,0.161945 0.21445,0.423883 0.11668,0.582083 -0.1963,0.317612 -1.01617,0.388149 -1.29307,0.111248 z m -5.82199,-5.446007 c -0.0734,-0.181901 -0.13346,-0.03307 -0.13346,0.33073 0,0.363802 0.0601,0.51263 0.13346,0.330729 0.0734,-0.181901 0.0734,-0.479558 0,-0.661459 z m 3.96874,0 c -0.0734,-0.181901 -0.13345,-0.03307 -0.13345,0.33073 0,0.363802 0.0601,0.51263 0.13345,0.330729 0.0734,-0.181901 0.0734,-0.479558 0,-0.661459 z m -7.94576,-2.756527 0.82843,-0.493493 -1.46426,-1.270615 c -1.44173,-1.251075 -1.47203,-1.262836 -1.97008,-0.764784 -0.45415,0.45415 -0.48639,0.745444 -0.31554,2.851069 l 0.19029,2.345238 0.95137,-1.086961 c 0.52325,-0.597828 1.32416,-1.309032 1.77979,-1.580454 z m 14.76165,0.281544 c 0.15707,-1.935792 0.11793,-2.350348 -0.2615,-2.769611 -0.54326,-0.600292 -1.02266,-0.396212 -2.47059,1.051715 l -0.99258,0.992586 0.96523,0.555521 c 0.53089,0.305537 1.25445,0.980141 1.60793,1.49912 0.35348,0.51898 0.71561,0.944413 0.80474,0.945407 0.0891,0.001 0.24518,-1.022638 0.34677,-2.274738 z"
           style="fill:#fdd36f;stroke-width:0.26458335" />
        <path
           inkscape:connector-curvature="0"
           id="path4691"
           d="m 155.22142,70.395874 c -0.37404,-0.565221 -1.03836,-1.817854 -1.47627,-2.783628 -1.1545,-2.546194 -1.63087,-3.108685 -4.48653,-5.297599 -3.00405,-2.302661 -3.74619,-3.381563 -3.74619,-5.446136 v -1.386112 l -0.84253,0.168508 c -0.4634,0.09268 -1.05623,0.361892 -1.3174,0.598254 -0.43062,0.389705 -0.48982,0.390785 -0.63534,0.01156 -0.19792,-0.515792 0.32578,-4.021672 0.70722,-4.734407 0.15336,-0.28656 0.21291,-0.586954 0.13232,-0.667546 -0.19398,-0.193964 -2.01302,1.201118 -2.01302,1.543854 0,0.146704 -0.10666,0.200808 -0.23703,0.120235 -0.48099,-0.297265 0.38723,-2.704381 1.59551,-4.423493 0.27148,-0.386265 0.49361,-0.762074 0.49361,-0.835125 0,-0.308533 -1.09725,0.189891 -1.75021,0.795033 l -0.70674,0.654987 0.15041,-1.121389 c 0.0827,-0.616765 0.4079,-1.469663 0.72261,-1.895327 0.75365,-1.019368 0.52653,-1.186175 -0.47157,-0.346334 -0.43946,0.369784 -0.86039,0.672332 -0.93539,0.672332 -0.40304,0 0.71859,-3.235429 2.04833,-5.908553 l 1.52286,-3.061349 -0.42156,-1.269737 c -0.96121,-2.895195 -1.01569,-7.25627 -0.12574,-10.066311 0.30723,-0.97008 1.12794,-1.654467 1.98403,-1.654467 0.92309,0 3.55071,2.17352 5.10275,4.2209 1.37093,1.808471 1.4657,1.879176 2.24896,1.677838 1.04674,-0.269068 3.64454,-0.269906 5.20858,-0.0017 l 1.21587,0.208515 1.42997,-1.886353 c 1.55094,-2.045925 4.17866,-4.219207 5.10147,-4.219207 0.85609,0 1.6768,0.684387 1.98403,1.654467 0.88995,2.810041 0.83547,7.171116 -0.12574,10.066311 l -0.42156,1.269737 1.52286,3.061349 c 1.32973,2.673124 2.45137,5.908553 2.04834,5.908553 -0.075,0 -0.49594,-0.302548 -0.9354,-0.672332 -0.9981,-0.839841 -1.22522,-0.673034 -0.47157,0.346334 0.31471,0.425664 0.63988,1.278562 0.72261,1.895327 l 0.15041,1.121389 -0.70674,-0.654987 c -0.65296,-0.605142 -1.75021,-1.103566 -1.75021,-0.795033 0,0.07305 0.22213,0.44886 0.49361,0.835125 1.20828,1.719112 2.0765,4.126228 1.59551,4.423493 -0.13037,0.08057 -0.23703,0.02647 -0.23703,-0.120235 0,-0.342736 -1.81904,-1.737818 -2.01302,-1.543846 -0.0806,0.08059 -0.0211,0.380986 0.13232,0.667546 0.38144,0.712735 0.90515,4.218615 0.70722,4.734407 -0.14552,0.379214 -0.20472,0.378134 -0.63534,-0.01156 -0.26118,-0.236362 -0.85401,-0.505576 -1.3174,-0.598254 l -0.84253,-0.168516 v 1.386112 c 0,2.064573 -0.74214,3.143475 -3.74619,5.446136 -3.34318,2.562609 -4.26611,3.883991 -5.13848,7.356925 -0.24205,0.963586 -0.52885,1.751973 -0.63734,1.751973 -0.10849,0 -0.50329,-0.462452 -0.87734,-1.027671 z m 2.08055,-15.240569 c 0.47293,-0.362111 0.44891,-0.371716 -0.30348,-0.121338 -0.54003,0.179708 -1.20129,0.185576 -1.95021,0.0173 -0.62322,-0.140031 -1.02945,-0.156517 -0.90272,-0.03664 0.6054,0.57268 2.4829,0.656352 3.15641,0.140668 z m 0.063,-0.856943 c 1.21452,-0.382844 1.61285,-0.679622 2.47065,-1.840786 1.01333,-1.371687 1.32942,-2.346859 0.69196,-2.134748 -0.1819,0.06053 -0.50933,0.585978 -0.72761,1.167667 -0.76301,2.033315 -1.13593,2.313509 -2.97656,2.236433 -0.72852,-0.03051 -1.06046,-0.559633 -0.35108,-0.559633 0.67466,0 2.00473,-1.573935 2.00473,-2.372292 0,-1.489022 -1.73028,-2.479188 -3.53901,-2.025224 -2.09305,0.52532 -1.94758,3.109146 0.2441,4.335669 0.69046,0.386403 0.36302,0.64393 -0.81873,0.64393 -1.18367,0 -1.57365,-0.360127 -2.21251,-2.043142 -0.48537,-1.278646 -1.08219,-1.87856 -1.08219,-1.087797 0,0.445738 1.43107,2.677732 1.92667,3.004963 0.26278,0.173508 2.47562,1.047517 2.81258,1.110888 0.06,0.01127 0.76062,-0.184889 1.557,-0.435928 z m -3.50541,-8.563989 c 0.23275,-0.450085 0.37621,-0.865309 0.3188,-0.922718 -0.0574,-0.05741 -0.30239,0.31084 -0.54439,0.818338 -0.54414,1.141068 -0.35561,1.228299 0.22559,0.10438 z m 4.11915,-0.413467 c -0.29513,-0.559435 -0.54186,-0.931897 -0.54829,-0.827693 -0.0188,0.30425 0.86654,2.063208 0.98089,1.948852 0.0572,-0.0572 -0.13747,-0.561721 -0.4326,-1.121159 z m -3.22442,-2.918158 c 0.0102,-0.60899 0.12731,-1.393175 0.26017,-1.742634 0.17661,-0.464517 0.10546,-0.939391 -0.26458,-1.765909 -0.27839,-0.621792 -0.51556,-1.325888 -0.52704,-1.564658 -0.0139,-0.288393 -0.0667,-0.320046 -0.15738,-0.09429 -0.0751,0.18691 0.0574,0.824514 0.29447,1.416897 0.23702,0.592384 0.35846,1.305471 0.26985,1.584639 -0.23937,0.754197 -0.3305,4.38798 -0.095,3.786301 0.11048,-0.2822 0.20924,-1.011355 0.21946,-1.620345 z m 2.58059,1.189937 c -0.0845,-0.211067 -0.14716,-0.148372 -0.15985,0.159853 -0.0115,0.278914 0.051,0.435184 0.13896,0.347265 0.0879,-0.08792 0.0973,-0.316122 0.0209,-0.507118 z m -0.0479,-3.214953 c 2.9e-4,-1.042147 0.0966,-2.132938 0.21398,-2.423979 0.1174,-0.291042 -0.037,-0.07778 -0.34317,0.473908 -0.46808,0.843533 -0.52808,1.255257 -0.37723,2.588601 0.23585,2.084658 0.50576,1.744347 0.50642,-0.63853 z m -4.85751,-0.243041 c -0.29065,-0.290652 -2.15448,-0.03245 -2.15448,0.298472 0,0.261073 1.02384,1.195178 1.71979,1.569062 0.47858,0.257105 0.53722,0.19399 0.61337,-0.660191 0.0463,-0.51946 -0.0341,-1.062764 -0.17868,-1.207343 z m -1.49792,0.853847 c -0.10291,-0.166522 -0.0546,-0.435269 0.10733,-0.597214 0.21621,-0.216206 0.29445,-0.201881 0.29445,0.05391 0,0.22132 0.19848,0.296454 0.54427,0.206028 0.3459,-0.09045 0.50711,-0.02938 0.4423,0.167579 -0.13852,0.420938 -1.15619,0.545327 -1.38835,0.169695 z m 10.28008,0.05607 c 0.47102,-0.520466 0.4688,-0.543518 -0.0804,-0.837452 -0.31062,-0.166239 -0.82651,-0.265012 -1.14643,-0.219494 -0.48058,0.06838 -0.59593,0.280781 -0.66376,1.22228 l -0.0821,1.139521 0.74418,-0.384829 c 0.40929,-0.211656 0.96213,-0.625668 1.22852,-0.920026 z m -1.49983,0.04005 c -0.34687,-0.34687 -0.16731,-0.565447 0.35278,-0.42944 0.33129,0.08664 0.52916,0.0081 0.52916,-0.209979 0,-0.255793 0.0782,-0.270118 0.29445,-0.05391 0.16194,0.161945 0.21445,0.423883 0.11668,0.582083 -0.1963,0.317612 -1.01617,0.388149 -1.29307,0.111248 z m -1.83896,-5.842882 c -0.0606,-0.400182 -0.11023,-0.07276 -0.11023,0.727605 0,0.800364 0.0496,1.127786 0.11023,0.727604 0.0606,-0.400183 0.0606,-1.055026 0,-1.455209 z m -3.97588,0.264584 c -0.0665,-0.254662 -0.121,-0.0463 -0.121,0.463021 0,0.509322 0.0545,0.717682 0.121,0.46302 0.0666,-0.254661 0.0666,-0.67138 0,-0.926041 z m -3.66317,-2.746611 c 0.66007,-0.250958 0.65998,-0.251148 -0.73773,-1.563387 -0.76883,-0.721819 -1.49491,-1.312398 -1.61349,-1.312398 -0.11859,0 -0.41726,0.201649 -0.66372,0.44811 -0.36361,0.363607 -0.41707,0.745134 -0.28348,2.023187 0.0905,0.866292 0.16462,1.987207 0.16462,2.490922 v 0.915845 l 1.23683,-1.375645 c 0.68025,-0.756606 1.53389,-1.488591 1.89697,-1.626634 z m 14.44452,0.40131 c 0.15494,-2.043158 0.11677,-2.477549 -0.24996,-2.844271 -0.63492,-0.634921 -0.82439,-0.562922 -2.31198,0.878529 l -1.35332,1.311353 0.67888,0.25811 c 0.37339,0.141961 1.19399,0.856119 1.82358,1.587017 0.62957,0.730899 1.16387,1.304562 1.18731,1.274808 0.0234,-0.02976 0.12491,-1.13925 0.22549,-2.465546 z m -10.19263,0.29478 c 0.008,-0.145521 -0.10087,-0.08599 -0.24194,0.132291 -0.14106,0.218282 -0.24993,0.575469 -0.24193,0.79375 0.0154,0.419061 0.45632,-0.424861 0.48387,-0.926041 z"
           style="fill:#fdca52;stroke-width:0.26458335" />
        <path
           inkscape:connector-curvature="0"
           id="path4689"
           d="m 155.23288,70.413181 c -0.36775,-0.555699 -0.93992,-1.657027 -1.2715,-2.447396 -1.17165,-2.792831 -1.6623,-3.344286 -5.86916,-6.596407 -1.77165,-1.369573 -2.39761,-2.422938 -2.53035,-4.258064 -0.10196,-1.40965 -0.17124,-1.562769 -0.70701,-1.562769 -0.32669,0 -0.90769,0.246766 -1.29112,0.54837 l -0.69714,0.54837 0.006,-1.540558 c 0.006,-1.472049 0.24042,-2.856058 0.65296,-3.855662 0.30621,-0.741947 -0.27294,-0.542308 -1.33641,0.460677 l -0.9794,0.923695 0.14508,-1.081717 c 0.0798,-0.594945 0.57159,-1.772695 1.09286,-2.617222 0.52127,-0.844529 0.94777,-1.603118 0.94777,-1.685758 0,-0.226637 -0.83498,0.120737 -1.65365,0.687959 l -0.7276,0.504129 0.003,-0.61333 c 0.002,-0.337331 0.3022,-1.136402 0.66765,-1.775715 0.36546,-0.639312 0.6171,-1.209751 0.55921,-1.267645 -0.0579,-0.05789 -0.49469,0.222422 -0.97065,0.622919 l -0.86539,0.728176 0.19673,-1.311899 c 0.17744,-1.183283 2.14951,-5.600378 3.11713,-6.981851 0.3414,-0.487418 0.32579,-0.721422 -0.1381,-2.070707 -1.11159,-3.233181 -0.82123,-9.776066 0.49211,-11.089413 0.34003,-0.34003 0.84821,-0.618236 1.12928,-0.618236 1.06556,0 3.70995,2.116147 5.28022,4.225442 1.31109,1.761134 1.61167,2.029786 2.01716,1.802865 0.56057,-0.313714 4.69584,-0.308026 5.84056,0.008 0.76066,0.210017 0.85422,0.136136 2.3185,-1.830785 1.55571,-2.08974 4.20474,-4.205554 5.26542,-4.205554 0.28107,0 0.78925,0.278206 1.12928,0.618236 1.31334,1.313347 1.6037,7.856232 0.49211,11.089413 -0.46389,1.349285 -0.4795,1.583289 -0.1381,2.070707 0.96762,1.381473 2.93969,5.798568 3.11713,6.981851 l 0.19673,1.311899 -0.86539,-0.728176 c -0.47596,-0.400497 -0.91275,-0.68081 -0.97065,-0.622919 -0.0579,0.05789 0.19375,0.628333 0.55921,1.267645 0.36545,0.639313 0.66589,1.438384 0.66764,1.775715 l 0.003,0.61333 -0.72761,-0.504129 c -0.81866,-0.567222 -1.65364,-0.914596 -1.65364,-0.687959 0,0.08264 0.42649,0.841229 0.94776,1.685758 0.52128,0.844527 1.01306,2.022277 1.09286,2.617222 l 0.14509,1.081717 -0.9794,-0.923695 c -1.06348,-1.002985 -1.64263,-1.202624 -1.33642,-0.460677 0.41255,0.999604 0.64693,2.383613 0.65296,3.855662 l 0.006,1.540558 -0.69714,-0.54837 c -0.38345,-0.301604 -0.96445,-0.54837 -1.29114,-0.54837 -0.53578,0 -0.60505,0.153119 -0.70701,1.562769 -0.13275,1.835126 -0.7587,2.888491 -2.53035,4.258064 -3.27573,2.532317 -3.96626,3.164703 -4.74005,4.340982 -0.46065,0.700254 -1.11319,2.272189 -1.45009,3.493188 -0.33691,1.220999 -0.68833,2.219997 -0.78095,2.219997 -0.0926,0 -0.46927,-0.454662 -0.83701,-1.010364 z m 2.10226,-15.204742 c 0.49472,-0.27509 0.29475,-0.321353 -1.38906,-0.321353 -1.08184,0 -1.96698,0.0336 -1.96698,0.07467 0,0.04107 0.26789,0.182351 0.59531,0.31396 0.84386,0.339191 2.0841,0.308967 2.76073,-0.06728 z m 0.0815,-0.875139 c 0.65369,-0.227584 1.34149,-0.540737 1.52844,-0.695888 0.55988,-0.464656 1.91323,-2.584575 1.91323,-2.996923 0,-0.865605 -0.57046,-0.280934 -1.30369,1.336181 -0.77103,1.700453 -0.7917,1.719791 -1.83911,1.719791 -1.16442,0 -1.66632,-0.394734 -0.8367,-0.658047 0.81338,-0.258157 1.59825,-1.43731 1.59825,-2.401139 0,-1.338093 -1.05918,-2.052386 -2.82824,-1.907321 -1.75099,0.143587 -2.19885,0.520396 -2.19885,1.850041 0,0.835774 0.16895,1.209895 0.82173,1.819688 0.45196,0.422188 0.93523,0.767612 1.07395,0.767612 0.13872,0 0.17864,0.119062 0.0887,0.264583 -0.0899,0.145521 -0.61905,0.264583 -1.17581,0.264583 -1.11269,0 -1.6181,-0.524274 -2.24163,-2.325293 -0.35809,-1.034304 -0.949,-1.45451 -0.94685,-0.673317 0.003,0.943809 1.91929,3.08981 3.18002,3.560461 1.51929,0.567177 1.73797,0.572355 3.16656,0.07499 z m -4.57329,-6.25615 c -0.0633,-0.329117 -0.11747,-0.122147 -0.1204,0.459936 -0.003,0.582084 0.0488,0.851363 0.11506,0.598398 0.0662,-0.252966 0.0686,-0.729216 0.005,-1.058334 z m 6.12299,-0.358708 c -0.15652,-0.568392 -0.55189,-1.56922 -0.8786,-2.224064 -0.81715,-1.637888 -1.10715,-5.870013 -0.50155,-7.31942 0.47537,-1.137709 0.40509,-4.120103 -0.1092,-4.634393 -0.24177,-0.24177 -0.25406,-0.105955 -0.0536,0.592829 0.41411,1.443932 0.28662,2.915549 -0.38811,4.479785 -0.34475,0.799246 -0.5659,1.551755 -0.49143,1.672241 0.0745,0.120486 0.2355,1.01633 0.35785,1.990765 0.12939,1.030436 0.57191,2.518457 1.05768,3.556526 0.46321,0.989841 0.83523,2.219071 0.83523,2.759747 0,0.685078 0.0678,0.853694 0.22818,0.567169 0.13294,-0.237548 0.1094,-0.839123 -0.0564,-1.441185 z m -4.19297,-5.207153 c 0.11668,-0.905916 0.29166,-1.843895 0.38885,-2.084398 0.0977,-0.24172 -0.0955,-1.070002 -0.43198,-1.852083 -0.62854,-1.461001 -0.76112,-2.851823 -0.4249,-4.457514 0.13856,-0.661744 0.11898,-0.799354 -0.0686,-0.482155 -0.52539,0.888475 -0.60291,2.802846 -0.16741,4.134311 0.67753,2.071439 0.46678,5.857633 -0.43546,7.823046 -0.9695,2.111928 -0.86596,2.293789 0.12871,0.226084 0.43925,-0.913093 0.8941,-2.401376 1.01078,-3.307291 z m -2.07795,-1.514828 c -0.16094,-0.783693 -0.31075,-0.936637 -0.97458,-0.994971 -0.43142,-0.03791 -0.94906,0.03843 -1.15031,0.169644 -0.3073,0.200366 -0.29765,0.336014 0.0603,0.847035 0.45974,0.656376 1.77913,1.336118 2.07394,1.068488 0.0995,-0.09029 0.0952,-0.580873 -0.009,-1.090196 z m -1.71913,-0.123818 c -0.082,-0.213621 -0.0477,-0.451063 0.0763,-0.527647 0.12392,-0.07659 0.29872,0.05207 0.38845,0.285908 0.13326,0.34726 0.2364,0.364363 0.56295,0.09335 0.33305,-0.276407 0.37198,-0.259294 0.23315,0.102493 -0.20698,0.539388 -1.05953,0.570423 -1.26081,0.0459 z m 10.38852,0.06179 c 0.42404,-0.678997 -0.0127,-1.034091 -1.14759,-0.932946 -0.58133,0.05181 -0.8339,0.251772 -1.01714,0.805262 -0.13408,0.404983 -0.17679,0.910876 -0.0949,1.124208 0.12937,0.337124 0.26495,0.332506 1.03624,-0.03529 0.48806,-0.232743 1.0386,-0.665296 1.22342,-0.96123 z m -1.65303,0.150219 c -0.35647,-0.356467 -0.16371,-0.67163 0.21735,-0.355376 0.3188,0.264581 0.4248,0.245857 0.5569,-0.09837 0.0897,-0.233835 0.26453,-0.362493 0.38845,-0.285908 0.36564,0.225978 -0.0333,0.916048 -0.52955,0.916048 -0.25122,0 -0.53614,-0.07937 -0.63315,-0.176389 z m -11.46402,-6.570513 c 0.54739,-0.654858 1.36194,-1.380266 1.81009,-1.612016 l 0.81483,-0.421365 -1.33995,-1.2984 c -0.73698,-0.71412 -1.53205,-1.2984 -1.76684,-1.2984 -0.69332,0 -1.16418,1.476678 -0.87574,2.746438 0.13618,0.599511 0.20619,1.536505 0.15558,2.082208 -0.0506,0.545703 -0.0248,0.992187 0.0574,0.992187 0.0822,0 0.59727,-0.535793 1.14466,-1.190652 z m 16.34545,-4.006929 c -0.4191,-0.919821 -0.97393,-0.77062 -2.48122,0.667239 l -1.35281,1.290491 0.83012,0.429274 c 0.45657,0.2361 1.28254,0.971715 1.8355,1.634698 l 1.00538,1.205425 0.2235,-2.301938 c 0.14957,-1.540483 0.12956,-2.508102 -0.0605,-2.925189 z"
           style="fill:#fdc237;stroke-width:0.26458335" />
        <path
           inkscape:connector-curvature="0"
           id="path4687"
           d="m 155.10967,70.032623 c -0.45708,-0.762961 -1.11783,-2.042047 -1.46833,-2.842411 -0.8299,-1.895097 -1.68035,-2.872804 -4.13161,-4.749845 -3.36919,-2.579947 -3.9973,-3.478493 -3.9973,-5.718422 0,-1.006488 -0.0771,-1.1734 -0.5423,-1.1734 -0.29827,0 -0.89358,0.181652 -1.32292,0.403669 l -0.78061,0.40367 0.009,-1.528149 c 0.005,-0.840481 0.22226,-2.146385 0.48336,-2.902006 l 0.47472,-1.373857 -0.5495,0.281705 c -0.30223,0.15494 -0.89319,0.594582 -1.31325,0.976985 l -0.76374,0.695274 0.15271,-0.997852 c 0.084,-0.54882 0.5765,-1.69549 1.09447,-2.548152 1.30723,-2.151928 1.22009,-2.375826 -0.47653,-1.22447 -0.86178,0.584824 -0.96296,0.603435 -0.96296,0.177133 0,-0.261993 0.29357,-1.056235 0.65239,-1.764985 0.35881,-0.708748 0.60379,-1.337228 0.5444,-1.396622 -0.0594,-0.05939 -0.48908,0.163372 -0.95486,0.495038 l -0.84687,0.603023 0.1704,-1.03718 c 0.0937,-0.57045 0.92224,-2.535948 1.84115,-4.367771 l 1.67075,-3.330589 -0.49843,-1.431911 c -1.04136,-2.991626 -0.83473,-9.511889 0.34145,-10.774363 0.83081,-0.891768 1.48753,-0.947036 2.71381,-0.228385 1.26666,0.74231 3.43602,2.94182 4.52603,4.588937 0.68627,1.037035 0.77628,1.087031 1.50172,0.834144 0.82107,-0.286228 5.38292,-0.178993 6.08831,0.143116 0.30775,0.140533 0.62103,-0.111913 1.17188,-0.944302 1.11436,-1.683911 3.27336,-3.875001 4.56289,-4.630715 1.54912,-0.907846 2.48175,-0.5518 3.16031,1.206498 0.70021,1.814375 0.64279,7.79259 -0.0942,9.80507 l -0.52436,1.431911 1.67075,3.330589 c 0.91891,1.831823 1.74743,3.797321 1.84115,4.367771 l 0.1704,1.03718 -0.84687,-0.603023 c -0.46577,-0.331666 -0.89546,-0.554432 -0.95486,-0.495038 -0.0594,0.05939 0.18559,0.687874 0.5444,1.396622 0.35882,0.70875 0.65239,1.502992 0.65239,1.764985 0,0.426302 -0.10118,0.407691 -0.96296,-0.177133 -1.69662,-1.151356 -1.78376,-0.927458 -0.47653,1.22447 0.51797,0.852662 1.01048,1.999332 1.09447,2.548152 l 0.15271,0.997852 -0.76374,-0.695274 c -0.42006,-0.382403 -1.01102,-0.822045 -1.31325,-0.976985 l -0.5495,-0.281705 0.47472,1.373857 c 0.2611,0.755621 0.47861,2.061525 0.48336,2.902006 l 0.009,1.528149 -0.78061,-0.40367 c -0.42935,-0.222017 -1.02466,-0.403669 -1.32293,-0.403669 -0.46691,0 -0.5423,0.166703 -0.5423,1.199123 0,2.234576 -0.77888,3.273515 -4.70182,6.271779 -2.18155,1.667338 -3.10977,3.019195 -3.942,5.741099 -0.38109,1.246367 -0.77013,2.354585 -0.86455,2.462702 -0.0944,0.108119 -0.54564,-0.427662 -1.00273,-1.190625 z m 2.39559,-14.814807 c 0.37658,-0.275363 0.11929,-0.33073 -1.53693,-0.33073 -1.09408,0 -1.98923,0.0336 -1.98923,0.07467 0,0.04107 0.26789,0.182351 0.59531,0.31396 0.87513,0.351758 2.41213,0.321392 2.93085,-0.0579 z m 0.23423,-0.993177 c 1.13561,-0.430348 1.56087,-0.778439 2.25888,-1.849009 0.86975,-1.333961 1.08677,-2.118752 0.58591,-2.118752 -0.15069,0 -0.51639,0.565547 -0.81266,1.256771 -0.29627,0.691224 -0.72722,1.46513 -0.95765,1.719792 -0.44567,0.492529 -1.552,0.60702 -2.15785,0.223311 -0.28781,-0.182285 -0.24702,-0.26927 0.19154,-0.408464 0.84144,-0.267063 1.62936,-1.43297 1.62936,-2.411013 0,-1.21784 -0.99961,-1.967897 -2.62265,-1.967897 -1.64404,0 -2.40444,0.554125 -2.40444,1.75219 0,1.201309 0.36881,1.862233 1.38349,2.479297 l 0.82055,0.499004 -0.70515,0.17698 c -1.3432,0.337124 -1.90798,-0.02759 -2.63357,-1.700668 -0.72584,-1.673643 -1.10554,-2.103848 -1.33322,-1.510533 -0.0782,0.203674 0.32465,1.088631 0.89513,1.966577 0.89709,1.380596 1.20745,1.648357 2.29719,1.981866 1.71579,0.525114 1.95955,0.518997 3.56514,-0.08945 z m -3.78683,-8.730261 c 0.45087,-0.945886 0.81987,-2.113553 0.81998,-2.594817 1.2e-4,-0.481263 0.12954,-1.388623 0.2876,-2.016355 0.25297,-1.004644 0.21565,-1.280092 -0.31167,-2.299976 -0.61679,-1.192933 -0.7991,-3.073074 -0.44588,-4.598228 l 0.18383,-0.79375 -0.37407,0.79375 c -0.49338,1.046929 -0.49412,2.829508 -0.002,4.008151 0.29119,0.696916 0.36698,1.624389 0.28578,3.497231 -0.0929,2.142141 -0.24052,2.832794 -0.92545,4.328913 -0.49719,1.086043 -0.80281,2.169255 -0.78383,2.778125 l 0.0311,0.997998 0.20723,-1.190625 c 0.11398,-0.654844 0.57613,-1.964532 1.02701,-2.910417 z m 5.21661,2.865969 c -0.0851,-0.425712 -0.49903,-1.57213 -0.91974,-2.547599 -0.9673,-2.242754 -1.3185,-6.069876 -0.69413,-7.564197 0.49572,-1.186433 0.48663,-3.491912 -0.0179,-4.528132 l -0.38644,-0.79375 0.19994,0.79375 c 0.39075,1.551281 0.19522,3.910012 -0.42297,5.102304 -0.32325,0.623454 -0.50845,1.261833 -0.41155,1.41862 0.0969,0.156787 0.26542,1.098043 0.37449,2.091681 0.12368,1.126653 0.50926,2.471066 1.02446,3.572022 0.45437,0.970975 0.82613,2.175787 0.82613,2.677361 0,0.596236 0.10083,0.849638 0.29124,0.731956 0.16715,-0.103309 0.22528,-0.509767 0.13643,-0.954016 z m -6.2485,-6.552912 c 0,-1.135737 -0.49178,-1.869441 -1.25023,-1.865256 -1.76756,0.0098 -1.79559,1.024151 -0.0529,1.913767 1.14833,0.586196 1.30311,0.580434 1.30311,-0.04851 z m -1.94452,-0.934792 c -0.082,-0.213621 -0.0477,-0.451063 0.0763,-0.527647 0.12392,-0.07659 0.29872,0.05207 0.38845,0.285908 0.13973,0.364116 0.22918,0.373394 0.62304,0.06463 0.41612,-0.326215 0.42533,-0.31646 0.0968,0.102494 -0.44279,0.564596 -0.98342,0.598653 -1.18452,0.07462 z m 9.88202,0.669286 c 0.96219,-0.682604 0.96334,-1.228331 0.003,-1.563003 -0.69416,-0.241986 -0.89574,-0.206691 -1.33643,0.233991 -0.28997,0.289976 -0.51896,0.877059 -0.51896,1.33054 0,0.716191 0.07,0.791373 0.59532,0.639654 0.32742,-0.09456 0.89296,-0.383091 1.25677,-0.641182 z m -1.16838,-0.715183 c -0.13525,-0.35246 -0.0952,-0.374968 0.21272,-0.119444 0.25863,0.214638 0.43395,0.22655 0.55084,0.03742 0.26356,-0.426441 0.67252,-0.328842 0.5005,0.119444 -0.2039,0.531348 -1.05547,0.506136 -1.26406,-0.03742 z M 148.5339,34.315732 c 0.73929,-0.763985 1.5759,-1.517076 1.85914,-1.673536 0.48078,-0.265578 0.43945,-0.353444 -0.62223,-1.322916 -0.62546,-0.571145 -1.36828,-1.148194 -1.65071,-1.282332 -0.7947,-0.377448 -1.37073,0.37111 -1.29162,1.678479 0.0359,0.593423 0.0819,1.733794 0.10222,2.534159 0.0203,0.800364 0.0869,1.455208 0.14799,1.455208 0.0611,0 0.71592,-0.625078 1.45521,-1.389062 z m 16.18755,0 c 0.0147,-0.763985 0.0587,-1.9064 0.0977,-2.538701 0.0476,-0.770998 -0.0665,-1.287035 -0.34622,-1.566805 -0.52161,-0.521613 -1.03907,-0.299291 -2.58137,1.109054 -1.06168,0.969472 -1.103,1.057338 -0.62223,1.322916 0.28325,0.15646 1.1103,0.907604 1.8379,1.669209 0.72761,0.761604 1.38245,1.386683 1.45521,1.389062 0.0728,0.0024 0.14432,-0.620751 0.15902,-1.384735 z"
           style="fill:#fdbc20;stroke-width:0.26458335" />
        <path
           inkscape:connector-curvature="0"
           id="path4685"
           d="m 155.31868,70.388614 c -0.30169,-0.42369 -1.00835,-1.770353 -1.57035,-2.992583 -1.06017,-2.305635 -1.7435,-3.050865 -5.59006,-6.096434 -1.82568,-1.445503 -2.6357,-2.823697 -2.64148,-4.494281 -0.004,-1.126128 -0.0662,-1.256602 -0.59967,-1.255141 -0.32742,7.93e-4 -0.94006,0.181422 -1.36143,0.401166 l -0.76612,0.399534 0.14668,-1.939417 c 0.0807,-1.066678 0.33005,-2.378297 0.55418,-2.914708 0.22413,-0.536408 0.31595,-0.975289 0.20404,-0.975289 -0.1119,0 -0.70114,0.425998 -1.30941,0.946658 -1.0618,0.90886 -1.10577,0.922065 -1.10117,0.330729 0.005,-0.580498 0.87816,-2.362869 1.95542,-3.989366 0.63437,-0.957815 0.0877,-0.989928 -1.26183,-0.07412 -0.86853,0.589404 -0.96296,0.606242 -0.96296,0.171698 0,-0.264982 0.30235,-1.05044 0.6719,-1.745467 0.36955,-0.695026 0.60621,-1.329377 0.52592,-1.409676 -0.0803,-0.08029 -0.50876,0.122211 -0.95214,0.450014 l -0.80614,0.596006 0.18561,-1.011677 c 0.21186,-1.154726 1.79893,-4.715253 2.82445,-6.336528 l 0.69042,-1.091521 -0.5666,-1.686604 c -0.4674,-1.39131 -0.56685,-2.311976 -0.56802,-5.25848 -0.002,-3.960011 0.31053,-5.154529 1.56078,-5.973725 0.63985,-0.419248 0.7724,-0.423727 1.54345,-0.05216 1.27386,0.613876 3.18585,2.410643 4.56725,4.29202 1.19291,1.624659 1.26336,1.674148 2.01184,1.413229 0.79676,-0.277752 5.32048,-0.160435 6.04848,0.15686 0.29303,0.127718 0.7597,-0.302977 1.66663,-1.538159 1.40252,-1.910128 3.31001,-3.706782 4.5907,-4.32395 0.77105,-0.371571 0.9036,-0.367092 1.54345,0.05216 1.25025,0.819196 1.56235,2.013714 1.56078,5.973725 -0.001,2.946504 -0.10062,3.86717 -0.56802,5.25848 l -0.5666,1.686604 0.69042,1.091521 c 1.02552,1.621275 2.61259,5.181802 2.82445,6.336528 l 0.18561,1.011677 -0.80614,-0.596006 c -0.44338,-0.327803 -0.87184,-0.530309 -0.95214,-0.450014 -0.0803,0.0803 0.15637,0.71465 0.52592,1.409676 0.36955,0.695027 0.6719,1.480485 0.6719,1.745467 0,0.434544 -0.0944,0.417706 -0.96296,-0.171698 -1.34952,-0.915808 -1.8962,-0.883695 -1.26183,0.07412 1.07726,1.626497 1.9509,3.408868 1.95542,3.989366 0.005,0.591336 -0.0394,0.578131 -1.10117,-0.330729 -0.60828,-0.52066 -1.19751,-0.946658 -1.30941,-0.946658 -0.11191,0 -0.0201,0.438881 0.20404,0.975289 0.22413,0.536411 0.47351,1.84803 0.55418,2.914708 l 0.14668,1.939417 -0.76612,-0.399534 c -0.42137,-0.219744 -1.03401,-0.400269 -1.36143,-0.401166 -0.53343,-0.0016 -0.59577,0.129013 -0.59967,1.255141 -0.006,1.670584 -0.8158,3.048778 -2.64148,4.494281 -4.50581,3.567536 -5.38578,4.711364 -6.23963,8.110562 -0.2416,0.961842 -0.53576,1.748803 -0.65368,1.748803 -0.11792,0 -0.46124,-0.346657 -0.76294,-0.770348 z m 2.1174,-15.113961 c 0.28147,-0.15064 0.51177,-0.392956 0.51177,-0.538477 0,-0.163359 -0.21942,-0.147153 -0.57354,0.04236 -0.36091,0.193154 -1.17013,0.248552 -2.18281,0.149434 -1.4904,-0.145878 -1.56041,-0.129468 -0.94782,0.222152 0.77921,0.447252 2.46641,0.513064 3.1924,0.124526 z m 0.13824,-0.934902 c 1.25192,-0.363945 1.54196,-0.587195 2.35582,-1.813322 0.51047,-0.769054 0.92813,-1.663769 0.92813,-1.988257 0,-0.97877 -0.6236,-0.471032 -1.14386,0.931342 -0.61266,1.651442 -1.13677,2.226947 -2.02805,2.226947 -1.08149,0 -1.10671,-0.240993 -0.11621,-1.110662 0.74137,-0.650931 0.90687,-0.984377 0.90687,-1.827163 0,-1.498544 -0.69403,-2.089258 -2.45467,-2.089258 -1.92947,0 -2.57242,0.492871 -2.57242,1.971969 0,0.97636 0.13573,1.267388 0.90687,1.944452 0.9905,0.869669 0.96528,1.110662 -0.11621,1.110662 -0.86168,0 -1.3809,-0.539485 -2.07276,-2.153663 -0.54148,-1.263311 -1.07518,-1.84653 -1.1305,-1.23539 -0.0651,0.719722 0.0906,1.08902 0.98299,2.33118 0.66516,0.925857 1.2252,1.383986 2.03367,1.663603 1.49767,0.51798 1.85464,0.521787 3.52033,0.03756 z m -3.64383,-8.757428 c 0.4633,-1.043038 0.84236,-2.270237 0.84236,-2.727109 0,-0.456873 0.12933,-1.344276 0.28739,-1.972008 0.24856,-0.987128 0.21376,-1.285657 -0.25757,-2.20955 -0.77312,-1.515431 -0.92043,-2.886927 -0.46808,-4.357924 0.21256,-0.691224 0.28466,-1.256771 0.16022,-1.256771 -0.31141,0 -0.77703,1.773995 -0.77882,2.967316 -8.2e-4,0.540618 0.16917,1.493118 0.37773,2.116667 0.25231,0.754365 0.34919,1.930525 0.2895,3.514975 -0.0754,2.002654 -0.21983,2.654681 -0.90816,4.101042 -0.53376,1.121566 -0.80701,2.08793 -0.78555,2.778125 l 0.0329,1.058334 0.18286,-1.058334 c 0.10057,-0.582083 0.56192,-1.911728 1.02521,-2.954763 z m 5.22301,2.677202 c -0.0906,-0.483132 -0.50158,-1.630357 -0.9132,-2.549387 -0.95274,-2.127187 -1.30595,-5.975203 -0.6849,-7.461587 0.49627,-1.187736 0.48647,-3.493103 -0.0192,-4.528132 -0.33728,-0.690282 -0.36933,-0.707526 -0.24588,-0.132292 0.489,2.278595 0.44798,3.060293 -0.2473,4.712189 -0.3846,0.913776 -0.63369,1.767525 -0.55354,1.897219 0.0802,0.129694 0.25138,1.077102 0.38049,2.105351 0.14021,1.116671 0.56434,2.57388 1.05321,3.618558 0.45015,0.961957 0.81846,2.159389 0.81846,2.660963 0,0.590693 0.10158,0.849172 0.28834,0.733745 0.1721,-0.106363 0.22191,-0.532342 0.12356,-1.056627 z m -6.23273,-6.733897 c 0,-0.436563 -0.23354,-1.027283 -0.51896,-1.312711 -0.4379,-0.437892 -0.64456,-0.47518 -1.32292,-0.238701 -0.91198,0.317917 -1.0175,0.746979 -0.3355,1.364182 0.43671,0.395213 1.52593,0.925923 1.97894,0.964209 0.10914,0.0092 0.19844,-0.340417 0.19844,-0.776979 z m -1.85209,-0.661459 c -0.22757,-0.274204 -0.23758,-0.396875 -0.0324,-0.396875 0.16334,0 0.29698,0.131801 0.29698,0.292891 0,0.16109 0.18477,0.221985 0.41061,0.135322 0.23546,-0.09035 0.34167,-0.046 0.24897,0.103985 -0.229,0.37053 -0.54244,0.324634 -0.92417,-0.135323 z m 9.78959,0.67776 c 0.96219,-0.682604 0.96334,-1.228331 0.003,-1.563003 -0.69416,-0.241986 -0.89574,-0.206691 -1.33643,0.233991 -0.28997,0.289976 -0.51896,0.877059 -0.51896,1.33054 0,0.716191 0.07,0.791373 0.59532,0.639654 0.32742,-0.09456 0.89296,-0.383091 1.25677,-0.641182 z m -1.08477,-0.735094 c -0.34064,-0.433872 -0.33157,-0.441272 0.11274,-0.09197 0.41988,0.330094 0.51785,0.330094 0.74775,0 0.22979,-0.329936 0.25105,-0.329873 0.16174,4.77e-4 -0.1561,0.57739 -0.60893,0.617921 -1.02223,0.09149 z m -11.34944,-6.426404 c 0.60985,-0.7284 1.39485,-1.396151 1.74443,-1.483892 0.34959,-0.08774 0.63561,-0.259134 0.63561,-0.380876 0,-0.391272 -2.49829,-2.619219 -2.94417,-2.625569 -0.70618,-0.01006 -1.10104,0.725447 -1.0289,1.916533 0.0373,0.616023 0.0833,1.745144 0.10223,2.509158 0.0189,0.764014 0.11259,1.389092 0.20818,1.389063 0.0956,-3e-5 0.67277,-0.596017 1.28262,-1.324417 z m 16.3076,-0.130845 c 0.0203,-0.800365 0.0663,-1.929462 0.10223,-2.509105 0.0701,-1.130899 -0.33652,-1.860285 -1.03146,-1.850387 -0.44587,0.0063 -2.94416,2.234297 -2.94416,2.625569 0,0.121742 0.28602,0.293136 0.63561,0.380876 0.34958,0.08774 1.13457,0.755492 1.74442,1.483892 0.60986,0.7284 1.18703,1.324363 1.28263,1.324363 0.0956,0 0.19042,-0.654844 0.21073,-1.455208 z"
           style="fill:#fcb712;stroke-width:0.26458335" />
      </g>
      <path
         id="path4699"
         d="M 35.672476,6.0172452 A 30,30 0 0 0 5.6722418,36.016965 30,30 0 0 0 35.672476,66.017201 30,30 0 0 0 65.672196,36.016965 30,30 0 0 0 35.672476,6.0172452 Z m 0,3.9997568 A 26,26 0 0 1 61.67244,36.016965 26,26 0 0 1 35.672476,62.017445 26,26 0 0 1 9.6725156,36.016965 26,26 0 0 1 35.672476,10.017002 Z"
         style="fill:#b48002;fill-opacity:1;stroke:none;stroke-width:2.70000005;stroke-miterlimit:4;stroke-dasharray:none;stroke-opacity:1"
         inkscape:connector-curvature="0" />
    </g>
    <g
       id="g4797"
       inkscape:export-xdpi="40.639999"
       inkscape:export-ydpi="40.639999">
      <g
         id="g4802">
        <path
           inkscape:connector-curvature="0"
           id="path4731-3"
           d="M 99.152254,9.01024 A 30.000001,30.000001 0 0 0 69.152021,39.00996 30.000001,30.000001 0 0 0 99.152254,69.0102 30.000001,30.000001 0 0 0 129.15197,39.00996 30.000001,30.000001 0 0 0 99.152254,9.01024 Z"
           style="fill:#ffffff;fill-opacity:1;stroke:none;stroke-width:2.70000005;stroke-miterlimit:4;stroke-dasharray:none;stroke-opacity:1" />
        <path
           style="fill:#007839;stroke-width:0.2802462"
           d="m 97.647703,62.81917 c -0.63848,-0.65508 -1.4957,-1.86231 -1.90494,-2.68274 -0.57966,-1.16204 -0.84695,-1.4475 -1.20953,-1.29177 -0.91306,0.39218 -3.26187,0.96183 -3.95953,0.96029 -2.26001,-0.005 -4.49855,-1.51713 -5.1835,-3.5015 -0.43726,-1.26678 -0.20182,-1.73871 0.64206,-1.28708 1.10227,0.58991 2.96002,0.36931 4.15014,-0.49281 2.31224,-1.67498 3.46502,-3.60815 3.46502,-5.81073 0,-1.13514 -0.13723,-1.44032 -1.06477,-2.36785 -2.46039,-2.4604 -6.17366,-1.461 -7.91173,2.12938 -0.39994,0.82615 -0.78127,1.2433 -1.13656,1.2433 -0.89772,0 -2.72218,-1.91914 -3.68635,-3.87765 -0.82655,-1.67896 -0.91352,-2.0963 -0.91352,-4.38373 0,-2.137 0.11235,-2.76656 0.7262,-4.06946 1.51082,-3.20676 4.14113,-4.76419 8.04617,-4.76419 1.63012,0 2.4241,0.13859 3.21129,0.5605 1.52487,0.81728 1.65986,0.71211 1.05517,-0.82205 -0.92795,-2.3542 -1.24132,-4.85736 -0.85573,-6.83541 0.58393,-2.99547 1.79134,-4.85498 6.39315,-9.84596 l 1.53934,-1.66949 2.210067,2.37011 c 4.60039,4.93354 5.84354,7.30356 5.83318,11.12082 -0.004,1.58431 -0.19331,2.71002 -0.69265,4.12524 -0.3777,1.07048 -0.63385,1.99923 -0.5692,2.06387 0.0646,0.0646 0.66836,-0.14914 1.34161,-0.47506 1.54875,-0.74972 4.79803,-0.80832 6.80995,-0.12278 2.84,0.96768 4.91691,3.89146 5.34367,7.52259 0.3295,2.80344 -1.28619,6.80896 -3.3954,8.41773 -1.23758,0.94397 -1.72417,0.86201 -2.36731,-0.39864 -1.71419,-3.3601 -4.14973,-4.44431 -6.94442,-3.09144 -3.43298,1.66187 -2.49156,6.6841 1.73623,9.26234 0.93931,0.57283 2.95043,0.68552 3.83028,0.21463 0.75902,-0.40621 0.90141,-0.19434 0.67621,1.00613 -0.29213,1.55715 -1.99221,3.08879 -3.90317,3.51643 -1.32881,0.29739 -1.81131,0.27986 -3.31879,-0.12056 -0.97016,-0.25769 -1.93929,-0.49721 -2.15363,-0.53225 -0.22077,-0.0361 -0.73409,0.59624 -1.18417,1.45877 -0.81465,1.56118 -2.644057,3.66207 -3.188837,3.66207 -0.16783,0 -0.82753,-0.53598 -1.466,-1.19105 z"
           id="path3798"
           inkscape:connector-curvature="0" />
        <path
           id="path4704"
           d="M 99.152253,9.01024 A 30,30 0 0 0 69.152023,39.00996 30,30 0 0 0 99.152253,69.0102 30,30 0 0 0 129.15197,39.00996 30,30 0 0 0 99.152253,9.01024 Z m 0,3.99976 A 26,26 0 0 1 125.15221,39.00996 26,26 0 0 1 99.152253,65.01044 26,26 0 0 1 73.152293,39.00996 26,26 0 0 1 99.152253,13.01 Z"
           style="fill:#005327;fill-opacity:1;stroke:none;stroke-width:2.70000005;stroke-miterlimit:4;stroke-dasharray:none;stroke-opacity:1"
           inkscape:connector-curvature="0" />
      </g>
    </g>
    <g
       id="g4754"
       inkscape:export-xdpi="40.639999"
       inkscape:export-ydpi="40.639999">
      <path
         style="fill:#ffffff;fill-opacity:1;stroke:none;stroke-width:2.70000005;stroke-miterlimit:4;stroke-dasharray:none;stroke-opacity:1"
         d="m 103.37937,76.56897 a 30,30 0 0 0 -30.00023,29.99972 30,30 0 0 0 30.00023,30.00024 30,30 0 0 0 29.99972,-30.00024 30,30 0 0 0 -29.99972,-29.99972 z"
         id="path4731"
         inkscape:connector-curvature="0" />
      <path
         style="fill:#c11617;stroke-width:0.06380194"
         d="m 100.97206,131.4883 c -0.21527,-0.0468 -0.56998,-0.15726 -0.78825,-0.24542 -0.45107,-0.1822 -1.40528,-0.74022 -1.4469,-0.84615 -0.0153,-0.0386 0.14489,-1.91923 0.35573,-4.17902 0.21084,-2.25981 0.45859,-5.11362 0.55055,-6.34181 0.0919,-1.22818 0.17686,-2.26498 0.18868,-2.30399 0.0156,-0.0514 0.14151,-0.0487 0.45753,0.01 0.23982,0.0444 1.29737,0.11535 2.3501,0.15762 1.05274,0.0423 1.93364,0.0953 1.95757,0.11777 0.0239,0.0225 -7e-5,0.47157 -0.0534,0.99794 -0.0533,0.52636 -0.10663,1.78964 -0.11864,2.80728 -0.0137,1.16167 -0.10733,3.20368 -0.25164,5.48697 -0.26261,4.15498 -0.1637,3.71919 -0.92293,4.0666 -0.76132,0.34836 -1.51485,0.43844 -2.27847,0.27237 z m 1.82695,-14.35906 c -2.21939,-0.0988 -2.242,-0.10136 -3.34961,-0.37422 -1.96137,-0.48319 -3.20234,-1.07598 -4.15139,-1.98305 -0.2082,-0.19898 -0.44501,-0.3881 -0.52625,-0.42026 -0.0812,-0.0322 -0.71573,-0.0584 -1.40997,-0.0584 -0.69424,0 -1.48558,-0.0189 -1.75853,-0.0419 l -0.49627,-0.0419 -0.16363,-0.35682 c -0.14098,-0.3074 -0.1629,-0.44073 -0.1583,-0.96293 0.006,-0.67144 0.12515,-1.27938 0.51934,-2.64778 0.67932,-2.3582 0.87768,-3.4821 0.81637,-4.62564 -0.0217,-0.40355 -0.056,-0.8055 -0.0762,-0.89323 l -0.0369,-0.1595 0.62383,0.0225 c 1.03898,0.0376 1.89471,-0.15746 2.89415,-0.65961 0.63941,-0.32128 1.11228,-0.63081 2.77537,-1.81671 0.77201,-0.55049 1.69076,-1.19889 2.04167,-1.44091 0.35091,-0.242 0.86771,-0.61019 1.14844,-0.818202 1.21187,-0.89792 2.42727,-1.20855 3.79621,-0.9702 1.42658,0.24838 3.65868,1.190852 4.51525,1.906492 0.14204,0.11866 0.73439,0.47143 1.31633,0.78393 0.66828,0.35886 1.05824,0.6047 1.05855,0.6673 8.4e-4,0.2239 -0.36913,0.81575 -0.73544,1.17568 -0.21496,0.21122 -0.58537,0.49727 -0.82313,0.63566 -0.23776,0.13838 -0.44725,0.29058 -0.46552,0.3382 -0.042,0.10944 0.16024,0.32601 0.55777,0.59728 0.43256,0.29517 0.57358,0.57129 0.57358,1.12305 0,0.24338 -0.0446,0.57348 -0.0992,0.73354 -0.13037,0.3826 -0.48413,0.78837 -0.7694,0.88252 -0.25778,0.0851 -0.25758,0.0822 -0.0573,0.826 0.26065,0.96788 -0.0633,1.77798 -1.0083,2.52122 l -0.24336,0.1914 0.10542,0.44661 c 0.24479,1.03725 -0.17925,1.88123 -1.15988,2.30843 l -0.40479,0.17635 v 0.41901 c 0,1.15825 -0.53937,1.97731 -1.61547,2.45322 -0.4249,0.18791 -0.42723,0.18795 -3.23347,0.063 z m -2.13326,-17.525452 c -0.0135,-0.0444 -0.0575,-0.58314 -0.0979,-1.19724 -0.21419,-3.26017 -0.73981,-6.2312 -1.78908,-10.11261 -0.62672,-2.31832 -0.83141,-3.20695 -0.99113,-4.30278 -0.13912,-0.9545 -0.10825,-1.38723 0.12034,-1.68694 0.78871,-1.03405 3.27619,-0.96076 3.90123,0.11494 0.2783,0.47898 0.70642,2.9327 1.05283,6.03429 0.36043,3.22706 0.66466,4.70614 1.11458,5.41887 0.20869,0.33058 0.39422,0.45091 0.69525,0.45091 0.615,0 1.14159,-0.60622 3.21437,-3.70051 1.24861,-1.86393 2.5105,-4.2123 3.7821,-7.03846 0.65209,-1.4493 0.70572,-1.51924 1.2635,-1.64799 0.9124,-0.21061 2.27691,0.54038 2.82336,1.5539 0.18656,0.34604 0.21661,0.46309 0.21767,0.84806 l 8.4e-4,0.44661 -0.60026,1.05273 c -1.10631,1.94024 -2.45867,4.0698 -3.49244,5.49956 -0.54752,0.75725 -1.71641,3.12084 -3.2437,6.55901 -0.27279,0.6141 -0.51464,1.1375 -0.53744,1.16312 -0.0228,0.0256 -0.25592,-0.0407 -0.51804,-0.14753 -1.1997,-0.48866 -2.68715,-0.80552 -3.46854,-0.73889 -1.05838,0.0902 -2.00627,0.45642 -2.89541,1.11849 -0.33224,0.24739 -0.5371,0.36324 -0.55253,0.31246 z"
         id="path3779"
         inkscape:connector-curvature="0" />
      <path
         id="path4706"
         d="m 103.37937,76.568968 a 30,30 0 0 0 -30.00023,29.999722 30,30 0 0 0 30.00023,30.00024 30,30 0 0 0 29.99972,-30.00024 30,30 0 0 0 -29.99972,-29.999722 z m 0,3.99976 a 26,26 0 0 1 25.99996,25.999962 26,26 0 0 1 -25.99996,26.00048 26,26 0 0 1 -25.99996,-26.00048 26,26 0 0 1 25.99996,-25.999962 z"
         style="fill:#660c0c;fill-opacity:1;stroke:none;stroke-width:2.70000005;stroke-miterlimit:4;stroke-dasharray:none;stroke-opacity:1"
         inkscape:connector-curvature="0" />
    </g>
  </g>
</svg>
